{
.appVersion = "1350";
DisplayStrings = (
"!\"#$%&'()*+,-.//\0120123456789:;<=>?\012@ABCDEFGHIJKLMNO\012PQRSTUVWXYZ[/backslash ]^_\012`abcdefghijklmno\012pqrstuvwxyz{|}~\012\012",
"H9H090123456789\012H9H090123456789\012H9H090123456789\012\0120123456789\012ABCDEFGHIJKLM\012NOPQRSTUVWXYZ"
);
copyright = "Copyright © 2019 by Coji Morishita. All rights reserved.";
customParameters = (
{
name = vendorID;
value = UFDN;
},
{
name = ROS;
value = "Adobe-Identity-0";
},
{
name = "Enforce Compatibility Check";
value = 1;
},
{
name = Axes;
value = (
{
Name = Weight;
Tag = wght;
}
);
},
{
name = "Use Typo Metrics";
value = 1;
},
{
name = note;
value = "%:    60% (Black +20, Thin 20, Medium +20)\012ord*: 80% (Black +10, Thin 20, Medium +10)\012*sup: 60% (Black +20, Thin 20, Medium +20)\012©®:   60% (Black +20, Thin 20, Medium +20)\012TM:   50% (Black +0~10, Thin 20, Medium +20)\012\012*sml: X100、Y-8、W80%、H80% (Black +20, Thin 20, Medium +6)\012\012full-width bracket pairs: X1000, Y720 Rotate180";
}
);
date = "2019-12-03 09:19:53 +0000";
designer = "Coji Morishita";
designerURL = "http://www.underforest.com";
familyName = "Mplus 1p";
featurePrefixes = (
{
automatic = 1;
code = "languagesystem DFLT dflt;\012\012languagesystem latn dflt;\012languagesystem latn AZE;\012languagesystem latn CRT;\012languagesystem latn KAZ;\012languagesystem latn TAT;\012languagesystem latn TRK;\012languagesystem latn ROM;\012languagesystem latn MOL;\012languagesystem latn CAT;\012";
name = Languagesystems;
}
);
features = (
{
automatic = 1;
code = "feature locl;\012feature sups;\012feature frac;\012feature ordn;\012feature pnum;\012feature tnum;\012feature case;\012feature fwid;\012feature vert;\012feature vkna;\012feature vrt2;\012";
name = aalt;
},
{
automatic = 1;

glyphs = (
{
color = 10;
glyphname = A;
lastChange = "2020-12-09 12:09:22 +0000";
layers = (
{
anchors = (
{
name = bottom;
position = "{339, 0}";
},
{
name = ogonek;
position = "{659, 0}";
},
{
name = top;
position = "{339, 730}";
},
{
name = top_ring;
position = "{339, 715}";
}
);
layerId = "D65C9A1E-0FCA-4B2D-8EDF-9F36CA9182A1";
leftMetricsKey = "=H*.2";
paths = (
{
closed = 1;
nodes = (
"41 0 LINE",
"338 711 LINE",
"340 711 LINE",
"637 0 LINE",
"659 0 LINE",
"353 730 LINE",
"325 730 LINE",
"19 0 LINE"
);
},
{
closed = 1;
nodes = (
"549 237 LINE",
"549 257 LINE",
"129 257 LINE",
"129 237 LINE"
);
}
);
width = 678;
},
{
anchors = (
{
name = bottom;
position = "{352, 0}";
},
{
name = ogonek;
position = "{692, 0}";
},
{
name = top;
position = "{352, 730}";
},
{
name = top_ring;
position = "{353, 690}";
}
);
layerId = "9527F797-22C1-480E-A1FE-2CDBEBE1FD4C";
paths = (
{
closed = 1;
nodes = (
"133 0 LINE",
"351 636 LINE",
"353 636 LINE",
"571 0 LINE",
"692 0 LINE",
"427 730 LINE",
"278 730 LINE",
"12 0 LINE"
);
},
{
closed = 1;
nodes = (
"555 183 LINE",
"555 283 LINE",
"150 283 LINE",
"150 183 LINE"
);
}
);
width = 704;
},
{
anchors = (
{
name = bottom;
position = "{367, 0}";
},
{
name = ogonek;
position = "{727, 0}";
},
{
name = top;
position = "{367, 730}";
},
{
name = top_ring;
position = "{368, 665}";
}
);
layerId = "9E6B41AB-2970-4C41-8B35-4DBE0D296A43";
leftMetricsKey = "=H*.1";
paths = (
{
closed = 1;
nodes = (
"227 0 LINE",
"366 560 LINE",
"368 560 LINE",
"507 0 LINE",
"727 0 LINE",
"502 730 LINE",
"232 730 LINE",
"7 0 LINE"
);
},
{
closed = 1;
nodes = (
"562 135 LINE",
"562 300 LINE",
"172 300 LINE",
"172 135 LINE"
);
}
);
width = 734;
}
);
leftKerningGroup = A;
leftMetricsKey = "=H*.15";
rightKerningGroup = A;
rightMetricsKey = "=|";
unicode = 0041;
},
{
color = 11;
glyphname = AE;
lastChange = "2020-12-09 12:10:12 +0000";
layers = (
{
anchors = (
{
name = bottom;
position = "{440, 0}";
},
{
name = top;
position = "{440, 730}";
}
);
layerId = "D65C9A1E-0FCA-4B2D-8EDF-9F36CA9182A1";
paths = (
{
closed = 1;
nodes = (
"42 0 LINE",
"393 710 LINE",
"413 710 LINE",
"413 0 LINE",
"733 0 LINE",
"733 20 LINE",
"433 20 LINE",
"433 380 LINE",
"713 380 LINE",
"713 400 LINE",
"433 400 LINE",
"433 710 LINE",
"733 710 LINE",
"733 730 LINE",
"381 730 LINE",
"19 0 LINE"
);
},
{
closed = 1;
nodes = (
"423 237 LINE",
"423 257 LINE",
"153 257 LINE",
"153 237 LINE"
);
}
);
width = 804;
},
{
anchors = (
{
name = bottom;
position = "{460, 0}";
},
{
name = top;
position = "{460, 730}";
}
);
layerId = "9527F797-22C1-480E-A1FE-2CDBEBE1FD4C";
paths = (
{
closed = 1;
nodes = (
"133 0 LINE",
"384 640 LINE",
"409 640 LINE",
"409 0 LINE",
"794 0 LINE",
"794 98 LINE",
"519 98 LINE",
"519 335 LINE",
"774 335 LINE",
"774 430 LINE",
"519 430 LINE",
"519 632 LINE",
"794 632 LINE",
"794 730 LINE",
"313 730 LINE",
"12 0 LINE"
);
},
{
closed = 1;
nodes = (
"469 183 LINE",
"469 283 LINE",
"157 283 LINE",
"157 183 LINE"
);
}
);
width = 858;
},
{
anchors = (
{
name = bottom;
position = "{480, 0}";
},
{
name = top;
position = "{480, 730}";
}
);
layerId = "9E6B41AB-2970-4C41-8B35-4DBE0D296A43";
paths = (
{
closed = 1;
nodes = (
"227 0 LINE",
"377 570 LINE",
"407 570 LINE",
"407 0 LINE",
"857 0 LINE",
"857 160 LINE",
"607 160 LINE",
"607 298 LINE",
"837 298 LINE",
"837 453 LINE",
"607 453 LINE",
"607 570 LINE",
"857 570 LINE",
"857 730 LINE",
"247 730 LINE",
"7 0 LINE"
);
},
{
closed = 1;
nodes = (
"517 135 LINE",
"517 300 LINE",
"162 300 LINE",
"162 135 LINE"
);
}
);
width = 912;
}
);
leftKerningGroup = A;
leftMetricsKey = "=A";
rightKerningGroup = E;
rightMetricsKey = "=E";
unicode = 00C6;
},
{
color = 10;
glyphname = B;
lastChange = "2020-12-09 12:47:52 +0000";
layers = (
{
layerId = "9527F797-22C1-480E-A1FE-2CDBEBE1FD4C";
rightMetricsKey = "=|*.45";
paths = (
{
closed = 1;
nodes = (
"340 0 LINE SMOOTH",
"548 0 OFFCURVE",
"650 67 OFFCURVE",
"650 205 CURVE SMOOTH",
"650 308 OFFCURVE",
"593 370 OFFCURVE",
"483 387 CURVE",
"483 389 LINE",
"570 407 OFFCURVE",
"620 466 OFFCURVE",
"620 553 CURVE SMOOTH",
"620 672 OFFCURVE",
"527 730 OFFCURVE",
"335 730 CURVE SMOOTH",
"80 730 LINE",
"80 0 LINE"
);
},
{
closed = 1;
nodes = (
"190 632 LINE",
"340 632 LINE SMOOTH",
"460 632 OFFCURVE",
"510 603 OFFCURVE",
"510 534 CURVE SMOOTH",
"510 463 OFFCURVE",
"457 430 OFFCURVE",
"340 430 CURVE SMOOTH",
"135 430 LINE",
"135 335 LINE",
"340 335 LINE SMOOTH",
"476 335 OFFCURVE",
"538 298 OFFCURVE",
"538 216 CURVE SMOOTH",
"538 134 OFFCURVE",
"477 98 OFFCURVE",
"340 98 CURVE SMOOTH",
"190 98 LINE"
);
}
);
width = 686;
},
{
layerId = "9E6B41AB-2970-4C41-8B35-4DBE0D296A43";
rightMetricsKey = "=|*.5";
paths = (
{
closed = 1;
nodes = (
"345 0 LINE SMOOTH",
"553 0 OFFCURVE",
"665 73 OFFCURVE",
"665 210 CURVE SMOOTH",
"665 310 OFFCURVE",
"606 370 OFFCURVE",
"495 384 CURVE",
"495 386 LINE",
"589 400 OFFCURVE",
"645 461 OFFCURVE",
"645 550 CURVE SMOOTH",
"645 668 OFFCURVE",
"538 730 OFFCURVE",
"335 730 CURVE SMOOTH",
"65 730 LINE",
"65 0 LINE"
);
},
{
closed = 1;
nodes = (
"265 575 LINE",
"345 575 LINE SMOOTH",
"418 575 OFFCURVE",
"445 558 OFFCURVE",
"445 512 CURVE SMOOTH",
"445 466 OFFCURVE",
"419 450 OFFCURVE",
"345 450 CURVE SMOOTH",
"165 450 LINE",
"165 300 LINE",
"345 300 LINE SMOOTH",
"425 300 OFFCURVE",
"460 278 OFFCURVE",
"460 228 CURVE SMOOTH",
"460 178 OFFCURVE",
"424 155 OFFCURVE",
"345 155 CURVE SMOOTH",
"265 155 LINE"
);
}
);
width = 698;
},
{
layerId = "D65C9A1E-0FCA-4B2D-8EDF-9F36CA9182A1";
rightMetricsKey = "=|*.4";
paths = (
{
closed = 1;
nodes = (
"335 0 LINE SMOOTH",
"539 0 OFFCURVE",
"635 63 OFFCURVE",
"635 200 CURVE SMOOTH",
"635 308 OFFCURVE",
"576 369 OFFCURVE",
"451 390 CURVE",
"451 392 LINE",
"547 414 OFFCURVE",
"595 467 OFFCURVE",
"595 555 CURVE SMOOTH",
"595 673 OFFCURVE",
"508 730 OFFCURVE",
"335 730 CURVE SMOOTH",
"95 730 LINE",
"95 0 LINE"
);
},
{
closed = 1;
nodes = (
"115 710 LINE",
"335 710 LINE SMOOTH",
"498 710 OFFCURVE",
"575 660 OFFCURVE",
"575 555 CURVE SMOOTH",
"575 450 OFFCURVE",
"498 400 OFFCURVE",
"335 400 CURVE SMOOTH",
"105 400 LINE",
"105 380 LINE",
"335 380 LINE SMOOTH",
"528 380 OFFCURVE",
"615 324 OFFCURVE",
"615 200 CURVE SMOOTH",
"615 76 OFFCURVE",
"528 20 OFFCURVE",
"335 20 CURVE SMOOTH",
"115 20 LINE"
);
}
);
width = 673;
}
);
leftKerningGroup = H;
leftMetricsKey = "=H";
rightKerningGroup = B;
rightMetricsKey = "=|*.5";
unicode = 0042;
},
{
color = 10;
glyphname = C;
lastChange = "2020-12-09 12:35:21 +0000";
layers = (
{
anchors = (
{
name = bottom;
position = "{406, 0}";
},
{
name = top;
position = "{406, 730}";
}
);
layerId = "D65C9A1E-0FCA-4B2D-8EDF-9F36CA9182A1";
paths = (
{
closed = 1;
nodes = (
"503 -10 OFFCURVE",
"581 12 OFFCURVE",
"648 55 CURVE",
"637 72 LINE",
"573 31 OFFCURVE",
"499 10 OFFCURVE",
"417 10 CURVE SMOOTH",
"205 10 OFFCURVE",
"68 150 OFFCURVE",
"68 365 CURVE SMOOTH",
"68 580 OFFCURVE",
"205 720 OFFCURVE",
"417 720 CURVE SMOOTH",
"499 720 OFFCURVE",
"573 699 OFFCURVE",
"637 658 CURVE",
"648 675 LINE",
"581 718 OFFCURVE",
"503 740 OFFCURVE",
"417 740 CURVE SMOOTH",
"194 740 OFFCURVE",
"48 591 OFFCURVE",
"48 365 CURVE SMOOTH",
"48 139 OFFCURVE",
"194 -10 OFFCURVE",
"417 -10 CURVE SMOOTH"
);
}
);
width = 705;
},
{
anchors = (
{
name = bottom;
position = "{402, 0}";
},
{
name = top;
position = "{402, 730}";
}
);
layerId = "9527F797-22C1-480E-A1FE-2CDBEBE1FD4C";
paths = (
{
closed = 1;
nodes = (
"509 -10 OFFCURVE",
"590 10 OFFCURVE",
"660 50 CURVE",
"633 148 LINE",
"563 109 OFFCURVE",
"495 90 OFFCURVE",
"424 90 CURVE SMOOTH",
"257 90 OFFCURVE",
"154 194 OFFCURVE",
"154 365 CURVE SMOOTH",
"154 536 OFFCURVE",
"257 640 OFFCURVE",
"424 640 CURVE SMOOTH",
"496 640 OFFCURVE",
"565 621 OFFCURVE",
"633 582 CURVE",
"660 680 LINE",
"590 720 OFFCURVE",
"509 740 OFFCURVE",
"420 740 CURVE SMOOTH",
"183 740 OFFCURVE",
"40 599 OFFCURVE",
"40 365 CURVE SMOOTH",
"40 131 OFFCURVE",
"183 -10 OFFCURVE",
"420 -10 CURVE SMOOTH"
);
}
);
width = 708;
},
{
anchors = (
{
name = bottom;
position = "{399, 0}";
},
{
name = top;
position = "{399, 730}";
}
);
layerId = "9E6B41AB-2970-4C41-8B35-4DBE0D296A43";
paths = (
{
closed = 1;
nodes = (
"517 -10 OFFCURVE",
"600 8 OFFCURVE",
"673 46 CURVE",
"630 216 LINE",
"558 178 OFFCURVE",
"492 160 OFFCURVE",
"432 160 CURVE SMOOTH",
"310 160 OFFCURVE",
"241 234 OFFCURVE",
"241 365 CURVE SMOOTH",
"241 496 OFFCURVE",
"310 570 OFFCURVE",
"432 570 CURVE SMOOTH",
"492 570 OFFCURVE",
"558 552 OFFCURVE",
"630 514 CURVE",
"673 684 LINE",
"600 722 OFFCURVE",
"517 740 OFFCURVE",
"424 740 CURVE SMOOTH",
"173 740 OFFCURVE",
"33 606 OFFCURVE",
"33 365 CURVE SMOOTH",
"33 124 OFFCURVE",
"173 -10 OFFCURVE",
"424 -10 CURVE SMOOTH"
);
}
);
width = 712;
}
);
leftKerningGroup = O;
leftMetricsKey = "=O";
rightKerningGroup = C;
rightMetricsKey = "=H*.6";
unicode = 0043;
},
{
color = 10;
glyphname = D;
lastChange = "2020-12-09 12:47:18 +0000";
layers = (
{
anchors = (
{
name = bottom;
position = "{351, 0}";
},
{
name = center;
position = "{351, 365}";
},
{
name = top;
position = "{351, 730}";
}
);
layerId = "D65C9A1E-0FCA-4B2D-8EDF-9F36CA9182A1";
paths = (
{
closed = 1;
nodes = (
"265 0 LINE SMOOTH",
"520 0 OFFCURVE",
"655 126 OFFCURVE",
"655 365 CURVE SMOOTH",
"655 604 OFFCURVE",
"520 730 OFFCURVE",
"265 730 CURVE SMOOTH",
"95 730 LINE",
"95 0 LINE"
);
},
{
closed = 1;
nodes = (
"115 710 LINE",
"265 710 LINE SMOOTH",
"510 710 OFFCURVE",
"635 592 OFFCURVE",
"635 365 CURVE SMOOTH",
"635 138 OFFCURVE",
"510 20 OFFCURVE",
"265 20 CURVE SMOOTH",
"115 20 LINE"
);
}
);
width = 703;
},
{
anchors = (
{
name = bottom;
position = "{355, 0}";
},
{
name = center;
position = "{355, 365}";
},
{
name = top;
position = "{355, 730}";
}
);
background = {
anchors = (
{
name = bottom;
position = "{343, 0}";
},
{
name = center;
position = "{343, 365}";
},
{
name = top;
position = "{343, 730}";
}
);
paths = (
{
closed = 1;
nodes = (
"275 0 LINE SMOOTH",
"526 0 OFFCURVE",
"645 117 OFFCURVE",
"645 365 CURVE SMOOTH",
"645 613 OFFCURVE",
"526 730 OFFCURVE",
"275 730 CURVE SMOOTH",
"80 730 LINE",
"80 0 LINE"
);
},
{
closed = 1;
nodes = (
"190 630 LINE",
"282 630 LINE SMOOTH",
"459 630 OFFCURVE",
"533 552 OFFCURVE",
"533 365 CURVE SMOOTH",
"533 178 OFFCURVE",
"459 100 OFFCURVE",
"282 100 CURVE SMOOTH",
"190 100 LINE"
);
}
);
};
layerId = "9527F797-22C1-480E-A1FE-2CDBEBE1FD4C";
paths = (
{
closed = 1;
nodes = (
"290 0 LINE SMOOTH",
"547 0 OFFCURVE",
"670 118 OFFCURVE",
"670 365 CURVE SMOOTH",
"670 612 OFFCURVE",
"547 730 OFFCURVE",
"290 730 CURVE SMOOTH",
"80 730 LINE",
"80 0 LINE"
);
},
{
closed = 1;
nodes = (
"190 630 LINE",
"297 630 LINE SMOOTH",
"479 630 OFFCURVE",
"558 550 OFFCURVE",
"558 365 CURVE SMOOTH",
"558 180 OFFCURVE",
"479 100 OFFCURVE",
"297 100 CURVE SMOOTH",
"190 100 LINE"
);
}
);
width = 710;
},
{
anchors = (
{
name = bottom;
position = "{359, 0}";
},
{
name = center;
position = "{359, 365}";
},
{
name = top;
position = "{359, 730}";
}
);
layerId = "9E6B41AB-2970-4C41-8B35-4DBE0D296A43";
paths = (
{
closed = 1;
nodes = (
"315 0 LINE SMOOTH",
"574 0 OFFCURVE",
"685 109 OFFCURVE",
"685 365 CURVE SMOOTH",
"685 621 OFFCURVE",
"574 730 OFFCURVE",
"315 730 CURVE",
"65 730 LINE",
"65 0 LINE"
);
},
{
closed = 1;
nodes = (
"265 570 LINE",
"328 570 LINE SMOOTH",
"446 570 OFFCURVE",
"480 524 OFFCURVE",
"480 365 CURVE SMOOTH",
"480 206 OFFCURVE",
"446 160 OFFCURVE",
"328 160 CURVE SMOOTH",
"265 160 LINE"
);
}
);
width = 718;
}
);
leftKerningGroup = H;
leftMetricsKey = "=H";
rightKerningGroup = O;
rightMetricsKey = "=O";
unicode = 0044;
},
{
color = 11;
glyphname = Eth;
lastChange = "2020-12-09 11:54:01 +0000";
layers = (
{
anchors = (
{
name = bottom;
position = "{382, 0}";
},
{
name = center;
position = "{382, 365}";
},
{
name = top;
position = "{382, 730}";
}
);
components = (
{
name = D;
transform = "{1, 0, 0, 1, 46, 0}";
}
);
layerId = "D65C9A1E-0FCA-4B2D-8EDF-9F36CA9182A1";
paths = (
{
closed = 1;
nodes = (
"441 355 LINE",
"441 375 LINE",
"31 375 LINE",
"31 355 LINE"
);
}
);
width = 719;
},
{
anchors = (
{
name = bottom;
position = "{397, 0}";
},
{
name = center;
position = "{397, 365}";
},
{
name = top;
position = "{397, 730}";
}
);
components = (
{
alignment = -1;
name = D;
transform = "{1, 0, 0, 1, 54, 0}";
}
);
layerId = "9527F797-22C1-480E-A1FE-2CDBEBE1FD4C";
paths = (
{
closed = 1;
nodes = (
"444 320 LINE",
"444 410 LINE",
"26 410 LINE",
"26 320 LINE"
);
}
);
width = 739;
},
{
anchors = (
{
name = bottom;
position = "{409, 0}";
},
{
name = center;
position = "{409, 365}";
},
{
name = top;
position = "{409, 730}";
}
);
components = (
{
name = D;
transform = "{1, 0, 0, 1, 60, 0}";
}
);
layerId = "9E6B41AB-2970-4C41-8B35-4DBE0D296A43";
paths = (
{
closed = 1;
nodes = (
"446 295 LINE",
"446 435 LINE",
"20 435 LINE",
"20 295 LINE"
);
}
);
width = 758;
}
);
leftKerningGroup = f;
leftMetricsKey = "=f*1.2";
rightKerningGroup = O;
rightMetricsKey = "=O";
unicode = 00D0;
},
{
color = 10;
glyphname = E;
lastChange = "2020-12-10 01:20:37 +0000";
layers = (
{
anchors = (
{
name = bottom;
position = "{341, 0}";
},
{
name = ogonek;
position = "{576, 0}";
},
{
name = top;
position = "{341, 730}";
},
{
name = topleft;
position = "{3, 730}";
}
);
layerId = "D65C9A1E-0FCA-4B2D-8EDF-9F36CA9182A1";
rightMetricsKey = "=H*.75";
paths = (
{
closed = 1;
nodes = (
"575 0 LINE",
"575 20 LINE",
"115 20 LINE",
"115 380 LINE",
"555 380 LINE",
"555 400 LINE",
"115 400 LINE",
"115 710 LINE",
"575 710 LINE",
"575 730 LINE",
"95 730 LINE",
"95 0 LINE"
);
}
);
width = 646;
},
{
anchors = (
{
name = bottom;
position = "{338, 0}";
},
{
name = ogonek;
position = "{591, 0}";
},
{
name = top;
position = "{338, 730}";
},
{
name = topleft;
position = "{14, 730}";
}
);
layerId = "9527F797-22C1-480E-A1FE-2CDBEBE1FD4C";
rightMetricsKey = "=H*.8";
paths = (
{
closed = 1;
nodes = (
"590 0 LINE",
"590 98 LINE",
"190 98 LINE",
"190 334 LINE",
"570 334 LINE",
"570 430 LINE",
"190 430 LINE",
"190 632 LINE",
"590 632 LINE",
"590 730 LINE",
"80 730 LINE",
"80 0 LINE"
);
}
);
width = 654;
},
{
anchors = (
{
name = bottom;
position = "{335, 0}";
},
{
name = ogonek;
position = "{605, 0}";
},
{
name = top;
position = "{335, 730}";
},
{
name = topleft;
position = "{20, 730}";
}
);
layerId = "9E6B41AB-2970-4C41-8B35-4DBE0D296A43";
rightMetricsKey = "=H*.85";
paths = (
{
closed = 1;
nodes = (
"605 0 LINE",
"605 160 LINE",
"265 160 LINE",
"265 298 LINE",
"585 298 LINE",
"585 452 LINE",
"265 452 LINE",
"265 570 LINE",
"605 570 LINE",
"605 730 LINE",
"65 730 LINE",
"65 0 LINE"
);
}
);
width = 660;
}
);
leftKerningGroup = H;
leftMetricsKey = "=H";
rightKerningGroup = E;
rightMetricsKey = "=H*.85";
unicode = 0045;
},
{
color = 10;
glyphname = F;
lastChange = "2020-12-10 01:25:36 +0000";
layers = (
{
layerId = "D65C9A1E-0FCA-4B2D-8EDF-9F36CA9182A1";
rightMetricsKey = "=H*.55";
paths = (
{
closed = 1;
nodes = (
"115 0 LINE",
"115 355 LINE",
"555 355 LINE",
"555 375 LINE",
"115 375 LINE",
"115 710 LINE",
"575 710 LINE",
"575 730 LINE",
"95 730 LINE",
"95 0 LINE"
);
}
);
width = 627;
},
{
layerId = "9527F797-22C1-480E-A1FE-2CDBEBE1FD4C";
rightMetricsKey = "=H*.65";
paths = (
{
closed = 1;
nodes = (
"190 0 LINE",
"190 309 LINE",
"570 309 LINE",
"570 407 LINE",
"190 407 LINE",
"190 630 LINE",
"590 630 LINE",
"590 730 LINE",
"80 730 LINE",
"80 0 LINE"
);
}
);
width = 642;
},
{
layerId = "9E6B41AB-2970-4C41-8B35-4DBE0D296A43";
rightMetricsKey = "=H*.75";
paths = (
{
closed = 1;
nodes = (
"265 0 LINE",
"265 270 LINE",
"585 270 LINE",
"585 430 LINE",
"265 430 LINE",
"265 565 LINE",
"605 565 LINE",
"605 730 LINE",
"65 730 LINE",
"65 0 LINE"
);
}
);
width = 654;
}
);
leftKerningGroup = H;
leftMetricsKey = "=H";
rightKerningGroup = F;
rightMetricsKey = "=H*.75";
unicode = 0046;
},
{
color = 10;
glyphname = G;
lastChange = "2020-12-09 11:53:59 +0000";
layers = (
{
anchors = (
{
name = bottom;
position = "{426, 0}";
},
{
name = top;
position = "{426, 730}";
}
);
layerId = "D65C9A1E-0FCA-4B2D-8EDF-9F36CA9182A1";
paths = (
{
closed = 1;
nodes = (
"547 -10 OFFCURVE",
"655 11 OFFCURVE",
"728 44 CURVE",
"728 400 LINE",
"348 400 LINE",
"348 380 LINE",
"708 380 LINE",
"708 45 LINE",
"720 62 LINE",
"649 30 OFFCURVE",
"544 10 OFFCURVE",
"450 10 CURVE SMOOTH",
"210 10 OFFCURVE",
"68 142 OFFCURVE",
"68 365 CURVE SMOOTH",
"68 582 OFFCURVE",
"216 720 OFFCURVE",
"450 720 CURVE SMOOTH",
"539 720 OFFCURVE",
"625 700 OFFCURVE",
"690 663 CURVE",
"700 680 LINE",
"633 718 OFFCURVE",
"544 740 OFFCURVE",
"450 740 CURVE SMOOTH",
"211 740 OFFCURVE",
"48 599 OFFCURVE",
"48 365 CURVE SMOOTH",
"48 131 OFFCURVE",
"199 -10 OFFCURVE",
"450 -10 CURVE SMOOTH"
);
}
);
width = 809;
},
{
anchors = (
{
name = bottom;
position = "{423, 0}";
},
{
name = top;
position = "{423, 730}";
}
);
layerId = "9527F797-22C1-480E-A1FE-2CDBEBE1FD4C";
paths = (
{
closed = 1;
nodes = (
"556 -10 OFFCURVE",
"664 11 OFFCURVE",
"740 47 CURVE",
"740 426 LINE",
"355 426 LINE",
"355 332 LINE",
"630 332 LINE",
"630 88 LINE",
"647 127 LINE",
"594 103 OFFCURVE",
"525 90 OFFCURVE",
"455 90 CURVE SMOOTH",
"263 90 OFFCURVE",
"153 190 OFFCURVE",
"153 365 CURVE SMOOTH",
"153 538 OFFCURVE",
"263 640 OFFCURVE",
"449 640 CURVE SMOOTH",
"530 640 OFFCURVE",
"613 621 OFFCURVE",
"676 587 CURVE",
"702 682 LINE",
"634 720 OFFCURVE",
"545 740 OFFCURVE",
"449 740 CURVE SMOOTH",
"195 740 OFFCURVE",
"40 598 OFFCURVE",
"40 365 CURVE SMOOTH",
"40 131 OFFCURVE",
"196 -10 OFFCURVE",
"455 -10 CURVE SMOOTH"
);
}
);
width = 808;
},
{
anchors = (
{
name = bottom;
position = "{422, 0}";
},
{
name = top;
position = "{422, 730}";
}
);
layerId = "9E6B41AB-2970-4C41-8B35-4DBE0D296A43";
paths = (
{
closed = 1;
nodes = (
"569 -10 OFFCURVE",
"676 12 OFFCURVE",
"753 50 CURVE",
"753 452 LINE",
"363 452 LINE",
"363 287 LINE",
"553 287 LINE",
"553 131 LINE",
"576 177 LINE",
"538 161 OFFCURVE",
"505 155 OFFCURVE",
"461 155 CURVE SMOOTH",
"313 155 OFFCURVE",
"238 225 OFFCURVE",
"238 365 CURVE SMOOTH",
"238 503 OFFCURVE",
"311 575 OFFCURVE",
"450 575 CURVE SMOOTH",
"523 575 OFFCURVE",
"604 556 OFFCURVE",
"664 524 CURVE",
"706 684 LINE",
"639 720 OFFCURVE",
"548 740 OFFCURVE",
"450 740 CURVE SMOOTH",
"188 740 OFFCURVE",
"33 601 OFFCURVE",
"33 365 CURVE SMOOTH",
"33 129 OFFCURVE",
"191 -10 OFFCURVE",
"461 -10 CURVE SMOOTH"
);
}
);
width = 808;
}
);
leftKerningGroup = O;
leftMetricsKey = "=O";
rightKerningGroup = G;
rightMetricsKey = "=H*.85";
unicode = 0047;
},
{
color = 10;
glyphname = H;
lastChange = "2020-12-10 01:20:48 +0000";
layers = (
{
anchors = (
{
name = bottom;
position = "{370, 0}";
},
{
name = center;
position = "{370, 365}";
},
{
name = top;
position = "{370, 730}";
},
{
name = topleft;
position = "{20, 730}";
}
);
layerId = "D65C9A1E-0FCA-4B2D-8EDF-9F36CA9182A1";
paths = (
{
closed = 1;
nodes = (
"645 0 LINE",
"645 730 LINE",
"625 730 LINE",
"625 0 LINE"
);
},
{
closed = 1;
nodes = (
"115 0 LINE",
"115 730 LINE",
"95 730 LINE",
"95 0 LINE"
);
},
{
closed = 1;
nodes = (
"635 380 LINE",
"635 400 LINE",
"105 400 LINE",
"105 380 LINE"
);
}
);
width = 740;
},
{
anchors = (
{
name = bottom;
position = "{375, 0}";
},
{
name = center;
position = "{375, 365}";
},
{
name = top;
position = "{375, 730}";
},
{
name = topleft;
position = "{20, 730}";
}
);
layerId = "9527F797-22C1-480E-A1FE-2CDBEBE1FD4C";
paths = (
{
closed = 1;
nodes = (
"670 0 LINE",
"670 730 LINE",
"560 730 LINE",
"560 0 LINE"
);
},
{
closed = 1;
nodes = (
"190 0 LINE",
"190 730 LINE",
"80 730 LINE",
"80 0 LINE"
);
},
{
closed = 1;
nodes = (
"615 332 LINE",
"615 432 LINE",
"135 432 LINE",
"135 332 LINE"
);
}
);
width = 750;
},
{
anchors = (
{
name = bottom;
position = "{380, 0}";
},
{
name = center;
position = "{380, 365}";
},
{
name = top;
position = "{380, 730}";
},
{
name = topleft;
position = "{20, 730}";
}
);
layerId = "9E6B41AB-2970-4C41-8B35-4DBE0D296A43";
paths = (
{
closed = 1;
nodes = (
"695 0 LINE",
"695 730 LINE",
"495 730 LINE",
"495 0 LINE"
);
},
{
closed = 1;
nodes = (
"265 0 LINE",
"265 730 LINE",
"65 730 LINE",
"65 0 LINE"
);
},
{
closed = 1;
nodes = (
"595 290 LINE",
"595 460 LINE",
"165 460 LINE",
"165 290 LINE"
);
}
);
width = 760;
}
);
leftKerningGroup = H;
rightKerningGroup = H;
rightMetricsKey = "=|";
unicode = 0048;
},
{
color = 11;
glyphname = Hbar;
lastChange = "2020-12-09 12:13:34 +0000";
layers = (
{
components = (
{
name = H;
transform = "{1, 0, 0, 1, 30, 0}";
}
);
layerId = "D65C9A1E-0FCA-4B2D-8EDF-9F36CA9182A1";
paths = (
{
closed = 1;
nodes = (
"730 586 LINE",
"730 606 LINE",
"30 606 LINE",
"30 586 LINE"
);
}
);
width = 760;
},
{
components = (
{
alignment = -1;
name = H;
transform = "{1, 0, 0, 1, 40, 0}";
}
);
layerId = "9527F797-22C1-480E-A1FE-2CDBEBE1FD4C";
paths = (
{
closed = 1;
nodes = (
"768 551 LINE",
"768 641 LINE",
"28 641 LINE",
"28 551 LINE"
);
}
);
width = 796;
},
{
components = (
{
name = H;
transform = "{1, 0, 0, 1, 53, 0}";
}
);
layerId = "9E6B41AB-2970-4C41-8B35-4DBE0D296A43";
paths = (
{
closed = 1;
nodes = (
"808 526 LINE",
"808 666 LINE",
"28 666 LINE",
"28 526 LINE"
);
}
);
width = 836;
}
);
leftKerningGroup = W;
leftMetricsKey = "=W";
rightKerningGroup = W;
rightMetricsKey = "=|";
unicode = 0126;
},
{
color = 10;
glyphname = I;
lastChange = "2020-12-10 01:27:32 +0000";
layers = (
{
anchors = (
{
name = bottom;
position = "{115, 0}";
},
{
name = ogonek;
position = "{125, 0}";
},
{
name = top;
position = "{115, 730}";
},
{
name = topleft;
position = "{20, 730}";
}
);
layerId = "D65C9A1E-0FCA-4B2D-8EDF-9F36CA9182A1";
paths = (
{
closed = 1;
nodes = (
"125 0 LINE",
"125 730 LINE",
"105 730 LINE",
"105 0 LINE"
);
}
);
width = 230;
},
{
anchors = (
{
name = bottom;
position = "{145, 0}";
},
{
name = ogonek;
position = "{202, 0}";
},
{
name = top;
position = "{145, 730}";
},
{
name = topleft;
position = "{20, 730}";
}
);
layerId = "9527F797-22C1-480E-A1FE-2CDBEBE1FD4C";
paths = (
{
closed = 1;
nodes = (
"202 0 LINE",
"202 730 LINE",
"88 730 LINE",
"88 0 LINE"
);
}
);
width = 290;
},
{
anchors = (
{
name = bottom;
position = "{176, 0}";
},
{
name = ogonek;
position = "{281, 0}";
},
{
name = top;
position = "{176, 730}";
},
{
name = topleft;
position = "{19, 730}";
}
);
layerId = "9E6B41AB-2970-4C41-8B35-4DBE0D296A43";
paths = (
{
closed = 1;
nodes = (
"281 0 LINE",
"281 730 LINE",
"71 730 LINE",
"71 0 LINE"
);
}
);
width = 352;
}
);
leftKerningGroup = I;
leftMetricsKey = "=H*1.1";
rightKerningGroup = I;
rightMetricsKey = "=|";
unicode = 0049;
},
{
color = 10;
glyphname = J;
lastChange = "2020-12-11 07:13:31 +0000";
layers = (
{
anchors = (
{
name = bottom;
position = "{300, 0}";
},
{
name = top;
position = "{300, 730}";
}
);
layerId = "D65C9A1E-0FCA-4B2D-8EDF-9F36CA9182A1";
leftMetricsKey = "=H*.15";
paths = (
{
closed = 1;
nodes = (
"426 -10 OFFCURVE",
"514 85 OFFCURVE",
"514 280 CURVE SMOOTH",
"514 730 LINE",
"494 730 LINE",
"494 280 LINE SMOOTH",
"494 96 OFFCURVE",
"415 10 OFFCURVE",
"246 10 CURVE SMOOTH",
"162 10 OFFCURVE",
"82 31 OFFCURVE",
"25 67 CURVE",
"14 50 LINE",
"74 12 OFFCURVE",
"159 -10 OFFCURVE",
"246 -10 CURVE SMOOTH"
);
}
);
width = 600;
},
{
anchors = (
{
name = bottom;
position = "{296, 0}";
},
{
name = top;
position = "{296, 730}";
}
);
layerId = "9527F797-22C1-480E-A1FE-2CDBEBE1FD4C";
leftMetricsKey = "=H*.1";
paths = (
{
closed = 1;
nodes = (
"436 -10 OFFCURVE",
"528 83 OFFCURVE",
"528 280 CURVE SMOOTH",
"528 730 LINE",
"415 730 LINE",
"415 280 LINE SMOOTH",
"415 152 OFFCURVE",
"356 90 OFFCURVE",
"236 90 CURVE SMOOTH",
"172 90 OFFCURVE",
"98 108 OFFCURVE",
"28 140 CURVE",
"8 40 LINE",
"76 7 OFFCURVE",
"158 -10 OFFCURVE",
"242 -10 CURVE SMOOTH"
);
}
);
width = 600;
},
{
anchors = (
{
name = bottom;
position = "{294, 0}";
},
{
name = top;
position = "{294, 730}";
}
);
layerId = "9E6B41AB-2970-4C41-8B35-4DBE0D296A43";
leftMetricsKey = "=H*.05";
paths = (
{
closed = 1;
nodes = (
"451 -10 OFFCURVE",
"543 78 OFFCURVE",
"543 280 CURVE SMOOTH",
"543 730 LINE",
"338 730 LINE",
"338 280 LINE SMOOTH",
"338 203 OFFCURVE",
"301 165 OFFCURVE",
"227 165 CURVE SMOOTH",
"184 165 OFFCURVE",
"111 178 OFFCURVE",
"33 199 CURVE",
"3 29 LINE",
"75 4 OFFCURVE",
"158 -10 OFFCURVE",
"240 -10 CURVE SMOOTH"
);
}
);
width = 602;
}
);
leftKerningGroup = J;
leftMetricsKey = "=H*.05";
rightKerningGroup = U;
rightMetricsKey = "=U";
unicode = 004A;
},
{
color = 10;
glyphname = K;
lastChange = "2020-12-10 02:01:24 +0000";
layers = (
{
anchors = (
{
name = bottom;
position = "{310, 0}";
},
{
name = top;
position = "{310, 730}";
}
);
layerId = "D65C9A1E-0FCA-4B2D-8EDF-9F36CA9182A1";
rightMetricsKey = "=H*.3";
paths = (
{
closed = 1;
nodes = (
"115 0 LINE",
"115 376 LINE",
"117 376 LINE",
"603 0 LINE",
"635 0 LINE",
"131 390 LINE",
"625 730 LINE",
"591 730 LINE",
"117 404 LINE",
"115 404 LINE",
"115 730 LINE",
"95 730 LINE",
"95 0 LINE"
);
}
);
width = 664;
},
{
anchors = (
{
name = bottom;
position = "{333, 0}";
},
{
name = top;
position = "{333, 730}";
}
);
layerId = "9527F797-22C1-480E-A1FE-2CDBEBE1FD4C";
rightMetricsKey = "=H*.25";
paths = (
{
closed = 1;
nodes = (
"190 0 LINE",
"190 351 LINE",
"192 351 LINE",
"540 0 LINE",
"680 0 LINE",
"301 382 LINE",
"670 730 LINE",
"530 730 LINE",
"192 413 LINE",
"190 413 LINE",
"190 730 LINE",
"80 730 LINE",
"80 0 LINE"
);
}
);
width = 700;
},
{
anchors = (
{
name = bottom;
position = "{355, 0}";
},
{
name = top;
position = "{355, 730}";
}
);
layerId = "9E6B41AB-2970-4C41-8B35-4DBE0D296A43";
rightMetricsKey = "=H*.2";
paths = (
{
closed = 1;
nodes = (
"265 0 LINE",
"265 335 LINE",
"267 335 LINE",
"495 0 LINE",
"725 0 LINE",
"470 375 LINE",
"715 730 LINE",
"485 730 LINE",
"267 415 LINE",
"265 415 LINE",
"265 730 LINE",
"65 730 LINE",
"65 0 LINE"
);
}
);
width = 738;
}
);
leftKerningGroup = H;
leftMetricsKey = "=H";
rightKerningGroup = K;
rightMetricsKey = "=H*.2";
unicode = 004B;
},
{
color = 10;
glyphname = L;
lastChange = "2020-12-10 02:08:44 +0000";
layers = (
{
anchors = (
{
name = bottom;
position = "{312, 0}";
},
{
name = center;
position = "{312, 375}";
},
{
name = pdcenter;
position = "{555, 375}";
},
{
name = top;
position = "{312, 730}";
},
{
name = topright;
position = "{583, 730}";
}
);
layerId = "D65C9A1E-0FCA-4B2D-8EDF-9F36CA9182A1";
rightMetricsKey = "=H*.5";
paths = (
{
closed = 1;
nodes = (
"575 0 LINE",
"575 20 LINE",
"115 20 LINE",
"115 730 LINE",
"95 730 LINE",
"95 0 LINE"
);
}
);
width = 623;
},
{
anchors = (
{
name = bottom;
position = "{313, 0}";
},
{
name = center;
position = "{313, 375}";
},
{
name = pdcenter;
position = "{590, 375}";
},
{
name = top;
position = "{313, 730}";
},
{
name = topright;
position = "{606, 730}";
}
);
layerId = "9527F797-22C1-480E-A1FE-2CDBEBE1FD4C";
rightMetricsKey = "=H*.45";
paths = (
{
closed = 1;
nodes = (
"590 0 LINE",
"590 100 LINE",
"193 100 LINE",
"193 730 LINE",
"80 730 LINE",
"80 0 LINE"
);
}
);
width = 626;
},
{
anchors = (
{
name = bottom;
position = "{316, 0}";
},
{
name = center;
position = "{316, 375}";
},
{
name = pdcenter;
position = "{605, 375}";
},
{
name = top;
position = "{316, 730}";
},
{
name = topright;
position = "{611, 730}";
}
);
layerId = "9E6B41AB-2970-4C41-8B35-4DBE0D296A43";
rightMetricsKey = "=H*.4";
paths = (
{
closed = 1;
nodes = (
"605 0 LINE",
"605 170 LINE",
"270 170 LINE",
"270 730 LINE",
"65 730 LINE",
"65 0 LINE"
);
}
);
width = 631;
}
);
leftKerningGroup = H;
leftMetricsKey = "=H";
rightKerningGroup = L;
rightMetricsKey = "=H*.4";
unicode = 004C;
},
{
color = 11;
glyphname = Lslash;
lastChange = "2020-12-09 11:54:00 +0000";
layers = (
{
components = (
{
name = L;
transform = "{1, 0, 0, 1, 82, 0}";
}
);
layerId = "D65C9A1E-0FCA-4B2D-8EDF-9F36CA9182A1";
paths = (
{
closed = 1;
nodes = (
"356 431 LINE",
"348 449 LINE",
"18 299 LINE",
"26 281 LINE"
);
}
);
width = 665;
},
{
components = (
{
name = L;
transform = "{1, 0, 0, 1, 89, 0}";
}
);
layerId = "9527F797-22C1-480E-A1FE-2CDBEBE1FD4C";
paths = (
{
closed = 1;
nodes = (
"445 407 LINE",
"409 491 LINE",
"9 323 LINE",
"45 239 LINE"
);
}
);
width = 675;
},
{
components = (
{
name = L;
transform = "{1, 0, 0, 1, 99, 0}";
}
);
layerId = "9E6B41AB-2970-4C41-8B35-4DBE0D296A43";
paths = (
{
closed = 1;
nodes = (
"531 393 LINE",
"476 523 LINE",
"7 337 LINE",
"62 207 LINE"
);
}
);
width = 690;
}
);
leftKerningGroup = t;
leftMetricsKey = "=t*.5";
rightKerningGroup = L;
rightMetricsKey = "=L";
unicode = 0141;
},
{
color = 10;
glyphname = M;
lastChange = "2020-12-09 11:53:59 +0000";
layers = (
{
layerId = "D65C9A1E-0FCA-4B2D-8EDF-9F36CA9182A1";
paths = (
{
closed = 1;
nodes = (
"115 0 LINE",
"115 709 LINE",
"117 709 LINE",
"413 155 LINE",
"437 155 LINE",
"733 709 LINE",
"735 709 LINE",
"735 0 LINE",
"755 0 LINE",
"755 730 LINE",
"724 730 LINE",
"426 174 LINE",
"424 174 LINE",
"126 730 LINE",
"95 730 LINE",
"95 0 LINE"
);
}
);
width = 850;
},
{
layerId = "9527F797-22C1-480E-A1FE-2CDBEBE1FD4C";
paths = (
{
closed = 1;
nodes = (
"190 0 LINE",
"190 555 LINE",
"192 555 LINE",
"383 155 LINE",
"487 155 LINE",
"678 555 LINE",
"680 555 LINE",
"680 0 LINE",
"790 0 LINE",
"790 730 LINE",
"650 730 LINE",
"436 283 LINE",
"434 283 LINE",
"220 730 LINE",
"80 730 LINE",
"80 0 LINE"
);
}
);
width = 870;
},
{
layerId = "9E6B41AB-2970-4C41-8B35-4DBE0D296A43";
paths = (
{
closed = 1;
nodes = (
"265 0 LINE",
"265 420 LINE",
"267 420 LINE",
"355 155 LINE",
"535 155 LINE",
"623 420 LINE",
"625 420 LINE",
"625 0 LINE",
"825 0 LINE",
"825 730 LINE",
"577 730 LINE",
"446 340 LINE",
"444 340 LINE",
"313 730 LINE",
"65 730 LINE",
"65 0 LINE"
);
}
);
width = 890;
}
);
leftKerningGroup = H;
leftMetricsKey = "=H";
rightKerningGroup = H;
rightMetricsKey = "=|";
unicode = 004D;
},
{
color = 10;
glyphname = N;
lastChange = "2020-12-10 02:21:36 +0000";
layers = (
{
anchors = (
{
name = bottom;
position = "{365, 0}";
},
{
name = top;
position = "{365, 730}";
}
);
layerId = "D65C9A1E-0FCA-4B2D-8EDF-9F36CA9182A1";
paths = (
{
closed = 1;
nodes = (
"115 0 LINE",
"115 709 LINE",
"117 709 LINE",
"604 0 LINE",
"635 0 LINE",
"635 730 LINE",
"615 730 LINE",
"615 21 LINE",
"613 21 LINE",
"126 730 LINE",
"95 730 LINE",
"95 0 LINE"
);
}
);
width = 730;
},
{
anchors = (
{
name = bottom;
position = "{370, 0}";
},
{
name = top;
position = "{370, 730}";
}
);
layerId = "9527F797-22C1-480E-A1FE-2CDBEBE1FD4C";
paths = (
{
closed = 1;
nodes = (
"190 0 LINE",
"190 550 LINE",
"192 550 LINE",
"540 0 LINE",
"660 0 LINE",
"660 730 LINE",
"550 730 LINE",
"550 180 LINE",
"548 180 LINE",
"200 730 LINE",
"80 730 LINE",
"80 0 LINE"
);
}
);
width = 740;
},
{
anchors = (
{
name = bottom;
position = "{375, 0}";
},
{
name = top;
position = "{375, 730}";
}
);
layerId = "9E6B41AB-2970-4C41-8B35-4DBE0D296A43";
paths = (
{
closed = 1;
nodes = (
"265 0 LINE",
"265 390 LINE",
"267 390 LINE",
"485 0 LINE",
"685 0 LINE",
"685 730 LINE",
"485 730 LINE",
"485 340 LINE",
"483 340 LINE",
"265 730 LINE",
"65 730 LINE",
"65 0 LINE"
);
}
);
width = 750;
}
);
leftKerningGroup = H;
leftMetricsKey = "=H";
rightKerningGroup = H;
rightMetricsKey = "=|";
unicode = 004E;
},
{
color = 11;
glyphname = Eng;
lastChange = "2020-12-09 11:53:59 +0000";
layers = (
{
anchors = (
{
name = bottom;
position = "{355, 0}";
},
{
name = top;
position = "{355, 730}";
}
);
background = {
components = (
{
name = N;
}
);
};
layerId = "D65C9A1E-0FCA-4B2D-8EDF-9F36CA9182A1";
paths = (
{
closed = 1;
nodes = (
"572 -211 OFFCURVE",
"615 -164 OFFCURVE",
"615 -61 CURVE SMOOTH",
"615 730 LINE",
"595 730 LINE",
"595 21 LINE",
"593 21 LINE",
"127 730 LINE",
"95 730 LINE",
"95 0 LINE",
"115 0 LINE",
"115 709 LINE",
"117 709 LINE",
"595 -18 LINE",
"595 -61 LINE SMOOTH",
"595 -153 OFFCURVE",
"560 -191 OFFCURVE",
"475 -191 CURVE SMOOTH",
"450 -191 OFFCURVE",
"424 -186 OFFCURVE",
"402 -177 CURVE",
"395 -196 LINE",
"419 -205 OFFCURVE",
"448 -211 OFFCURVE",
"475 -211 CURVE SMOOTH"
);
}
);
width = 710;
},
{
anchors = (
{
name = bottom;
position = "{363, 0}";
},
{
name = top;
position = "{363, 730}";
}
);
background = {
components = (
{
name = N;
}
);
};
layerId = "9527F797-22C1-480E-A1FE-2CDBEBE1FD4C";
paths = (
{
closed = 1;
nodes = (
"593 -221 OFFCURVE",
"645 -163 OFFCURVE",
"645 -26 CURVE SMOOTH",
"645 730 LINE",
"535 730 LINE",
"535 180 LINE",
"533 180 LINE",
"201 730 LINE",
"80 730 LINE",
"80 0 LINE",
"190 0 LINE",
"190 550 LINE",
"192 550 LINE",
"537 -21 LINE",
"537 -26 LINE SMOOTH",
"537 -97 OFFCURVE",
"511 -126 OFFCURVE",
"447 -126 CURVE SMOOTH",
"422 -126 OFFCURVE",
"396 -122 OFFCURVE",
"372 -114 CURVE",
"355 -205 LINE",
"393 -216 OFFCURVE",
"431 -221 OFFCURVE",
"469 -221 CURVE SMOOTH"
);
}
);
width = 725;
},
{
anchors = (
{
name = bottom;
position = "{370, 0}";
},
{
name = top;
position = "{370, 730}";
}
);
background = {
components = (
{
name = N;
}
);
};
layerId = "9E6B41AB-2970-4C41-8B35-4DBE0D296A43";
paths = (
{
closed = 1;
nodes = (
"620 -229 OFFCURVE",
"675 -169 OFFCURVE",
"675 0 CURVE SMOOTH",
"675 730 LINE",
"475 730 LINE",
"475 330 LINE",
"473 330 LINE",
"265 730 LINE",
"65 730 LINE",
"65 0 LINE",
"265 0 LINE",
"265 400 LINE",
"267 400 LINE",
"475 0 LINE",
"475 0 LINE",
"475 -55 OFFCURVE",
"463 -70 OFFCURVE",
"420 -70 CURVE SMOOTH",
"399 -70 OFFCURVE",
"365 -66 OFFCURVE",
"337 -59 CURVE",
"317 -214 LINE",
"365 -223 OFFCURVE",
"415 -229 OFFCURVE",
"463 -229 CURVE SMOOTH"
);
}
);
width = 740;
}
);
leftKerningGroup = H;
leftMetricsKey = "=N";
rightKerningGroup = H;
rightMetricsKey = "=N";
unicode = 014A;
},
{
color = 10;
glyphname = O;
lastChange = "2020-12-10 02:53:22 +0000";
layers = (
{
anchors = (
{
name = bottom;
position = "{417, 0}";
},
{
name = center;
position = "{417, 365}";
},
{
name = ogonek;
position = "{466, 0}";
},
{
name = top;
position = "{417, 730}";
},
{
name = topleft;
position = "{40, 730}";
},
{
name = topright;
position = "{604, 690}";
}
);
layerId = "D65C9A1E-0FCA-4B2D-8EDF-9F36CA9182A1";
paths = (
{
closed = 1;
nodes = (
"638 -10 OFFCURVE",
"787 142 OFFCURVE",
"787 365 CURVE SMOOTH",
"787 588 OFFCURVE",
"638 740 OFFCURVE",
"417 740 CURVE SMOOTH",
"198 740 OFFCURVE",
"48 588 OFFCURVE",
"48 365 CURVE SMOOTH",
"48 142 OFFCURVE",
"198 -10 OFFCURVE",
"417 -10 CURVE SMOOTH"
);
},
{
closed = 1;
nodes = (
"208 10 OFFCURVE",
"68 153 OFFCURVE",
"68 365 CURVE SMOOTH",
"68 577 OFFCURVE",
"208 720 OFFCURVE",
"418 720 CURVE SMOOTH",
"627 720 OFFCURVE",
"768 577 OFFCURVE",
"768 365 CURVE SMOOTH",
"768 153 OFFCURVE",
"627 10 OFFCURVE",
"418 10 CURVE SMOOTH"
);
}
);
width = 835;
},
{
anchors = (
{
name = bottom;
position = "{415, 0}";
},
{
name = center;
position = "{415, 365}";
},
{
name = ogonek;
position = "{481, 0}";
},
{
name = top;
position = "{415, 730}";
},
{
name = topleft;
position = "{33, 730}";
},
{
name = topright;
position = "{607, 690}";
}
);
layerId = "9527F797-22C1-480E-A1FE-2CDBEBE1FD4C";
paths = (
{
closed = 1;
nodes = (
"644 -10 OFFCURVE",
"790 136 OFFCURVE",
"790 365 CURVE SMOOTH",
"790 594 OFFCURVE",
"644 740 OFFCURVE",
"415 740 CURVE SMOOTH",
"186 740 OFFCURVE",
"40 594 OFFCURVE",
"40 365 CURVE SMOOTH",
"40 136 OFFCURVE",
"186 -10 OFFCURVE",
"415 -10 CURVE SMOOTH"
);
},
{
closed = 1;
nodes = (
"252 90 OFFCURVE",
"153 195 OFFCURVE",
"153 365 CURVE SMOOTH",
"153 535 OFFCURVE",
"252 640 OFFCURVE",
"415 640 CURVE SMOOTH",
"577 640 OFFCURVE",
"677 535 OFFCURVE",
"677 365 CURVE SMOOTH",
"677 195 OFFCURVE",
"577 90 OFFCURVE",
"415 90 CURVE SMOOTH"
);
}
);
width = 830;
},
{
anchors = (
{
name = bottom;
position = "{413, 0}";
},
{
name = center;
position = "{413, 365}";
},
{
name = ogonek;
position = "{496, 0}";
},
{
name = top;
position = "{413, 730}";
},
{
name = topleft;
position = "{26, 730}";
},
{
name = topright;
position = "{610, 690}";
}
);
layerId = "9E6B41AB-2970-4C41-8B35-4DBE0D296A43";
paths = (
{
closed = 1;
nodes = (
"652 -10 OFFCURVE",
"793 129 OFFCURVE",
"793 365 CURVE SMOOTH",
"793 601 OFFCURVE",
"652 740 OFFCURVE",
"413 740 CURVE SMOOTH",
"174 740 OFFCURVE",
"33 601 OFFCURVE",
"33 365 CURVE SMOOTH",
"33 129 OFFCURVE",
"174 -10 OFFCURVE",
"413 -10 CURVE SMOOTH"
);
},
{
closed = 1;
nodes = (
"297 160 OFFCURVE",
"238 229 OFFCURVE",
"238 365 CURVE SMOOTH",
"238 501 OFFCURVE",
"297 570 OFFCURVE",
"413 570 CURVE SMOOTH",
"529 570 OFFCURVE",
"588 501 OFFCURVE",
"588 365 CURVE SMOOTH",
"588 229 OFFCURVE",
"529 160 OFFCURVE",
"413 160 CURVE SMOOTH"
);
}
);
width = 826;
}
);
leftKerningGroup = O;
leftMetricsKey = "=H*.5";
rightKerningGroup = O;
rightMetricsKey = "=|";
unicode = 004F;
},
{
color = 11;
glyphname = Oslash;
lastChange = "2020-12-09 07:59:53 +0000";
layers = (
{
anchors = (
{
name = bottom;
position = "{397, 0}";
},
{
name = top;
position = "{397, 730}";
}
);
components = (
{
name = O;
}
);
layerId = "D65C9A1E-0FCA-4B2D-8EDF-9F36CA9182A1";
paths = (
{
closed = 1;
nodes = (
"184 63 LINE",
"184 63 LINE",
"626 655 LINE",
"626 655 LINE",
"685 734 LINE",
"669 746 LINE",
"610 667 LINE",
"610 667 LINE",
"168 75 LINE",
"168 75 LINE",
"109 -4 LINE",
"125 -16 LINE"
);
}
);
width = 794;
},
{
anchors = (
{
name = bottom;
position = "{402, 0}";
},
{
name = top;
position = "{402, 730}";
}
);
background = {
paths = (
{
closed = 1;
nodes = (
"719 713 LINE",
"647 767 LINE",
"87 17 LINE",
"159 -37 LINE"
);
}
);
};
components = (
{
alignment = -1;
name = O;
}
);
layerId = "9527F797-22C1-480E-A1FE-2CDBEBE1FD4C";
paths = (
{
closed = 1;
nodes = (
"217 41 LINE",
"217 41 LINE",
"656 629 LINE",
"656 629 LINE",
"718 713 LINE",
"645 768 LINE",
"587 689 LINE",
"587 689 LINE",
"148 101 LINE",
"148 101 LINE",
"85 18 LINE",
"158 -38 LINE"
);
}
);
width = 804;
},
{
anchors = (
{
name = bottom;
position = "{407, 0}";
},
{
name = top;
position = "{407, 730}";
}
);
components = (
{
name = O;
}
);
layerId = "9E6B41AB-2970-4C41-8B35-4DBE0D296A43";
paths = (
{
closed = 1;
nodes = (
"249 28 LINE",
"237 37 LINE",
"673 621 LINE",
"685 612 LINE",
"747 695 LINE",
"627 785 LINE",
"565 702 LINE",
"577 693 LINE",
"141 109 LINE",
"129 118 LINE",
"67 35 LINE",
"187 -55 LINE"
);
}
);
width = 814;
}
);
leftKerningGroup = O;
rightKerningGroup = O;
unicode = 00D8;
},
{
color = 11;
glyphname = OE;
lastChange = "2020-12-09 11:53:59 +0000";
layers = (
{
components = (
{
name = E;
transform = "{1, 0, 0, 1, 392, 0}";
}
);
layerId = "D65C9A1E-0FCA-4B2D-8EDF-9F36CA9182A1";
paths = (
{
closed = 1;
nodes = (
"435 -10 OFFCURVE",
"470 -5 OFFCURVE",
"503 4 CURVE",
"496 23 LINE",
"466 14 OFFCURVE",
"433 10 OFFCURVE",
"398 10 CURVE SMOOTH",
"201 10 OFFCURVE",
"68 152 OFFCURVE",
"68 365 CURVE SMOOTH",
"68 578 OFFCURVE",
"201 720 OFFCURVE",
"398 720 CURVE SMOOTH",
"433 720 OFFCURVE",
"466 716 OFFCURVE",
"496 707 CURVE",
"503 726 LINE",
"470 735 OFFCURVE",
"435 740 OFFCURVE",
"398 740 CURVE SMOOTH",
"189 740 OFFCURVE",
"48 588 OFFCURVE",
"48 365 CURVE SMOOTH",
"48 142 OFFCURVE",
"189 -10 OFFCURVE",
"398 -10 CURVE SMOOTH"
);
}
);
width = 978;
},
{
components = (
{
name = E;
transform = "{1, 0, 0, 1, 419, 0}";
}
);
layerId = "9527F797-22C1-480E-A1FE-2CDBEBE1FD4C";
paths = (
{
closed = 1;
nodes = (
"473 -10 OFFCURVE",
"534 4 OFFCURVE",
"586 31 CURVE",
"534 121 LINE",
"497 101 OFFCURVE",
"453 90 OFFCURVE",
"403 90 CURVE SMOOTH",
"247 90 OFFCURVE",
"153 193 OFFCURVE",
"153 365 CURVE SMOOTH",
"153 537 OFFCURVE",
"247 640 OFFCURVE",
"403 640 CURVE SMOOTH",
"453 640 OFFCURVE",
"497 629 OFFCURVE",
"534 609 CURVE",
"586 699 LINE",
"534 726 OFFCURVE",
"473 740 OFFCURVE",
"403 740 CURVE SMOOTH",
"180 740 OFFCURVE",
"40 595 OFFCURVE",
"40 365 CURVE SMOOTH",
"40 135 OFFCURVE",
"180 -10 OFFCURVE",
"403 -10 CURVE SMOOTH"
);
}
);
width = 1018;
},
{
components = (
{
name = E;
transform = "{1, 0, 0, 1, 446, 0}";
}
);
layerId = "9E6B41AB-2970-4C41-8B35-4DBE0D296A43";
paths = (
{
closed = 1;
nodes = (
"530 -10 OFFCURVE",
"627 27 OFFCURVE",
"691 96 CURVE",
"551 235 LINE",
"524 185 OFFCURVE",
"476 160 OFFCURVE",
"408 160 CURVE SMOOTH",
"295 160 OFFCURVE",
"238 229 OFFCURVE",
"238 365 CURVE SMOOTH",
"238 501 OFFCURVE",
"295 570 OFFCURVE",
"408 570 CURVE SMOOTH",
"476 570 OFFCURVE",
"524 545 OFFCURVE",
"551 495 CURVE",
"691 634 LINE",
"627 703 OFFCURVE",
"530 740 OFFCURVE",
"408 740 CURVE SMOOTH",
"172 740 OFFCURVE",
"33 601 OFFCURVE",
"33 365 CURVE SMOOTH",
"33 129 OFFCURVE",
"172 -10 OFFCURVE",
"408 -10 CURVE SMOOTH"
);
}
);
width = 1056;
}
);
leftKerningGroup = O;
leftMetricsKey = "=O";
rightKerningGroup = E;
rightMetricsKey = "=E";
unicode = 0152;
},
{
color = 10;
glyphname = P;
lastChange = "2020-12-10 02:40:44 +0000";
layers = (
{
layerId = "D65C9A1E-0FCA-4B2D-8EDF-9F36CA9182A1";
rightMetricsKey = "=H*.3";
paths = (
{
closed = 1;
nodes = (
"115 0 LINE",
"115 710 LINE",
"272 710 LINE SMOOTH",
"500 710 OFFCURVE",
"595 650 OFFCURVE",
"595 510 CURVE SMOOTH",
"595 370 OFFCURVE",
"500 310 OFFCURVE",
"272 310 CURVE SMOOTH",
"105 310 LINE",
"105 290 LINE",
"272 290 LINE SMOOTH",
"511 290 OFFCURVE",
"615 357 OFFCURVE",
"615 510 CURVE SMOOTH",
"615 663 OFFCURVE",
"511 730 OFFCURVE",
"272 730 CURVE SMOOTH",
"95 730 LINE",
"95 0 LINE"
);
}
);
width = 644;
},
{
layerId = "9527F797-22C1-480E-A1FE-2CDBEBE1FD4C";
rightMetricsKey = "=H*.35";
paths = (
{
closed = 1;
nodes = (
"190 0 LINE",
"190 630 LINE",
"292 630 LINE SMOOTH",
"457 630 OFFCURVE",
"528 587 OFFCURVE",
"528 487 CURVE SMOOTH",
"528 387 OFFCURVE",
"457 344 OFFCURVE",
"292 344 CURVE SMOOTH",
"135 344 LINE",
"135 244 LINE",
"305 244 LINE SMOOTH",
"531 244 OFFCURVE",
"640 323 OFFCURVE",
"640 487 CURVE SMOOTH",
"640 653 OFFCURVE",
"528 730 OFFCURVE",
"290 730 CURVE SMOOTH",
"80 730 LINE",
"80 0 LINE"
);
}
);
width = 668;
},
{
layerId = "9E6B41AB-2970-4C41-8B35-4DBE0D296A43";
rightMetricsKey = "=H*.4";
paths = (
{
closed = 1;
nodes = (
"265 0 LINE",
"265 570 LINE",
"312 570 LINE SMOOTH",
"414 570 OFFCURVE",
"460 537 OFFCURVE",
"460 465 CURVE SMOOTH",
"460 393 OFFCURVE",
"414 360 OFFCURVE",
"312 360 CURVE SMOOTH",
"165 360 LINE",
"165 200 LINE",
"338 200 LINE SMOOTH",
"550 200 OFFCURVE",
"665 293 OFFCURVE",
"665 465 CURVE SMOOTH",
"665 641 OFFCURVE",
"545 730 OFFCURVE",
"307 730 CURVE SMOOTH",
"65 730 LINE",
"65 0 LINE"
);
}
);
width = 691;
}
);
leftKerningGroup = H;
leftMetricsKey = "=H";
rightKerningGroup = P;
rightMetricsKey = "=H*.4";
unicode = 0050;
},
{
color = 11;
glyphname = Thorn;
lastChange = "2020-12-09 11:53:59 +0000";
layers = (
{
background = {
components = (
{
name = P;
transform = "{1, 0, 0, 1, 0, -145}";
}
);
};
layerId = "D65C9A1E-0FCA-4B2D-8EDF-9F36CA9182A1";
paths = (
{
closed = 1;
nodes = (
"245 165 LINE SMOOTH",
"447 165 OFFCURVE",
"535 229 OFFCURVE",
"535 375 CURVE SMOOTH",
"535 521 OFFCURVE",
"447 585 OFFCURVE",
"245 585 CURVE SMOOTH",
"105 585 LINE",
"105 565 LINE",
"245 565 LINE SMOOTH",
"436 565 OFFCURVE",
"515 509 OFFCURVE",
"515 375 CURVE SMOOTH",
"515 241 OFFCURVE",
"436 185 OFFCURVE",
"245 185 CURVE SMOOTH",
"105 185 LINE",
"105 165 LINE"
);
},
{
closed = 1;
nodes = (
"115 0 LINE",
"115 730 LINE",
"95 730 LINE",
"95 0 LINE"
);
}
);
width = 564;
},
{
background = {
components = (
{
name = P;
transform = "{1, 0, 0, 1, 0, -122}";
}
);
};
layerId = "9527F797-22C1-480E-A1FE-2CDBEBE1FD4C";
paths = (
{
closed = 1;
nodes = (
"290 142 LINE SMOOTH",
"488 142 OFFCURVE",
"585 218 OFFCURVE",
"585 375 CURVE SMOOTH",
"585 534 OFFCURVE",
"485 608 OFFCURVE",
"270 608 CURVE SMOOTH",
"135 608 LINE",
"135 508 LINE",
"275 508 LINE SMOOTH",
"413 508 OFFCURVE",
"473 467 OFFCURVE",
"473 374 CURVE SMOOTH",
"473 281 OFFCURVE",
"413 240 OFFCURVE",
"275 240 CURVE SMOOTH",
"135 240 LINE",
"135 142 LINE"
);
},
{
closed = 1;
nodes = (
"190 0 LINE",
"190 730 LINE",
"80 730 LINE",
"80 0 LINE"
);
}
);
width = 613;
},
{
background = {
components = (
{
name = P;
transform = "{1, 0, 0, 1, 0, -100}";
}
);
};
layerId = "9E6B41AB-2970-4C41-8B35-4DBE0D296A43";
paths = (
{
closed = 1;
nodes = (
"335 120 LINE SMOOTH",
"530 120 OFFCURVE",
"635 209 OFFCURVE",
"635 375 CURVE SMOOTH",
"635 547 OFFCURVE",
"524 630 OFFCURVE",
"295 630 CURVE SMOOTH",
"165 630 LINE",
"165 470 LINE",
"305 470 LINE SMOOTH",
"391 470 OFFCURVE",
"430 440 OFFCURVE",
"430 375 CURVE SMOOTH",
"430 310 OFFCURVE",
"391 280 OFFCURVE",
"305 280 CURVE SMOOTH",
"165 280 LINE",
"165 120 LINE"
);
},
{
closed = 1;
nodes = (
"265 0 LINE",
"265 730 LINE",
"65 730 LINE",
"65 0 LINE"
);
}
);
width = 661;
}
);
leftKerningGroup = H;
leftMetricsKey = "=P";
rightKerningGroup = O;
rightMetricsKey = "=P";
unicode = 00DE;
},
{
color = 10;
glyphname = Q;
lastChange = "2020-12-10 02:57:10 +0000";
layers = (
{
background = {
paths = (
{
closed = 1;
nodes = (
"793 -71 LINE",
"745 -19 OFFCURVE",
"679 17 OFFCURVE",
"598 36 CURVE",
"598 38 LINE",
"718 90 OFFCURVE",
"790 209 OFFCURVE",
"790 365 CURVE SMOOTH",
"790 595 OFFCURVE",
"645 740 OFFCURVE",
"415 740 CURVE SMOOTH",
"186 740 OFFCURVE",
"41 595 OFFCURVE",
"41 365 CURVE SMOOTH",
"41 136 OFFCURVE",
"186 -10 OFFCURVE",
"415 -10 CURVE SMOOTH",
"550 -10 OFFCURVE",
"635 -44 OFFCURVE",
"705 -133 CURVE"
);
},
{
closed = 1;
nodes = (
"253 85 OFFCURVE",
"153 191 OFFCURVE",
"153 365 CURVE SMOOTH",
"153 539 OFFCURVE",
"253 645 OFFCURVE",
"416 645 CURVE SMOOTH",
"578 645 OFFCURVE",
"678 539 OFFCURVE",
"678 365 CURVE SMOOTH",
"678 191 OFFCURVE",
"578 85 OFFCURVE",
"416 85 CURVE SMOOTH"
);
}
);
};
layerId = "9527F797-22C1-480E-A1FE-2CDBEBE1FD4C";
rightMetricsKey = "=O-11";
paths = (
{
closed = 1;
nodes = (
"792 -71 LINE",
"748 -24 OFFCURVE",
"689 13 OFFCURVE",
"618 37 CURVE",
"618 39 LINE",
"729 100 OFFCURVE",
"790 216 OFFCURVE",
"790 365 CURVE SMOOTH",
"790 594 OFFCURVE",
"644 740 OFFCURVE",
"415 740 CURVE SMOOTH",
"186 740 OFFCURVE",
"40 594 OFFCURVE",
"40 365 CURVE SMOOTH",
"40 136 OFFCURVE",
"186 -10 OFFCURVE",
"415 -10 CURVE SMOOTH",
"539 -10 OFFCURVE",
"643 -54 OFFCURVE",
"705 -133 CURVE"
);
},
{
closed = 1;
nodes = (
"252 90 OFFCURVE",
"153 195 OFFCURVE",
"153 365 CURVE SMOOTH",
"153 535 OFFCURVE",
"252 640 OFFCURVE",
"415 640 CURVE SMOOTH",
"577 640 OFFCURVE",
"677 535 OFFCURVE",
"677 365 CURVE SMOOTH",
"677 195 OFFCURVE",
"577 90 OFFCURVE",
"415 90 CURVE SMOOTH"
);
}
);
width = 821;
},
{
layerId = "D65C9A1E-0FCA-4B2D-8EDF-9F36CA9182A1";
rightMetricsKey = "=O";
paths = (
{
closed = 1;
nodes = (
"783 -102 LINE",
"723 -46 OFFCURVE",
"635 -11 OFFCURVE",
"523 2 CURVE",
"523 4 LINE",
"684 44 OFFCURVE",
"787 180 OFFCURVE",
"787 365 CURVE SMOOTH",
"787 588 OFFCURVE",
"638 740 OFFCURVE",
"417 740 CURVE SMOOTH",
"198 740 OFFCURVE",
"48 588 OFFCURVE",
"48 365 CURVE SMOOTH",
"48 142 OFFCURVE",
"198 -10 OFFCURVE",
"417 -10 CURVE SMOOTH",
"575 -10 OFFCURVE",
"694 -46 OFFCURVE",
"767 -116 CURVE"
);
},
{
closed = 1;
nodes = (
"208 10 OFFCURVE",
"68 153 OFFCURVE",
"68 365 CURVE SMOOTH",
"68 577 OFFCURVE",
"208 720 OFFCURVE",
"418 720 CURVE SMOOTH",
"627 720 OFFCURVE",
"768 577 OFFCURVE",
"768 365 CURVE SMOOTH",
"768 153 OFFCURVE",
"627 10 OFFCURVE",
"418 10 CURVE SMOOTH"
);
}
);
width = 835;
},
{
layerId = "9E6B41AB-2970-4C41-8B35-4DBE0D296A43";
rightMetricsKey = "=O-12";
paths = (
{
closed = 1;
nodes = (
"803 -40 LINE",
"766 8 OFFCURVE",
"723 44 OFFCURVE",
"672 69 CURVE",
"672 71 LINE",
"751 135 OFFCURVE",
"793 237 OFFCURVE",
"793 365 CURVE SMOOTH",
"793 601 OFFCURVE",
"652 740 OFFCURVE",
"413 740 CURVE SMOOTH",
"174 740 OFFCURVE",
"33 601 OFFCURVE",
"33 365 CURVE SMOOTH",
"33 129 OFFCURVE",
"174 -10 OFFCURVE",
"413 -10 CURVE SMOOTH",
"524 -10 OFFCURVE",
"575 -41 OFFCURVE",
"643 -150 CURVE"
);
},
{
closed = 1;
nodes = (
"297 160 OFFCURVE",
"238 229 OFFCURVE",
"238 365 CURVE SMOOTH",
"238 501 OFFCURVE",
"297 570 OFFCURVE",
"413 570 CURVE SMOOTH",
"529 570 OFFCURVE",
"588 501 OFFCURVE",
"588 365 CURVE SMOOTH",
"588 229 OFFCURVE",
"529 160 OFFCURVE",
"413 160 CURVE SMOOTH"
);
}
);
width = 824;
}
);
leftKerningGroup = O;
leftMetricsKey = "=O";
rightKerningGroup = O;
rightMetricsKey = "=O-12";
unicode = 0051;
},
{
color = 10;
glyphname = R;
lastChange = "2020-12-11 07:56:58 +0000";
layers = (
{
anchors = (
{
name = bottom;
position = "{330, 0}";
},
{
name = top;
position = "{330, 730}";
}
);
layerId = "D65C9A1E-0FCA-4B2D-8EDF-9F36CA9182A1";
paths = (
{
closed = 1;
nodes = (
"115 0 LINE",
"115 710 LINE",
"298 710 LINE SMOOTH",
"510 710 OFFCURVE",
"595 657 OFFCURVE",
"595 530 CURVE SMOOTH",
"595 403 OFFCURVE",
"510 350 OFFCURVE",
"298 350 CURVE SMOOTH",
"105 350 LINE",
"105 330 LINE",
"298 330 LINE SMOOTH",
"520 330 OFFCURVE",
"615 390 OFFCURVE",
"615 530 CURVE SMOOTH",
"615 670 OFFCURVE",
"520 730 OFFCURVE",
"298 730 CURVE SMOOTH",
"95 730 LINE",
"95 0 LINE"
);
},
{
closed = 1;
nodes = (
"635 0 LINE",
"138 340 LINE",
"102 340 LINE",
"599 0 LINE"
);
}
);
width = 673;
},
{
anchors = (
{
name = bottom;
position = "{340, 0}";
},
{
name = top;
position = "{340, 730}";
}
);
layerId = "9E6B41AB-2970-4C41-8B35-4DBE0D296A43";
paths = (
{
closed = 1;
nodes = (
"265 0 LINE",
"265 570 LINE",
"324 570 LINE SMOOTH",
"418 570 OFFCURVE",
"460 544 OFFCURVE",
"460 485 CURVE SMOOTH",
"460 426 OFFCURVE",
"418 400 OFFCURVE",
"324 400 CURVE SMOOTH",
"165 400 LINE",
"165 254 LINE",
"355 254 LINE SMOOTH",
"556 254 OFFCURVE",
"665 339 OFFCURVE",
"665 495 CURVE SMOOTH",
"665 654 OFFCURVE",
"551 730 OFFCURVE",
"314 730 CURVE SMOOTH",
"65 730 LINE",
"65 0 LINE"
);
},
{
closed = 1;
nodes = (
"685 0 LINE",
"428 327 LINE",
"210 327 LINE",
"465 0 LINE"
);
}
);
width = 711;
},
{
anchors = (
{
name = bottom;
position = "{335, 0}";
},
{
name = top;
position = "{335, 730}";
}
);
layerId = "9527F797-22C1-480E-A1FE-2CDBEBE1FD4C";
paths = (
{
closed = 1;
nodes = (
"190 0 LINE",
"190 630 LINE",
"311 630 LINE SMOOTH",
"463 630 OFFCURVE",
"528 594 OFFCURVE",
"528 509 CURVE SMOOTH",
"528 424 OFFCURVE",
"463 388 OFFCURVE",
"311 388 CURVE SMOOTH",
"135 388 LINE",
"135 292 LINE",
"327 292 LINE SMOOTH",
"537 292 OFFCURVE",
"640 365 OFFCURVE",
"640 513 CURVE SMOOTH",
"640 662 OFFCURVE",
"536 730 OFFCURVE",
"306 730 CURVE SMOOTH",
"80 730 LINE",
"80 0 LINE"
);
},
{
closed = 1;
nodes = (
"660 0 LINE",
"290 340 LINE",
"140 340 LINE",
"508 0 LINE"
);
}
);
width = 692;
}
);
leftKerningGroup = H;
leftMetricsKey = "=H";
rightKerningGroup = R;
rightMetricsKey = "=H*.4";
unicode = 0052;
},
{
color = 10;
glyphname = S;
lastChange = "2020-12-10 08:42:20 +0000";
layers = (
{
anchors = (
{
name = bottom;
position = "{323, 0}";
},
{
name = cedi;
position = "{265, 0}";
},
{
name = top;
position = "{323, 730}";
}
);
background = {
paths = (
{
closed = 0;
nodes = (
"71 57 LINE",
"142 20 OFFCURVE",
"232 0 OFFCURVE",
"320 0 CURVE SMOOTH",
"480 0 OFFCURVE",
"576 68 OFFCURVE",
"576 183 CURVE SMOOTH",
"576 445 OFFCURVE",
"77 313 OFFCURVE",
"77 561 CURVE SMOOTH",
"77 667 OFFCURVE",
"168 730 OFFCURVE",
"320 730 CURVE SMOOTH",
"407 730 OFFCURVE",
"508 709 OFFCURVE",
"562 681 CURVE"
);
}
);
};
layerId = "D65C9A1E-0FCA-4B2D-8EDF-9F36CA9182A1";
leftMetricsKey = "=H*.7";
paths = (
{
closed = 1;
nodes = (
"486 -10 OFFCURVE",
"586 62 OFFCURVE",
"586 183 CURVE SMOOTH",
"586 324 OFFCURVE",
"450 357 OFFCURVE",
"324 388 CURVE SMOOTH",
"201 419 OFFCURVE",
"87 447 OFFCURVE",
"87 561 CURVE SMOOTH",
"87 661 OFFCURVE",
"173 720 OFFCURVE",
"320 720 CURVE SMOOTH",
"404 720 OFFCURVE",
"504 700 OFFCURVE",
"557 672 CURVE",
"567 690 LINE",
"510 719 OFFCURVE",
"407 740 OFFCURVE",
"320 740 CURVE SMOOTH",
"162 740 OFFCURVE",
"67 673 OFFCURVE",
"67 561 CURVE SMOOTH",
"67 431 OFFCURVE",
"196 399 OFFCURVE",
"319 369 CURVE SMOOTH",
"445 338 OFFCURVE",
"566 308 OFFCURVE",
"566 183 CURVE SMOOTH",
"566 74 OFFCURVE",
"475 10 OFFCURVE",
"320 10 CURVE SMOOTH",
"232 10 OFFCURVE",
"144 30 OFFCURVE",
"76 66 CURVE",
"66 48 LINE",
"138 11 OFFCURVE",
"229 -10 OFFCURVE",
"320 -10 CURVE SMOOTH"
);
}
);
width = 652;
},
{
anchors = (
{
name = bottom;
position = "{329, 0}";
},
{
name = cedi;
position = "{257, 0}";
},
{
name = top;
position = "{329, 730}";
}
);
layerId = "9527F797-22C1-480E-A1FE-2CDBEBE1FD4C";
leftMetricsKey = "=H*.65";
paths = (
{
closed = 1;
nodes = (
"505 -10 OFFCURVE",
"612 66 OFFCURVE",
"612 197 CURVE SMOOTH",
"612 306 OFFCURVE",
"542 366 OFFCURVE",
"362 415 CURVE SMOOTH",
"211 457 OFFCURVE",
"167 486 OFFCURVE",
"167 542 CURVE SMOOTH",
"167 606 OFFCURVE",
"223 640 OFFCURVE",
"331 640 CURVE SMOOTH",
"413 640 OFFCURVE",
"499 621 OFFCURVE",
"562 589 CURVE",
"588 691 LINE",
"526 721 OFFCURVE",
"425 740 OFFCURVE",
"333 740 CURVE SMOOTH",
"155 740 OFFCURVE",
"52 668 OFFCURVE",
"52 543 CURVE SMOOTH",
"52 437 OFFCURVE",
"123 375 OFFCURVE",
"295 329 CURVE SMOOTH",
"450 288 OFFCURVE",
"497 258 OFFCURVE",
"497 198 CURVE SMOOTH",
"497 129 OFFCURVE",
"437 90 OFFCURVE",
"329 90 CURVE SMOOTH",
"245 90 OFFCURVE",
"149 114 OFFCURVE",
"81 153 CURVE",
"55 51 LINE",
"124 12 OFFCURVE",
"222 -10 OFFCURVE",
"322 -10 CURVE SMOOTH"
);
}
);
width = 664;
},
{
anchors = (
{
name = bottom;
position = "{336, 0}";
},
{
name = cedi;
position = "{251, 0}";
},
{
name = top;
position = "{336, 730}";
}
);
layerId = "9E6B41AB-2970-4C41-8B35-4DBE0D296A43";
leftMetricsKey = "=H*.6";
paths = (
{
closed = 1;
nodes = (
"526 -10 OFFCURVE",
"639 69 OFFCURVE",
"639 210 CURVE SMOOTH",
"639 320 OFFCURVE",
"571 384 OFFCURVE",
"401 434 CURVE SMOOTH",
"278 470 OFFCURVE",
"249 488 OFFCURVE",
"249 526 CURVE SMOOTH",
"249 560 OFFCURVE",
"279 575 OFFCURVE",
"344 575 CURVE SMOOTH",
"417 575 OFFCURVE",
"500 555 OFFCURVE",
"568 522 CURVE",
"610 692 LINE",
"541 722 OFFCURVE",
"442 740 OFFCURVE",
"347 740 CURVE SMOOTH",
"149 740 OFFCURVE",
"39 663 OFFCURVE",
"39 525 CURVE SMOOTH",
"39 410 OFFCURVE",
"109 342 OFFCURVE",
"273 297 CURVE SMOOTH",
"402 261 OFFCURVE",
"429 246 OFFCURVE",
"429 210 CURVE SMOOTH",
"429 175 OFFCURVE",
"396 155 OFFCURVE",
"339 155 CURVE SMOOTH",
"267 155 OFFCURVE",
"154 186 OFFCURVE",
"87 224 CURVE",
"45 54 LINE",
"110 14 OFFCURVE",
"213 -10 OFFCURVE",
"326 -10 CURVE SMOOTH"
);
}
);
width = 678;
}
);
leftKerningGroup = S;
leftMetricsKey = "=H*.6";
rightKerningGroup = S;
rightMetricsKey = "=|";
unicode = 0053;
},
{
color = 11;
glyphname = Germandbls;
lastChange = "2020-12-09 11:53:59 +0000";
layers = (
{
layerId = "D65C9A1E-0FCA-4B2D-8EDF-9F36CA9182A1";
paths = (
{
closed = 1;
nodes = (
"526 -10 OFFCURVE",
"615 58 OFFCURVE",
"615 180 CURVE SMOOTH",
"615 302 OFFCURVE",
"527 370 OFFCURVE",
"369 370 CURVE",
"369 372 LINE",
"528 565 LINE",
"528 681 OFFCURVE",
"459 740 OFFCURVE",
"323 740 CURVE SMOOTH",
"169 740 OFFCURVE",
"95 664 OFFCURVE",
"95 505 CURVE SMOOTH",
"95 0 LINE",
"115 0 LINE",
"115 505 LINE SMOOTH",
"115 653 OFFCURVE",
"180 720 OFFCURVE",
"323 720 CURVE SMOOTH",
"445 720 OFFCURVE",
"505 672 OFFCURVE",
"508 572 CURVE",
"349 379 LINE",
"349 350 LINE",
"369 350 LINE SMOOTH",
"516 350 OFFCURVE",
"595 290 OFFCURVE",
"595 180 CURVE SMOOTH",
"595 70 OFFCURVE",
"515 10 OFFCURVE",
"366 10 CURVE SMOOTH",
"322 10 OFFCURVE",
"284 15 OFFCURVE",
"247 26 CURVE",
"241 7 LINE",
"282 -5 OFFCURVE",
"323 -10 OFFCURVE",
"366 -10 CURVE SMOOTH"
);
}
);
width = 642;
},
{
layerId = "9527F797-22C1-480E-A1FE-2CDBEBE1FD4C";
paths = (
{
closed = 1;
nodes = (
"568 -10 OFFCURVE",
"655 63 OFFCURVE",
"655 195 CURVE SMOOTH",
"655 307 OFFCURVE",
"592 373 OFFCURVE",
"474 383 CURVE",
"474 385 LINE",
"582 533 LINE",
"582 670 OFFCURVE",
"500 740 OFFCURVE",
"337 740 CURVE SMOOTH",
"164 740 OFFCURVE",
"80 662 OFFCURVE",
"80 503 CURVE SMOOTH",
"80 0 LINE",
"190 0 LINE",
"190 503 LINE SMOOTH",
"190 602 OFFCURVE",
"231 640 OFFCURVE",
"337 640 CURVE SMOOTH",
"424 640 OFFCURVE",
"470 613 OFFCURVE",
"472 561 CURVE",
"355 400 LINE",
"355 300 LINE",
"365 300 LINE SMOOTH",
"487 300 OFFCURVE",
"543 267 OFFCURVE",
"543 195 CURVE SMOOTH",
"543 128 OFFCURVE",
"490 90 OFFCURVE",
"396 90 CURVE SMOOTH",
"362 90 OFFCURVE",
"333 95 OFFCURVE",
"293 111 CURVE",
"278 11 LINE",
"321 -3 OFFCURVE",
"364 -10 OFFCURVE",
"411 -10 CURVE SMOOTH"
);
}
);
width = 680;
},
{
layerId = "9E6B41AB-2970-4C41-8B35-4DBE0D296A43";
paths = (
{
closed = 1;
nodes = (
"610 -10 OFFCURVE",
"695 68 OFFCURVE",
"695 210 CURVE SMOOTH",
"695 313 OFFCURVE",
"645 376 OFFCURVE",
"548 395 CURVE",
"548 397 LINE",
"635 500 LINE",
"635 660 OFFCURVE",
"540 740 OFFCURVE",
"350 740 CURVE SMOOTH",
"160 740 OFFCURVE",
"65 660 OFFCURVE",
"65 500 CURVE",
"65 0 LINE",
"265 0 LINE",
"265 500 LINE",
"265 550 OFFCURVE",
"289 570 OFFCURVE",
"350 570 CURVE SMOOTH",
"411 570 OFFCURVE",
"435 550 OFFCURVE",
"435 500 CURVE",
"360 400 LINE",
"360 280 LINE",
"360 280 LINE",
"461 280 OFFCURVE",
"490 267 OFFCURVE",
"490 220 CURVE SMOOTH",
"490 180 OFFCURVE",
"469 160 OFFCURVE",
"425 160 CURVE SMOOTH",
"401 160 OFFCURVE",
"374 166 OFFCURVE",
"340 180 CURVE",
"315 15 LINE",
"357 -1 OFFCURVE",
"405 -10 OFFCURVE",
"455 -10 CURVE SMOOTH"
);
}
);
width = 718;
}
);
leftKerningGroup = H;
leftMetricsKey = "=B";
rightKerningGroup = B;
rightMetricsKey = "=B*.7";
unicode = 1E9E;
},
{
color = 11;
glyphname = Schwa;
lastChange = "2020-12-09 11:53:59 +0000";
layers = (
{
background = {
paths = (
{
closed = 1;
nodes = (
"502 -10 OFFCURVE",
"600 14 OFFCURVE",
"676 54 CURVE",
"667 72 LINE",
"592 32 OFFCURVE",
"497 10 OFFCURVE",
"406 10 CURVE SMOOTH",
"186 10 OFFCURVE",
"66 134 OFFCURVE",
"66 365 CURVE",
"66 365 LINE",
"66 591 OFFCURVE",
"180 720 OFFCURVE",
"376 720 CURVE SMOOTH",
"572 720 OFFCURVE",
"686 591 OFFCURVE",
"686 365 CURVE",
"701 382 LINE",
"56 382 LINE",
"56 362 LINE",
"706 362 LINE",
"706 364 OFFCURVE",
"706 364 OFFCURVE",
"706 365 CURVE SMOOTH",
"706 601 OFFCURVE",
"584 740 OFFCURVE",
"376 740 CURVE SMOOTH",
"168 740 OFFCURVE",
"46 601 OFFCURVE",
"46 365 CURVE SMOOTH",
"46 124 OFFCURVE",
"174 -10 OFFCURVE",
"406 -10 CURVE SMOOTH"
);
}
);
};
layerId = "D65C9A1E-0FCA-4B2D-8EDF-9F36CA9182A1";
paths = (
{
closed = 1;
nodes = (
"250 740 OFFCURVE",
"152 716 OFFCURVE",
"76 676 CURVE",
"85 658 LINE",
"160 698 OFFCURVE",
"255 720 OFFCURVE",
"346 720 CURVE SMOOTH",
"566 720 OFFCURVE",
"686 596 OFFCURVE",
"686 365 CURVE",
"686 365 LINE",
"686 139 OFFCURVE",
"572 10 OFFCURVE",
"376 10 CURVE SMOOTH",
"180 10 OFFCURVE",
"66 139 OFFCURVE",
"66 365 CURVE",
"51 348 LINE",
"696 348 LINE",
"696 368 LINE",
"46 368 LINE",
"46 366 OFFCURVE",
"46 366 OFFCURVE",
"46 365 CURVE SMOOTH",
"46 129 OFFCURVE",
"168 -10 OFFCURVE",
"376 -10 CURVE SMOOTH",
"584 -10 OFFCURVE",
"706 129 OFFCURVE",
"706 365 CURVE SMOOTH",
"706 606 OFFCURVE",
"578 740 OFFCURVE",
"346 740 CURVE SMOOTH"
);
}
);
width = 754;
},
{
background = {
paths = (
{
closed = 1;
nodes = (
"514 -10 OFFCURVE",
"608 10 OFFCURVE",
"677 42 CURVE",
"655 137 LINE",
"582 107 OFFCURVE",
"499 90 OFFCURVE",
"416 90 CURVE SMOOTH",
"235 90 OFFCURVE",
"148 171 OFFCURVE",
"148 334 CURVE",
"148 376 LINE",
"148 550 OFFCURVE",
"228 640 OFFCURVE",
"378 640 CURVE SMOOTH",
"528 640 OFFCURVE",
"608 550 OFFCURVE",
"608 376 CURVE",
"649 416 LINE",
"116 416 LINE",
"116 317 LINE",
"715 317 LINE",
"717 327 OFFCURVE",
"718 353 OFFCURVE",
"718 372 CURVE SMOOTH",
"718 604 OFFCURVE",
"593 740 OFFCURVE",
"381 740 CURVE SMOOTH",
"166 740 OFFCURVE",
"38 600 OFFCURVE",
"38 365 CURVE SMOOTH",
"38 124 OFFCURVE",
"175 -10 OFFCURVE",
"423 -10 CURVE SMOOTH"
);
}
);
};
layerId = "9527F797-22C1-480E-A1FE-2CDBEBE1FD4C";
paths = (
{
closed = 1;
nodes = (
"242 740 OFFCURVE",
"148 720 OFFCURVE",
"79 688 CURVE",
"104 588 LINE",
"178 622 OFFCURVE",
"260 640 OFFCURVE",
"340 640 CURVE SMOOTH",
"521 640 OFFCURVE",
"608 559 OFFCURVE",
"608 396 CURVE",
"608 354 LINE",
"608 180 OFFCURVE",
"528 90 OFFCURVE",
"378 90 CURVE SMOOTH",
"228 90 OFFCURVE",
"148 180 OFFCURVE",
"148 354 CURVE",
"107 314 LINE",
"640 314 LINE",
"640 413 LINE",
"41 413 LINE",
"39 403 OFFCURVE",
"38 377 OFFCURVE",
"38 358 CURVE SMOOTH",
"38 126 OFFCURVE",
"163 -10 OFFCURVE",
"375 -10 CURVE SMOOTH",
"590 -10 OFFCURVE",
"718 130 OFFCURVE",
"718 365 CURVE SMOOTH",
"718 606 OFFCURVE",
"581 740 OFFCURVE",
"333 740 CURVE SMOOTH"
);
}
);
width = 758;
},
{
background = {
paths = (
{
closed = 1;
nodes = (
"528 -10 OFFCURVE",
"618 5 OFFCURVE",
"679 29 CURVE",
"645 194 LINE",
"574 171 OFFCURVE",
"503 160 OFFCURVE",
"428 160 CURVE SMOOTH",
"286 160 OFFCURVE",
"231 199 OFFCURVE",
"231 300 CURVE SMOOTH",
"231 387 LINE SMOOTH",
"231 515 OFFCURVE",
"277 570 OFFCURVE",
"381 570 CURVE SMOOTH",
"485 570 OFFCURVE",
"531 515 OFFCURVE",
"531 387 CURVE",
"598 440 LINE",
"177 440 LINE",
"177 282 LINE",
"726 282 LINE",
"729 297 OFFCURVE",
"731 346 OFFCURVE",
"731 379 CURVE SMOOTH",
"731 607 OFFCURVE",
"604 740 OFFCURVE",
"388 740 CURVE SMOOTH",
"166 740 OFFCURVE",
"31 599 OFFCURVE",
"31 365 CURVE SMOOTH",
"31 124 OFFCURVE",
"178 -10 OFFCURVE",
"441 -10 CURVE SMOOTH"
);
}
);
};
layerId = "9E6B41AB-2970-4C41-8B35-4DBE0D296A43";
paths = (
{
closed = 1;
nodes = (
"234 740 OFFCURVE",
"144 725 OFFCURVE",
"83 701 CURVE",
"118 536 LINE",
"189 559 OFFCURVE",
"259 570 OFFCURVE",
"334 570 CURVE SMOOTH",
"476 570 OFFCURVE",
"531 531 OFFCURVE",
"531 430 CURVE SMOOTH",
"531 343 LINE SMOOTH",
"531 215 OFFCURVE",
"485 160 OFFCURVE",
"381 160 CURVE SMOOTH",
"277 160 OFFCURVE",
"231 215 OFFCURVE",
"231 343 CURVE",
"164 290 LINE",
"585 290 LINE",
"585 448 LINE",
"36 448 LINE",
"33 433 OFFCURVE",
"31 384 OFFCURVE",
"31 351 CURVE SMOOTH",
"31 123 OFFCURVE",
"158 -10 OFFCURVE",
"374 -10 CURVE SMOOTH",
"596 -10 OFFCURVE",
"731 131 OFFCURVE",
"731 365 CURVE SMOOTH",
"731 606 OFFCURVE",
"584 740 OFFCURVE",
"321 740 CURVE SMOOTH"
);
}
);
width = 764;
}
);
leftKerningGroup = O;
leftMetricsKey = "=O*.95";
rightKerningGroup = O;
rightMetricsKey = "=O";
unicode = 018F;
},
{
color = 10;
glyphname = T;
lastChange = "2020-12-10 09:17:55 +0000";
layers = (
{
anchors = (
{
name = bottom;
position = "{328, 0}";
},
{
name = cedi;
position = "{318, 0}";
},
{
name = center;
position = "{328, 365}";
},
{
name = top;
position = "{328, 730}";
}
);
layerId = "D65C9A1E-0FCA-4B2D-8EDF-9F36CA9182A1";
leftMetricsKey = "=H*.3";
paths = (
{
closed = 1;
nodes = (
"338 0 LINE",
"338 710 LINE",
"628 710 LINE",
"628 730 LINE",
"28 730 LINE",
"28 710 LINE",
"318 710 LINE",
"318 0 LINE"
);
}
);
width = 656;
},
{
anchors = (
{
name = bottom;
position = "{333, 0}";
},
{
name = cedi;
position = "{276, 0}";
},
{
name = center;
position = "{333, 365}";
},
{
name = top;
position = "{333, 730}";
}
);
layerId = "9527F797-22C1-480E-A1FE-2CDBEBE1FD4C";
leftMetricsKey = "=H*.35";
paths = (
{
closed = 1;
nodes = (
"390 0 LINE",
"390 630 LINE",
"638 630 LINE",
"638 730 LINE",
"28 730 LINE",
"28 630 LINE",
"276 630 LINE",
"276 0 LINE"
);
}
);
width = 666;
},
{
anchors = (
{
name = bottom;
position = "{336, 0}";
},
{
name = cedi;
position = "{233, 0}";
},
{
name = center;
position = "{336, 365}";
},
{
name = top;
position = "{336, 730}";
}
);
layerId = "9E6B41AB-2970-4C41-8B35-4DBE0D296A43";
leftMetricsKey = "=H*.4";
paths = (
{
closed = 1;
nodes = (
"439 0 LINE",
"439 560 LINE",
"646 560 LINE",
"646 730 LINE",
"26 730 LINE",
"26 560 LINE",
"233 560 LINE",
"233 0 LINE"
);
}
);
width = 672;
}
);
leftKerningGroup = T;
leftMetricsKey = "=H*0.4";
rightKerningGroup = T;
rightMetricsKey = "=|";
unicode = 0054;
},
{
color = 11;
glyphname = Tbar;
lastChange = "2020-12-10 09:18:04 +0000";
layers = (
{
components = (
{
name = T;
transform = "{1, 0, 0, 1, 28, 0}";
}
);
layerId = "D65C9A1E-0FCA-4B2D-8EDF-9F36CA9182A1";
paths = (
{
closed = 1;
nodes = (
"546 305 LINE",
"546 325 LINE",
"126 325 LINE",
"126 305 LINE"
);
}
);
width = 712;
},
{
components = (
{
alignment = -1;
name = T;
transform = "{1, 0, 0, 1, 28, 0}";
}
);
layerId = "9527F797-22C1-480E-A1FE-2CDBEBE1FD4C";
paths = (
{
closed = 1;
nodes = (
"576 270 LINE",
"576 360 LINE",
"116 360 LINE",
"116 270 LINE"
);
}
);
width = 692;
},
{
components = (
{
name = T;
transform = "{1, 0, 0, 1, 26, 0}";
}
);
layerId = "9E6B41AB-2970-4C41-8B35-4DBE0D296A43";
paths = (
{
closed = 1;
nodes = (
"601 245 LINE",
"601 385 LINE",
"101 385 LINE",
"101 245 LINE"
);
}
);
width = 702;
}
);
leftKerningGroup = W;
leftMetricsKey = "=T*2";
rightKerningGroup = W;
rightMetricsKey = "=|";
unicode = 0166;
},
{
color = 10;
glyphname = U;
lastChange = "2020-12-10 10:48:53 +0000";
layers = (
{
anchors = (
{
name = bottom;
position = "{356, 0}";
},
{
name = ogonek;
position = "{465, 10}";
},
{
name = top;
position = "{356, 730}";
},
{
name = top_ring;
position = "{356, 700}";
},
{
name = topright;
position = "{616, 690}";
}
);
layerId = "D65C9A1E-0FCA-4B2D-8EDF-9F36CA9182A1";
paths = (
{
closed = 1;
nodes = (
"535 -10 OFFCURVE",
"626 85 OFFCURVE",
"626 270 CURVE SMOOTH",
"626 730 LINE",
"606 730 LINE",
"606 270 LINE SMOOTH",
"606 96 OFFCURVE",
"523 10 OFFCURVE",
"356 10 CURVE SMOOTH",
"189 10 OFFCURVE",
"106 96 OFFCURVE",
"106 270 CURVE SMOOTH",
"106 730 LINE",
"86 730 LINE",
"86 270 LINE SMOOTH",
"86 85 OFFCURVE",
"177 -10 OFFCURVE",
"356 -10 CURVE SMOOTH"
);
}
);
width = 712;
},
{
anchors = (
{
name = bottom;
position = "{362, 0}";
},
{
name = ogonek;
position = "{488, 10}";
},
{
name = top;
position = "{362, 730}";
},
{
name = top_ring;
position = "{362, 710}";
},
{
name = topright;
position = "{627, 690}";
}
);
layerId = "9527F797-22C1-480E-A1FE-2CDBEBE1FD4C";
paths = (
{
closed = 1;
nodes = (
"552 -10 OFFCURVE",
"652 87 OFFCURVE",
"652 270 CURVE SMOOTH",
"652 730 LINE",
"542 730 LINE",
"542 283 LINE SMOOTH",
"542 149 OFFCURVE",
"487 90 OFFCURVE",
"362 90 CURVE SMOOTH",
"237 90 OFFCURVE",
"182 149 OFFCURVE",
"182 283 CURVE SMOOTH",
"182 730 LINE",
"72 730 LINE",
"72 270 LINE SMOOTH",
"72 87 OFFCURVE",
"172 -10 OFFCURVE",
"362 -10 CURVE SMOOTH"
);
}
);
width = 724;
},
{
anchors = (
{
name = bottom;
position = "{369, 0}";
},
{
name = ogonek;
position = "{502, 10}";
},
{
name = top;
position = "{369, 730}";
},
{
name = top_ring;
position = "{369, 720}";
},
{
name = topright;
position = "{639, 690}";
}
);
layerId = "9E6B41AB-2970-4C41-8B35-4DBE0D296A43";
paths = (
{
closed = 1;
nodes = (
"570 -10 OFFCURVE",
"679 88 OFFCURVE",
"679 270 CURVE SMOOTH",
"679 730 LINE",
"479 730 LINE",
"479 295 LINE SMOOTH",
"479 194 OFFCURVE",
"451 160 OFFCURVE",
"369 160 CURVE SMOOTH",
"287 160 OFFCURVE",
"259 194 OFFCURVE",
"259 295 CURVE SMOOTH",
"259 730 LINE",
"59 730 LINE",
"59 270 LINE SMOOTH",
"59 88 OFFCURVE",
"167 -10 OFFCURVE",
"369 -10 CURVE SMOOTH"
);
}
);
width = 738;
}
);
leftKerningGroup = U;
leftMetricsKey = "=H*.9";
rightKerningGroup = U;
rightMetricsKey = "=|";
unicode = 0055;
},
{
color = 10;
glyphname = V;
lastChange = "2020-12-10 10:55:45 +0000";
layers = (
{
layerId = "D65C9A1E-0FCA-4B2D-8EDF-9F36CA9182A1";
paths = (
{
closed = 1;
nodes = (
"354 0 LINE",
"659 730 LINE",
"637 730 LINE",
"340 18 LINE",
"338 18 LINE",
"41 730 LINE",
"19 730 LINE",
"324 0 LINE"
);
}
);
width = 678;
},
{
layerId = "9527F797-22C1-480E-A1FE-2CDBEBE1FD4C";
paths = (
{
closed = 1;
nodes = (
"419 0 LINE",
"682 730 LINE",
"561 730 LINE",
"348 110 LINE",
"346 110 LINE",
"133 730 LINE",
"12 730 LINE",
"275 0 LINE"
);
}
);
width = 694;
},
{
layerId = "9E6B41AB-2970-4C41-8B35-4DBE0D296A43";
paths = (
{
closed = 1;
nodes = (
"487 0 LINE",
"707 730 LINE",
"487 730 LINE",
"358 200 LINE",
"356 200 LINE",
"227 730 LINE",
"7 730 LINE",
"227 0 LINE"
);
}
);
width = 714;
}
);
leftKerningGroup = V;
leftMetricsKey = "=A";
rightKerningGroup = V;
rightMetricsKey = "=|";
unicode = 0056;
},
{
color = 10;
glyphname = W;
lastChange = "2020-12-10 10:58:28 +0000";
layers = (
{
anchors = (
{
name = bottom;
position = "{445, 0}";
},
{
name = top;
position = "{445, 730}";
}
);
layerId = "D65C9A1E-0FCA-4B2D-8EDF-9F36CA9182A1";
leftMetricsKey = "=V*1.6";
paths = (
{
closed = 1;
nodes = (
"251 0 LINE",
"444 650 LINE",
"446 650 LINE",
"639 0 LINE",
"671 0 LINE",
"860 730 LINE",
"839 730 LINE",
"656 20 LINE",
"654 20 LINE",
"461 670 LINE",
"429 670 LINE",
"236 20 LINE",
"234 20 LINE",
"51 730 LINE",
"30 730 LINE",
"219 0 LINE"
);
}
);
width = 890;
},
{
anchors = (
{
name = bottom;
position = "{466, 0}";
},
{
name = top;
position = "{466, 730}";
}
);
layerId = "9527F797-22C1-480E-A1FE-2CDBEBE1FD4C";
leftMetricsKey = "=V*2.3";
paths = (
{
closed = 1;
nodes = (
"334 0 LINE",
"465 525 LINE",
"467 525 LINE",
"598 0 LINE",
"734 0 LINE",
"904 730 LINE",
"791 730 LINE",
"665 145 LINE",
"663 145 LINE",
"534 670 LINE",
"398 670 LINE",
"269 145 LINE",
"267 145 LINE",
"141 730 LINE",
"28 730 LINE",
"198 0 LINE"
);
}
);
width = 932;
},
{
anchors = (
{
name = bottom;
position = "{488, 0}";
},
{
name = top;
position = "{488, 730}";
}
);
layerId = "9E6B41AB-2970-4C41-8B35-4DBE0D296A43";
leftMetricsKey = "=V*4";
paths = (
{
closed = 1;
nodes = (
"418 0 LINE",
"487 460 LINE",
"489 460 LINE",
"558 0 LINE",
"798 0 LINE",
"948 730 LINE",
"743 730 LINE",
"674 210 LINE",
"672 210 LINE",
"608 670 LINE",
"368 670 LINE",
"304 210 LINE",
"302 210 LINE",
"233 730 LINE",
"28 730 LINE",
"178 0 LINE"
);
}
);
width = 976;
}
);
leftKerningGroup = W;
leftMetricsKey = "=V*3";
rightKerningGroup = W;
rightMetricsKey = "=|";
unicode = 0057;
},
{
color = 10;
glyphname = X;
lastChange = "2020-12-10 11:40:58 +0000";
layers = (
{
layerId = "D65C9A1E-0FCA-4B2D-8EDF-9F36CA9182A1";
paths = (
{
closed = 1;
nodes = (
"89 0 LINE",
"353 351 LINE",
"355 351 LINE",
"619 0 LINE",
"644 0 LINE",
"366 369 LINE",
"638 730 LINE",
"613 730 LINE",
"355 387 LINE",
"353 387 LINE",
"95 730 LINE",
"70 730 LINE",
"342 369 LINE",
"64 0 LINE"
);
}
);
width = 708;
},
{
layerId = "9527F797-22C1-480E-A1FE-2CDBEBE1FD4C";
paths = (
{
closed = 1;
nodes = (
"169 0 LINE",
"353 304 LINE",
"355 304 LINE",
"539 0 LINE",
"664 0 LINE",
"435 367 LINE",
"661 730 LINE",
"536 730 LINE",
"355 431 LINE",
"353 431 LINE",
"172 730 LINE",
"47 730 LINE",
"273 367 LINE",
"44 0 LINE"
);
}
);
width = 708;
},
{
layerId = "9E6B41AB-2970-4C41-8B35-4DBE0D296A43";
paths = (
{
closed = 1;
nodes = (
"254 0 LINE",
"358 255 LINE",
"360 255 LINE",
"464 0 LINE",
"689 0 LINE",
"509 365 LINE",
"689 730 LINE",
"464 730 LINE",
"360 475 LINE",
"358 475 LINE",
"254 730 LINE",
"29 730 LINE",
"209 365 LINE",
"29 0 LINE"
);
}
);
width = 718;
}
);
leftKerningGroup = X;
leftMetricsKey = "=|K*2.2";
rightKerningGroup = X;
rightMetricsKey = "=|";
unicode = 0058;
},
{
color = 10;
glyphname = Y;
lastChange = "2020-12-10 11:31:15 +0000";
layers = (
{
anchors = (
{
name = bottom;
position = "{331, 0}";
},
{
name = top;
position = "{331, 730}";
},
{
name = topleft;
position = "{39, 730}";
}
);
layerId = "D65C9A1E-0FCA-4B2D-8EDF-9F36CA9182A1";
paths = (
{
closed = 1;
nodes = (
"341 0 LINE",
"341 297 LINE",
"651 730 LINE",
"626 730 LINE",
"332 318 LINE",
"330 318 LINE",
"36 730 LINE",
"11 730 LINE",
"321 297 LINE",
"321 0 LINE"
);
}
);
width = 662;
},
{
anchors = (
{
name = bottom;
position = "{342, 0}";
},
{
name = top;
position = "{342, 730}";
},
{
name = topleft;
position = "{29, 730}";
}
);
layerId = "9527F797-22C1-480E-A1FE-2CDBEBE1FD4C";
paths = (
{
closed = 1;
nodes = (
"399 0 LINE",
"399 274 LINE",
"677 730 LINE",
"551 730 LINE",
"343 373 LINE",
"341 373 LINE",
"133 730 LINE",
"7 730 LINE",
"285 274 LINE",
"285 0 LINE"
);
}
);
width = 684;
},
{
anchors = (
{
name = bottom;
position = "{354, 0}";
},
{
name = top;
position = "{354, 730}";
},
{
name = topleft;
position = "{20, 730}";
}
);
layerId = "9E6B41AB-2970-4C41-8B35-4DBE0D296A43";
paths = (
{
closed = 1;
nodes = (
"459 0 LINE",
"459 250 LINE",
"704 730 LINE",
"484 730 LINE",
"355 420 LINE",
"353 420 LINE",
"224 730 LINE",
"4 730 LINE",
"249 250 LINE",
"249 0 LINE"
);
}
);
width = 708;
}
);
leftKerningGroup = Y;
leftMetricsKey = "=V*.6";
rightKerningGroup = Y;
rightMetricsKey = "=|";
unicode = 0059;
},
{
color = 10;
glyphname = Z;
lastChange = "2020-12-11 07:11:03 +0000";
layers = (
{
anchors = (
{
name = bottom;
position = "{326, 0}";
},
{
name = center;
position = "{326, 365}";
},
{
name = top;
position = "{326, 730}";
}
);
layerId = "D65C9A1E-0FCA-4B2D-8EDF-9F36CA9182A1";
paths = (
{
closed = 1;
nodes = (
"576 0 LINE",
"576 20 LINE",
"101 20 LINE",
"101 22 LINE",
"576 710 LINE",
"576 730 LINE",
"76 730 LINE",
"76 710 LINE",
"551 710 LINE",
"551 708 LINE",
"76 20 LINE",
"76 0 LINE"
);
}
);
width = 652;
},
{
anchors = (
{
name = bottom;
position = "{324, 0}";
},
{
name = center;
position = "{324, 365}";
},
{
name = top;
position = "{324, 730}";
}
);
layerId = "9527F797-22C1-480E-A1FE-2CDBEBE1FD4C";
paths = (
{
closed = 1;
nodes = (
"584 0 LINE",
"584 100 LINE",
"199 100 LINE",
"199 102 LINE",
"584 630 LINE",
"584 730 LINE",
"64 730 LINE",
"64 630 LINE",
"449 630 LINE",
"449 628 LINE",
"64 100 LINE",
"64 0 LINE"
);
}
);
width = 648;
},
{
anchors = (
{
name = bottom;
position = "{322, 0}";
},
{
name = center;
position = "{322, 365}";
},
{
name = top;
position = "{322, 730}";
}
);
layerId = "9E6B41AB-2970-4C41-8B35-4DBE0D296A43";
paths = (
{
closed = 1;
nodes = (
"592 0 LINE",
"592 165 LINE",
"287 165 LINE",
"287 167 LINE",
"592 565 LINE",
"592 730 LINE",
"52 730 LINE",
"52 565 LINE",
"357 565 LINE",
"357 563 LINE",
"52 165 LINE",
"52 0 LINE"
);
}
);
width = 644;
}
);
leftKerningGroup = Z;
leftMetricsKey = "=H*.8";
rightKerningGroup = Z;
rightMetricsKey = "=|";
unicode = 005A;
},
{
color = 10;
glyphname = R.001;
lastChange = "2020-12-11 07:47:43 +0000";
layers = (
{
anchors = (
{
name = bottom;
position = "{335, 0}";
},
{
name = top;
position = "{335, 730}";
}
);
layerId = "9527F797-22C1-480E-A1FE-2CDBEBE1FD4C";
paths = (
{
closed = 1;
nodes = (
"190 0 LINE",
"190 630 LINE",
"311 630 LINE SMOOTH",
"463 630 OFFCURVE",
"528 592 OFFCURVE",
"528 504 CURVE SMOOTH",
"528 416 OFFCURVE",
"463 378 OFFCURVE",
"311 378 CURVE SMOOTH",
"135 378 LINE",
"135 282 LINE",
"327 282 LINE SMOOTH",
"537 282 OFFCURVE",
"640 356 OFFCURVE",
"640 508 CURVE SMOOTH",
"640 661 OFFCURVE",
"536 730 OFFCURVE",
"306 730 CURVE SMOOTH",
"80 730 LINE",
"80 0 LINE"
);
},
{
closed = 1;
nodes = (
"660 0 LINE",
"365 330 LINE",
"227 330 LINE",
"520 0 LINE"
);
}
);
width = 692;
},
{
anchors = (
{
name = bottom;
position = "{335, 0}";
},
{
name = top;
position = "{335, 730}";
}
);
associatedMasterId = "9527F797-22C1-480E-A1FE-2CDBEBE1FD4C";
layerId = "7FAAC43C-2BE6-4DB8-A2A6-2B62B2F8933B";
name = "Medium [500]";
paths = (
{
closed = 1;
nodes = (
"190 0 LINE",
"190 630 LINE",
"311 630 LINE SMOOTH",
"463 630 OFFCURVE",
"528 592 OFFCURVE",
"528 504 CURVE SMOOTH",
"528 416 OFFCURVE",
"463 378 OFFCURVE",
"311 378 CURVE SMOOTH",
"135 378 LINE",
"135 282 LINE",
"327 282 LINE SMOOTH",
"537 282 OFFCURVE",
"640 356 OFFCURVE",
"640 508 CURVE SMOOTH",
"640 661 OFFCURVE",
"536 730 OFFCURVE",
"306 730 CURVE SMOOTH",
"80 730 LINE",
"80 0 LINE"
);
},
{
closed = 1;
nodes = (
"660 0 LINE",
"288 330 LINE",
"138 330 LINE",
"508 0 LINE"
);
}
);
width = 692;
},
{
anchors = (
{
name = bottom;
position = "{340, 0}";
},
{
name = top;
position = "{340, 730}";
}
);
layerId = "9E6B41AB-2970-4C41-8B35-4DBE0D296A43";
paths = (
{
closed = 1;
nodes = (
"265 0 LINE",
"265 570 LINE",
"324 570 LINE SMOOTH",
"417 570 OFFCURVE",
"460 542 OFFCURVE",
"460 480 CURVE SMOOTH",
"460 418 OFFCURVE",
"417 390 OFFCURVE",
"324 390 CURVE SMOOTH",
"165 390 LINE",
"165 244 LINE",
"355 244 LINE SMOOTH",
"556 244 OFFCURVE",
"665 330 OFFCURVE",
"665 490 CURVE SMOOTH",
"665 652 OFFCURVE",
"551 730 OFFCURVE",
"314 730 CURVE SMOOTH",
"65 730 LINE",
"65 0 LINE"
);
},
{
closed = 1;
nodes = (
"685 0 LINE",
"481 317 LINE",
"263 317 LINE",
"465 0 LINE"
);
}
);
width = 711;
},
{
anchors = (
{
name = bottom;
position = "{340, 0}";
},
{
name = top;
position = "{340, 730}";
}
);
associatedMasterId = "9E6B41AB-2970-4C41-8B35-4DBE0D296A43";
layerId = "A0CD4DB6-9549-4527-815B-AA5EA254ECA0";
name = "Black [500]";
paths = (
{
closed = 1;
nodes = (
"265 0 LINE",
"265 570 LINE",
"324 570 LINE SMOOTH",
"417 570 OFFCURVE",
"460 542 OFFCURVE",
"460 480 CURVE SMOOTH",
"460 418 OFFCURVE",
"417 390 OFFCURVE",
"324 390 CURVE SMOOTH",
"165 390 LINE",
"165 244 LINE",
"355 244 LINE SMOOTH",
"556 244 OFFCURVE",
"665 330 OFFCURVE",
"665 490 CURVE SMOOTH",
"665 652 OFFCURVE",
"551 730 OFFCURVE",
"314 730 CURVE SMOOTH",
"65 730 LINE",
"65 0 LINE"
);
},
{
closed = 1;
nodes = (
"685 0 LINE",
"426 317 LINE",
"208 317 LINE",
"465 0 LINE"
);
}
);
width = 711;
},
{
anchors = (
{
name = bottom;
position = "{330, 0}";
},
{
name = top;
position = "{330, 730}";
}
);
associatedMasterId = "D65C9A1E-0FCA-4B2D-8EDF-9F36CA9182A1";
layerId = "9D907E83-DDF0-4699-AFF8-E452C4DC2A5B";
name = "Thin [500]";
paths = (
{
closed = 1;
nodes = (
"115 0 LINE",
"115 710 LINE",
"298 710 LINE SMOOTH",
"509 710 OFFCURVE",
"595 655 OFFCURVE",
"595 525 CURVE SMOOTH",
"595 395 OFFCURVE",
"509 340 OFFCURVE",
"298 340 CURVE SMOOTH",
"105 340 LINE",
"105 320 LINE",
"298 320 LINE SMOOTH",
"519 320 OFFCURVE",
"615 382 OFFCURVE",
"615 525 CURVE SMOOTH",
"615 668 OFFCURVE",
"519 730 OFFCURVE",
"298 730 CURVE SMOOTH",
"95 730 LINE",
"95 0 LINE"
);
},
{
closed = 1;
nodes = (
"635 0 LINE",
"248 331 LINE",
"218 331 LINE",
"604 0 LINE"
);
}
);
width = 673;
},
{
anchors = (
{
name = bottom;
position = "{330, 0}";
},
{
name = top;
position = "{330, 730}";
}
);
layerId = "D65C9A1E-0FCA-4B2D-8EDF-9F36CA9182A1";
paths = (
{
closed = 1;
nodes = (
"115 0 LINE",
"115 710 LINE",
"298 710 LINE SMOOTH",
"509 710 OFFCURVE",
"595 655 OFFCURVE",
"595 525 CURVE SMOOTH",
"595 395 OFFCURVE",
"509 340 OFFCURVE",
"298 340 CURVE SMOOTH",
"105 340 LINE",
"105 320 LINE",
"298 320 LINE SMOOTH",
"519 320 OFFCURVE",
"615 382 OFFCURVE",
"615 525 CURVE SMOOTH",
"615 668 OFFCURVE",
"519 730 OFFCURVE",
"298 730 CURVE SMOOTH",
"95 730 LINE",
"95 0 LINE"
);
},
{
closed = 1;
nodes = (
"635 0 LINE",
"248 331 LINE",
"218 331 LINE",
"604 0 LINE"
);
}
);
width = 673;
}
);
leftKerningGroup = H;
leftMetricsKey = "=H";
rightKerningGroup = R;
rightMetricsKey = "=H*.4";
},
{
color = 11;
glyphname = a;
lastChange = "2020-12-09 11:54:00 +0000";
layers = (
{
anchors = (
{
name = bottom;
position = "{250, 0}";
},
{
name = ogonek;
position = "{444, 0}";
},
{
name = top;
position = "{250, 520}";
}
);
layerId = "D65C9A1E-0FCA-4B2D-8EDF-9F36CA9182A1";
paths = (
{
closed = 1;
nodes = (
"314 -10 OFFCURVE",
"395 40 OFFCURVE",
"432 116 CURVE",
"434 116 LINE",
"434 0 LINE",
"454 0 LINE",
"454 330 LINE SMOOTH",
"454 477 OFFCURVE",
"405 530 OFFCURVE",
"267 530 CURVE SMOOTH",
"189 530 OFFCURVE",
"115 513 OFFCURVE",
"47 480 CURVE",
"56 462 LINE",
"121 494 OFFCURVE",
"192 510 OFFCURVE",
"267 510 CURVE SMOOTH",
"393 510 OFFCURVE",
"434 465 OFFCURVE",
"434 325 CURVE",
"335 325 LINE SMOOTH",
"140 325 OFFCURVE",
"34 262 OFFCURVE",
"34 145 CURVE SMOOTH",
"34 50 OFFCURVE",
"104 -10 OFFCURVE",
"214 -10 CURVE SMOOTH"
);
},
{
closed = 1;
nodes = (
"114 10 OFFCURVE",
"54 62 OFFCURVE",
"54 145 CURVE SMOOTH",
"54 249 OFFCURVE",
"150 305 OFFCURVE",
"335 305 CURVE SMOOTH",
"434 305 LINE",
"434 210 LINE SMOOTH",
"434 95 OFFCURVE",
"340 10 OFFCURVE",
"214 10 CURVE SMOOTH"
);
}
);
width = 523;
},
{
anchors = (
{
name = bottom;
position = "{265, 0}";
},
{
name = ogonek;
position = "{487, 0}";
},
{
name = top;
position = "{265, 520}";
}
);
layerId = "9527F797-22C1-480E-A1FE-2CDBEBE1FD4C";
paths = (
{
closed = 1;
nodes = (
"272 -10 OFFCURVE",
"349 21 OFFCURVE",
"386 68 CURVE",
"388 68 LINE",
"389 0 LINE",
"492 0 LINE",
"492 325 LINE SMOOTH",
"492 475 OFFCURVE",
"436 530 OFFCURVE",
"284 530 CURVE SMOOTH",
"199 530 OFFCURVE",
"114 515 OFFCURVE",
"43 486 CURVE",
"58 397 LINE",
"121 424 OFFCURVE",
"200 440 OFFCURVE",
"270 440 CURVE SMOOTH",
"356 440 OFFCURVE",
"384 415 OFFCURVE",
"384 338 CURVE",
"307 338 LINE SMOOTH",
"124 338 OFFCURVE",
"29 273 OFFCURVE",
"29 148 CURVE SMOOTH",
"29 51 OFFCURVE",
"93 -10 OFFCURVE",
"197 -10 CURVE SMOOTH"
);
},
{
closed = 1;
nodes = (
"172 78 OFFCURVE",
"137 107 OFFCURVE",
"137 158 CURVE SMOOTH",
"137 224 OFFCURVE",
"198 256 OFFCURVE",
"322 256 CURVE SMOOTH",
"384 256 LINE",
"384 203 LINE SMOOTH",
"384 131 OFFCURVE",
"321 78 OFFCURVE",
"235 78 CURVE SMOOTH"
);
}
);
width = 550;
},
{
anchors = (
{
name = bottom;
position = "{279, 0}";
},
{
name = ogonek;
position = "{528, 0}";
},
{
name = top;
position = "{279, 520}";
}
);
layerId = "9E6B41AB-2970-4C41-8B35-4DBE0D296A43";
paths = (
{
closed = 1;
nodes = (
"240 -10 OFFCURVE",
"299 16 OFFCURVE",
"338 60 CURVE",
"340 60 LINE",
"342 0 LINE",
"528 0 LINE",
"528 320 LINE SMOOTH",
"528 473 OFFCURVE",
"466 530 OFFCURVE",
"299 530 CURVE SMOOTH",
"207 530 OFFCURVE",
"111 516 OFFCURVE",
"38 491 CURVE",
"58 351 LINE",
"124 375 OFFCURVE",
"207 390 OFFCURVE",
"272 390 CURVE SMOOTH",
"322 390 OFFCURVE",
"332 380 OFFCURVE",
"332 330 CURVE",
"278 330 LINE SMOOTH",
"115 330 OFFCURVE",
"23 265 OFFCURVE",
"23 150 CURVE SMOOTH",
"23 53 OFFCURVE",
"84 -10 OFFCURVE",
"178 -10 CURVE SMOOTH"
);
},
{
closed = 1;
nodes = (
"218 125 OFFCURVE",
"199 141 OFFCURVE",
"199 170 CURVE SMOOTH",
"199 208 OFFCURVE",
"232 225 OFFCURVE",
"308 225 CURVE SMOOTH",
"332 225 LINE",
"332 195 LINE SMOOTH",
"332 153 OFFCURVE",
"301 125 OFFCURVE",
"254 125 CURVE SMOOTH"
);
}
);
width = 574;
},
{
anchors = (
{
name = bottom;
position = "{254, 0}";
},
{
name = ogonek;
position = "{457, 0}";
},
{
name = top;
position = "{254, 520}";
}
);
associatedMasterId = "D65C9A1E-0FCA-4B2D-8EDF-9F36CA9182A1";
layerId = "37E9DD48-F59F-412B-917A-B9493104890B";
name = "Light {232}";
paths = (
{
closed = 1;
nodes = (
"296 -10 OFFCURVE",
"379 30 OFFCURVE",
"416 90 CURVE",
"418 90 LINE",
"418 0 LINE",
"466 0 LINE",
"466 328 LINE SMOOTH",
"466 476 OFFCURVE",
"415 530 OFFCURVE",
"272 530 CURVE SMOOTH",
"192 530 OFFCURVE",
"114 514 OFFCURVE",
"45 482 CURVE",
"56 441 LINE",
"120 471 OFFCURVE",
"194 487 OFFCURVE",
"267 487 CURVE SMOOTH",
"380 487 OFFCURVE",
"417 449 OFFCURVE",
"417 329 CURVE",
"325 329 LINE SMOOTH",
"134 329 OFFCURVE",
"32 266 OFFCURVE",
"32 146 CURVE SMOOTH",
"32 49 OFFCURVE",
"99 -10 OFFCURVE",
"208 -10 CURVE SMOOTH"
);
},
{
closed = 1;
nodes = (
"132 32 OFFCURVE",
"81 77 OFFCURVE",
"81 149 CURVE SMOOTH",
"81 241 OFFCURVE",
"165 289 OFFCURVE",
"330 289 CURVE SMOOTH",
"417 289 LINE",
"417 208 LINE SMOOTH",
"417 107 OFFCURVE",
"333 32 OFFCURVE",
"220 32 CURVE SMOOTH"
);
}
);
width = 531;
}
);
leftKerningGroup = a;
leftMetricsKey = "=h*.4";
rightKerningGroup = h;
rightMetricsKey = "=h";
unicode = 0061;
},
{
color = 11;
glyphname = ae;
lastChange = "2020-12-09 11:54:00 +0000";
layers = (
{
anchors = (
{
name = bottom;
position = "{458, 0}";
},
{
name = top;
position = "{458, 520}";
}
);
layerId = "D65C9A1E-0FCA-4B2D-8EDF-9F36CA9182A1";
paths = (
{
closed = 1;
nodes = (
"741 -10 OFFCURVE",
"799 4 OFFCURVE",
"844 30 CURVE",
"834 47 LINE",
"792 23 OFFCURVE",
"738 10 OFFCURVE",
"680 10 CURVE SMOOTH",
"533 10 OFFCURVE",
"454 96 OFFCURVE",
"454 260 CURVE",
"454 260 LINE",
"454 419 OFFCURVE",
"529 510 OFFCURVE",
"659 510 CURVE SMOOTH",
"786 510 OFFCURVE",
"854 424 OFFCURVE",
"854 260 CURVE",
"864 278 LINE",
"444 278 LINE",
"444 258 LINE",
"874 258 LINE",
"874 259 OFFCURVE",
"874 259 OFFCURVE",
"874 260 CURVE SMOOTH",
"874 434 OFFCURVE",
"798 530 OFFCURVE",
"659 530 CURVE SMOOTH",
"518 530 OFFCURVE",
"434 430 OFFCURVE",
"434 260 CURVE SMOOTH",
"434 86 OFFCURVE",
"521 -10 OFFCURVE",
"680 -10 CURVE SMOOTH"
);
},
{
closed = 1;
nodes = (
"114 10 OFFCURVE",
"54 62 OFFCURVE",
"54 145 CURVE SMOOTH",
"54 249 OFFCURVE",
"150 305 OFFCURVE",
"335 305 CURVE SMOOTH",
"434 305 LINE",
"434 210 LINE SMOOTH",
"434 95 OFFCURVE",
"340 10 OFFCURVE",
"214 10 CURVE SMOOTH"
);
},
{
closed = 1;
nodes = (
"351 -10 OFFCURVE",
"454 84 OFFCURVE",
"454 210 CURVE SMOOTH",
"454 330 LINE SMOOTH",
"454 477 OFFCURVE",
"405 530 OFFCURVE",
"267 530 CURVE SMOOTH",
"189 530 OFFCURVE",
"115 513 OFFCURVE",
"47 480 CURVE",
"56 462 LINE",
"121 494 OFFCURVE",
"192 510 OFFCURVE",
"267 510 CURVE SMOOTH",
"393 510 OFFCURVE",
"434 465 OFFCURVE",
"434 325 CURVE",
"335 325 LINE SMOOTH",
"140 325 OFFCURVE",
"34 262 OFFCURVE",
"34 145 CURVE SMOOTH",
"34 50 OFFCURVE",
"104 -10 OFFCURVE",
"214 -10 CURVE SMOOTH"
);
}
);
width = 915;
},
{
anchors = (
{
name = bottom;
position = "{452, 0}";
},
{
name = top;
position = "{452, 520}";
}
);
layerId = "9527F797-22C1-480E-A1FE-2CDBEBE1FD4C";
paths = (
{
closed = 1;
nodes = (
"726 -10 OFFCURVE",
"787 2 OFFCURVE",
"834 24 CURVE",
"819 114 LINE",
"776 93 OFFCURVE",
"714 80 OFFCURVE",
"658 80 CURVE SMOOTH",
"545 80 OFFCURVE",
"490 133 OFFCURVE",
"490 240 CURVE",
"490 270 LINE",
"490 383 OFFCURVE",
"539 442 OFFCURVE",
"631 442 CURVE SMOOTH",
"722 442 OFFCURVE",
"768 385 OFFCURVE",
"768 270 CURVE",
"784 300 LINE",
"444 300 LINE",
"444 215 LINE",
"867 215 LINE",
"868 223 OFFCURVE",
"869 248 OFFCURVE",
"869 265 CURVE SMOOTH",
"869 434 OFFCURVE",
"783 530 OFFCURVE",
"631 530 CURVE SMOOTH",
"477 530 OFFCURVE",
"384 429 OFFCURVE",
"384 260 CURVE SMOOTH",
"384 86 OFFCURVE",
"482 -10 OFFCURVE",
"662 -10 CURVE SMOOTH"
);
},
{
closed = 1;
nodes = (
"172 78 OFFCURVE",
"137 107 OFFCURVE",
"137 158 CURVE SMOOTH",
"137 224 OFFCURVE",
"198 256 OFFCURVE",
"322 256 CURVE SMOOTH",
"384 256 LINE",
"384 203 LINE SMOOTH",
"384 131 OFFCURVE",
"321 78 OFFCURVE",
"235 78 CURVE SMOOTH"
);
},
{
closed = 1;
nodes = (
"380 -10 OFFCURVE",
"489 90 OFFCURVE",
"489 250 CURVE SMOOTH",
"489 325 LINE SMOOTH",
"489 475 OFFCURVE",
"434 530 OFFCURVE",
"284 530 CURVE SMOOTH",
"199 530 OFFCURVE",
"114 515 OFFCURVE",
"43 486 CURVE",
"58 397 LINE",
"121 424 OFFCURVE",
"200 440 OFFCURVE",
"270 440 CURVE SMOOTH",
"356 440 OFFCURVE",
"384 415 OFFCURVE",
"384 338 CURVE",
"307 338 LINE SMOOTH",
"124 338 OFFCURVE",
"29 273 OFFCURVE",
"29 148 CURVE SMOOTH",
"29 47 OFFCURVE",
"93 -10 OFFCURVE",
"207 -10 CURVE SMOOTH"
);
}
);
width = 903;
},
{
anchors = (
{
name = bottom;
position = "{447, 0}";
},
{
name = top;
position = "{447, 520}";
}
);
layerId = "9E6B41AB-2970-4C41-8B35-4DBE0D296A43";
paths = (
{
closed = 1;
nodes = (
"707 -10 OFFCURVE",
"777 1 OFFCURVE",
"822 18 CURVE",
"802 158 LINE",
"758 142 OFFCURVE",
"688 130 OFFCURVE",
"634 130 CURVE SMOOTH",
"556 130 OFFCURVE",
"524 156 OFFCURVE",
"524 220 CURVE SMOOTH",
"524 280 LINE SMOOTH",
"524 367 OFFCURVE",
"548 405 OFFCURVE",
"602 405 CURVE SMOOTH",
"656 405 OFFCURVE",
"680 367 OFFCURVE",
"680 280 CURVE",
"703 315 LINE",
"442 315 LINE",
"442 200 LINE",
"858 200 LINE",
"860 211 OFFCURVE",
"862 246 OFFCURVE",
"862 270 CURVE SMOOTH",
"862 434 OFFCURVE",
"766 530 OFFCURVE",
"602 530 CURVE SMOOTH",
"434 530 OFFCURVE",
"332 428 OFFCURVE",
"332 260 CURVE SMOOTH",
"332 86 OFFCURVE",
"442 -10 OFFCURVE",
"642 -10 CURVE SMOOTH"
);
},
{
closed = 1;
nodes = (
"218 125 OFFCURVE",
"199 141 OFFCURVE",
"199 170 CURVE SMOOTH",
"199 208 OFFCURVE",
"232 225 OFFCURVE",
"308 225 CURVE SMOOTH",
"332 225 LINE",
"332 195 LINE SMOOTH",
"332 153 OFFCURVE",
"301 125 OFFCURVE",
"254 125 CURVE SMOOTH"
);
},
{
closed = 1;
nodes = (
"425 -10 OFFCURVE",
"524 101 OFFCURVE",
"524 310 CURVE SMOOTH",
"524 320 LINE SMOOTH",
"524 473 OFFCURVE",
"463 530 OFFCURVE",
"299 530 CURVE SMOOTH",
"207 530 OFFCURVE",
"111 516 OFFCURVE",
"38 491 CURVE",
"58 351 LINE",
"124 375 OFFCURVE",
"207 390 OFFCURVE",
"272 390 CURVE SMOOTH",
"322 390 OFFCURVE",
"332 380 OFFCURVE",
"332 330 CURVE",
"278 330 LINE SMOOTH",
"115 330 OFFCURVE",
"23 265 OFFCURVE",
"23 150 CURVE SMOOTH",
"23 48 OFFCURVE",
"101 -10 OFFCURVE",
"238 -10 CURVE SMOOTH"
);
}
);
width = 890;
}
);
leftKerningGroup = a;
leftMetricsKey = "=a";
rightKerningGroup = o;
rightMetricsKey = "=e";
unicode = 00E6;
},
{
color = 11;
glyphname = b;
lastChange = "2020-12-09 11:53:59 +0000";
layers = (
{
layerId = "D65C9A1E-0FCA-4B2D-8EDF-9F36CA9182A1";
paths = (
{
closed = 1;
nodes = (
"441 -10 OFFCURVE",
"520 91 OFFCURVE",
"520 260 CURVE SMOOTH",
"520 429 OFFCURVE",
"441 530 OFFCURVE",
"306 530 CURVE SMOOTH",
"213 530 OFFCURVE",
"142 481 OFFCURVE",
"108 400 CURVE",
"106 400 LINE",
"106 730 LINE",
"86 730 LINE",
"86 0 LINE",
"106 0 LINE",
"106 120 LINE",
"108 120 LINE",
"142 39 OFFCURVE",
"213 -10 OFFCURVE",
"306 -10 CURVE SMOOTH"
);
},
{
closed = 1;
nodes = (
"184 10 OFFCURVE",
"106 100 OFFCURVE",
"106 235 CURVE SMOOTH",
"106 285 LINE SMOOTH",
"106 420 OFFCURVE",
"184 510 OFFCURVE",
"306 510 CURVE SMOOTH",
"429 510 OFFCURVE",
"500 419 OFFCURVE",
"500 260 CURVE SMOOTH",
"500 101 OFFCURVE",
"429 10 OFFCURVE",
"306 10 CURVE SMOOTH"
);
}
);
width = 563;
},
{
layerId = "9527F797-22C1-480E-A1FE-2CDBEBE1FD4C";
paths = (
{
closed = 1;
nodes = (
"489 -10 OFFCURVE",
"569 88 OFFCURVE",
"569 260 CURVE SMOOTH",
"569 432 OFFCURVE",
"489 530 OFFCURVE",
"349 530 CURVE SMOOTH",
"275 530 OFFCURVE",
"222 503 OFFCURVE",
"182 452 CURVE",
"180 452 LINE",
"180 730 LINE",
"72 730 LINE",
"72 0 LINE",
"175 0 LINE",
"176 68 LINE",
"178 68 LINE",
"222 16 OFFCURVE",
"276 -10 OFFCURVE",
"349 -10 CURVE SMOOTH"
);
},
{
closed = 1;
nodes = (
"233 80 OFFCURVE",
"180 146 OFFCURVE",
"180 240 CURVE SMOOTH",
"180 280 LINE SMOOTH",
"180 374 OFFCURVE",
"233 440 OFFCURVE",
"322 440 CURVE SMOOTH",
"411 440 OFFCURVE",
"462 375 OFFCURVE",
"462 260 CURVE SMOOTH",
"462 145 OFFCURVE",
"411 80 OFFCURVE",
"322 80 CURVE SMOOTH"
);
}
);
width = 605;
},
{
layerId = "9E6B41AB-2970-4C41-8B35-4DBE0D296A43";
paths = (
{
closed = 1;
nodes = (
"543 -10 OFFCURVE",
"618 87 OFFCURVE",
"618 260 CURVE SMOOTH",
"618 433 OFFCURVE",
"543 530 OFFCURVE",
"409 530 CURVE SMOOTH",
"345 530 OFFCURVE",
"300 508 OFFCURVE",
"256 460 CURVE",
"254 460 LINE",
"254 730 LINE",
"58 730 LINE",
"58 0 LINE",
"244 0 LINE",
"246 60 LINE",
"248 60 LINE",
"297 12 OFFCURVE",
"345 -10 OFFCURVE",
"409 -10 CURVE SMOOTH"
);
},
{
closed = 1;
nodes = (
"280 140 OFFCURVE",
"254 177 OFFCURVE",
"254 240 CURVE SMOOTH",
"254 280 LINE SMOOTH",
"254 343 OFFCURVE",
"280 380 OFFCURVE",
"338 380 CURVE SMOOTH",
"398 380 OFFCURVE",
"426 341 OFFCURVE",
"426 260 CURVE SMOOTH",
"426 179 OFFCURVE",
"398 140 OFFCURVE",
"338 140 CURVE SMOOTH"
);
}
);
width = 647;
},
{
associatedMasterId = "D65C9A1E-0FCA-4B2D-8EDF-9F36CA9182A1";
background = {
paths = (
{
closed = 1;
nodes = (
"448 -10 OFFCURVE",
"522 87 OFFCURVE",
"522 260 CURVE SMOOTH",
"522 433 OFFCURVE",
"448 530 OFFCURVE",
"318 530 CURVE SMOOTH",
"237 530 OFFCURVE",
"166 492 OFFCURVE",
"132 430 CURVE",
"130 430 LINE",
"130 730 LINE",
"81 730 LINE",
"81 0 LINE",
"128 0 LINE",
"128 90 LINE",
"130 90 LINE",
"166 28 OFFCURVE",
"237 -10 OFFCURVE",
"318 -10 CURVE SMOOTH"
);
},
{
closed = 1;
nodes = (
"203 33 OFFCURVE",
"130 116 OFFCURVE",
"130 237 CURVE SMOOTH",
"130 283 LINE SMOOTH",
"130 404 OFFCURVE",
"203 487 OFFCURVE",
"310 487 CURVE SMOOTH",
"415 487 OFFCURVE",
"473 407 OFFCURVE",
"473 260 CURVE SMOOTH",
"473 113 OFFCURVE",
"415 33 OFFCURVE",
"310 33 CURVE SMOOTH"
);
}
);
};
layerId = "4577C09C-2268-4FDD-969E-4BC558CAFA0A";
name = "Light {232}";
paths = (
{
closed = 1;
nodes = (
"458 -10 OFFCURVE",
"536 88 OFFCURVE",
"536 260 CURVE SMOOTH",
"536 432 OFFCURVE",
"458 530 OFFCURVE",
"320 530 CURVE SMOOTH",
"237 530 OFFCURVE",
"168 494 OFFCURVE",
"132 430 CURVE",
"130 430 LINE",
"130 730 LINE",
"81 730 LINE",
"81 0 LINE",
"128 0 LINE",
"128 90 LINE",
"130 90 LINE",
"168 26 OFFCURVE",
"236 -10 OFFCURVE",
"320 -10 CURVE SMOOTH"
);
},
{
closed = 1;
nodes = (
"200 33 OFFCURVE",
"130 115 OFFCURVE",
"130 237 CURVE SMOOTH",
"130 283 LINE SMOOTH",
"130 405 OFFCURVE",
"200 487 OFFCURVE",
"311 487 CURVE SMOOTH",
"422 487 OFFCURVE",
"487 404 OFFCURVE",
"487 260 CURVE SMOOTH",
"487 116 OFFCURVE",
"422 33 OFFCURVE",
"311 33 CURVE SMOOTH"
);
}
);
width = 577;
}
);
leftKerningGroup = b;
leftMetricsKey = "=h";
rightKerningGroup = o;
rightMetricsKey = "=o";
unicode = 0062;
},
{
color = 11;
glyphname = c;
lastChange = "2020-12-09 11:53:59 +0000";
layers = (
{
anchors = (
{
name = bottom;
position = "{287, 0}";
},
{
name = bottom_cd;
position = "{297, 0}";
},
{
name = top;
position = "{287, 520}";
}
);
background = {
anchors = (
{
name = bottom;
position = "{279, 0}";
},
{
name = bottom_cd;
position = "{289, 0}";
},
{
name = top;
position = "{279, 520}";
}
);
paths = (
{
closed = 1;
nodes = (
"371 -10 OFFCURVE",
"418 2 OFFCURVE",
"466 27 CURVE",
"446 117 LINE",
"400 91 OFFCURVE",
"362 80 OFFCURVE",
"318 80 CURVE SMOOTH",
"210 80 OFFCURVE",
"146 147 OFFCURVE",
"146 260 CURVE SMOOTH",
"146 373 OFFCURVE",
"210 440 OFFCURVE",
"318 440 CURVE SMOOTH",
"362 440 OFFCURVE",
"400 429 OFFCURVE",
"446 403 CURVE",
"466 493 LINE",
"418 518 OFFCURVE",
"371 530 OFFCURVE",
"311 530 CURVE SMOOTH",
"138 530 OFFCURVE",
"36 430 OFFCURVE",
"36 260 CURVE SMOOTH",
"36 90 OFFCURVE",
"138 -10 OFFCURVE",
"311 -10 CURVE SMOOTH"
);
}
);
};
layerId = "9527F797-22C1-480E-A1FE-2CDBEBE1FD4C";
paths = (
{
closed = 1;
nodes = (
"379 -10 OFFCURVE",
"431 2 OFFCURVE",
"483 27 CURVE",
"464 116 LINE",
"416 91 OFFCURVE",
"372 80 OFFCURVE",
"325 80 CURVE SMOOTH",
"212 80 OFFCURVE",
"146 147 OFFCURVE",
"146 260 CURVE SMOOTH",
"146 374 OFFCURVE",
"212 440 OFFCURVE",
"325 440 CURVE SMOOTH",
"372 440 OFFCURVE",
"416 429 OFFCURVE",
"464 404 CURVE",
"483 493 LINE",
"431 518 OFFCURVE",
"379 530 OFFCURVE",
"317 530 CURVE SMOOTH",
"139 530 OFFCURVE",
"36 430 OFFCURVE",
"36 260 CURVE SMOOTH",
"36 90 OFFCURVE",
"139 -10 OFFCURVE",
"317 -10 CURVE SMOOTH"
);
}
);
width = 541;
},
{
anchors = (
{
name = bottom;
position = "{299, 0}";
},
{
name = bottom_cd;
position = "{314, 0}";
},
{
name = top;
position = "{299, 520}";
}
);
layerId = "9E6B41AB-2970-4C41-8B35-4DBE0D296A43";
paths = (
{
closed = 1;
nodes = (
"400 -10 OFFCURVE",
"458 3 OFFCURVE",
"514 30 CURVE",
"484 170 LINE",
"436 144 OFFCURVE",
"387 130 OFFCURVE",
"344 130 CURVE SMOOTH",
"268 130 OFFCURVE",
"229 174 OFFCURVE",
"229 260 CURVE SMOOTH",
"229 346 OFFCURVE",
"268 390 OFFCURVE",
"344 390 CURVE SMOOTH",
"387 390 OFFCURVE",
"436 376 OFFCURVE",
"484 350 CURVE",
"514 490 LINE",
"458 517 OFFCURVE",
"400 530 OFFCURVE",
"329 530 CURVE SMOOTH",
"135 530 OFFCURVE",
"29 434 OFFCURVE",
"29 260 CURVE SMOOTH",
"29 86 OFFCURVE",
"135 -10 OFFCURVE",
"329 -10 CURVE SMOOTH"
);
}
);
width = 560;
},
{
anchors = (
{
name = bottom;
position = "{264, 0}";
},
{
name = bottom_cd;
position = "{269, 0}";
},
{
name = top;
position = "{264, 520}";
}
);
associatedMasterId = "D65C9A1E-0FCA-4B2D-8EDF-9F36CA9182A1";
layerId = "2467D999-B11C-48EE-AF4D-206CC390C1F4";
name = "Dec 5 20, 13:08";
paths = (
{
closed = 1;
nodes = (
"342 -10 OFFCURVE",
"386 1 OFFCURVE",
"432 25 CURVE",
"423 43 LINE",
"379 20 OFFCURVE",
"339 10 OFFCURVE",
"292 10 CURVE SMOOTH",
"149 10 OFFCURVE",
"62 105 OFFCURVE",
"62 260 CURVE SMOOTH",
"62 415 OFFCURVE",
"149 510 OFFCURVE",
"292 510 CURVE SMOOTH",
"339 510 OFFCURVE",
"379 500 OFFCURVE",
"423 477 CURVE",
"432 495 LINE",
"386 519 OFFCURVE",
"342 530 OFFCURVE",
"292 530 CURVE SMOOTH",
"138 530 OFFCURVE",
"42 426 OFFCURVE",
"42 260 CURVE SMOOTH",
"42 94 OFFCURVE",
"138 -10 OFFCURVE",
"292 -10 CURVE SMOOTH"
);
}
);
width = 500;
},
{
anchors = (
{
name = bottom;
position = "{274, 0}";
},
{
name = bottom_cd;
position = "{279, 0}";
},
{
name = top;
position = "{274, 520}";
}
);
associatedMasterId = "D65C9A1E-0FCA-4B2D-8EDF-9F36CA9182A1";
layerId = "7B8D5E83-5CA2-4CBC-9DB3-648C7D627E39";
name = "Dec 5 20, 13:17";
paths = (
{
closed = 1;
nodes = (
"357 -10 OFFCURVE",
"413 0 OFFCURVE",
"447 15 CURVE",
"439 33 LINE",
"407 19 OFFCURVE",
"354 10 OFFCURVE",
"304 10 CURVE SMOOTH",
"151 10 OFFCURVE",
"67 97 OFFCURVE",
"67 260 CURVE SMOOTH",
"67 423 OFFCURVE",
"151 510 OFFCURVE",
"304 510 CURVE SMOOTH",
"354 510 OFFCURVE",
"407 501 OFFCURVE",
"439 487 CURVE",
"447 505 LINE",
"413 520 OFFCURVE",
"357 530 OFFCURVE",
"304 530 CURVE SMOOTH",
"139 530 OFFCURVE",
"47 433 OFFCURVE",
"47 260 CURVE SMOOTH",
"47 87 OFFCURVE",
"139 -10 OFFCURVE",
"304 -10 CURVE SMOOTH"
);
}
);
width = 520;
},
{
anchors = (
{
name = bottom;
position = "{275, 0}";
},
{
name = bottom_cd;
position = "{280, 0}";
},
{
name = top;
position = "{275, 520}";
}
);
layerId = "D65C9A1E-0FCA-4B2D-8EDF-9F36CA9182A1";
paths = (
{
closed = 1;
nodes = (
"359 -10 OFFCURVE",
"405 1 OFFCURVE",
"453 25 CURVE",
"444 43 LINE",
"399 20 OFFCURVE",
"356 10 OFFCURVE",
"306 10 CURVE SMOOTH",
"155 10 OFFCURVE",
"63 105 OFFCURVE",
"63 260 CURVE SMOOTH",
"63 415 OFFCURVE",
"155 510 OFFCURVE",
"306 510 CURVE SMOOTH",
"356 510 OFFCURVE",
"399 500 OFFCURVE",
"444 477 CURVE",
"453 495 LINE",
"405 519 OFFCURVE",
"359 530 OFFCURVE",
"306 530 CURVE SMOOTH",
"144 530 OFFCURVE",
"43 426 OFFCURVE",
"43 260 CURVE SMOOTH",
"43 94 OFFCURVE",
"144 -10 OFFCURVE",
"306 -10 CURVE SMOOTH"
);
}
);
width = 522;
},
{
anchors = (
{
name = bottom;
position = "{294, 0}";
},
{
name = bottom_cd;
position = "{309, 0}";
},
{
name = top;
position = "{294, 520}";
}
);
associatedMasterId = "9E6B41AB-2970-4C41-8B35-4DBE0D296A43";
layerId = "FB5E5E69-A536-4AF9-92B3-6FC6A0553FA3";
name = "Dec 5 20, 13:18";
paths = (
{
closed = 1;
nodes = (
"397 -10 OFFCURVE",
"450 2 OFFCURVE",
"504 30 CURVE",
"474 170 LINE",
"429 144 OFFCURVE",
"386 130 OFFCURVE",
"344 130 CURVE SMOOTH",
"269 130 OFFCURVE",
"229 175 OFFCURVE",
"229 260 CURVE SMOOTH",
"229 345 OFFCURVE",
"269 390 OFFCURVE",
"344 390 CURVE SMOOTH",
"386 390 OFFCURVE",
"429 376 OFFCURVE",
"474 350 CURVE",
"504 490 LINE",
"450 518 OFFCURVE",
"397 530 OFFCURVE",
"329 530 CURVE SMOOTH",
"137 530 OFFCURVE",
"29 433 OFFCURVE",
"29 260 CURVE SMOOTH",
"29 87 OFFCURVE",
"137 -10 OFFCURVE",
"329 -10 CURVE SMOOTH"
);
}
);
width = 551;
},
{
anchors = (
{
name = bottom;
position = "{279, 0}";
},
{
name = bottom_cd;
position = "{289, 0}";
},
{
name = top;
position = "{279, 520}";
}
);
associatedMasterId = "9527F797-22C1-480E-A1FE-2CDBEBE1FD4C";
layerId = "7DEB314B-B1F3-47A2-BCCB-6815EE3783B9";
name = "Dec 5 20, 13:20";
paths = (
{
closed = 1;
nodes = (
"371 -10 OFFCURVE",
"418 2 OFFCURVE",
"466 27 CURVE",
"446 117 LINE",
"400 91 OFFCURVE",
"362 80 OFFCURVE",
"318 80 CURVE SMOOTH",
"210 80 OFFCURVE",
"146 147 OFFCURVE",
"146 260 CURVE SMOOTH",
"146 373 OFFCURVE",
"210 440 OFFCURVE",
"318 440 CURVE SMOOTH",
"362 440 OFFCURVE",
"400 429 OFFCURVE",
"446 403 CURVE",
"466 493 LINE",
"418 518 OFFCURVE",
"371 530 OFFCURVE",
"311 530 CURVE SMOOTH",
"138 530 OFFCURVE",
"36 430 OFFCURVE",
"36 260 CURVE SMOOTH",
"36 90 OFFCURVE",
"138 -10 OFFCURVE",
"311 -10 CURVE SMOOTH"
);
}
);
width = 524;
}
);
leftKerningGroup = o;
leftMetricsKey = "=o";
rightKerningGroup = c;
rightMetricsKey = "=h";
unicode = 0063;
},
{
color = 11;
glyphname = eth;
lastChange = "2020-12-09 11:55:50 +0000";
layers = (
{
layerId = "D65C9A1E-0FCA-4B2D-8EDF-9F36CA9182A1";
rightMetricsKey = "=d*.3";
paths = (
{
closed = 1;
nodes = (
"423 -10 OFFCURVE",
"513 84 OFFCURVE",
"513 235 CURVE SMOOTH",
"513 445 OFFCURVE",
"334 735 OFFCURVE",
"170 790 CURVE",
"163 772 LINE",
"279 733 OFFCURVE",
"407 566 OFFCURVE",
"464 399 CURVE",
"462 398 LINE",
"421 451 OFFCURVE",
"358 480 OFFCURVE",
"278 480 CURVE SMOOTH",
"133 480 OFFCURVE",
"43 386 OFFCURVE",
"43 235 CURVE SMOOTH",
"43 84 OFFCURVE",
"133 -10 OFFCURVE",
"278 -10 CURVE SMOOTH"
);
},
{
closed = 1;
nodes = (
"144 10 OFFCURVE",
"63 95 OFFCURVE",
"63 235 CURVE SMOOTH",
"63 375 OFFCURVE",
"144 460 OFFCURVE",
"278 460 CURVE SMOOTH",
"412 460 OFFCURVE",
"493 375 OFFCURVE",
"493 235 CURVE SMOOTH",
"493 95 OFFCURVE",
"412 10 OFFCURVE",
"278 10 CURVE SMOOTH"
);
},
{
closed = 1;
nodes = (
"544 697 LINE",
"536 715 LINE",
"96 540 LINE",
"104 522 LINE"
);
}
);
width = 570;
},
{
layerId = "9527F797-22C1-480E-A1FE-2CDBEBE1FD4C";
rightMetricsKey = "=d*.5";
paths = (
{
closed = 1;
nodes = (
"455 -10 OFFCURVE",
"546 88 OFFCURVE",
"546 263 CURVE SMOOTH",
"546 544 OFFCURVE",
"381 758 OFFCURVE",
"141 790 CURVE",
"121 700 LINE",
"259 681 OFFCURVE",
"372 579 OFFCURVE",
"415 435 CURVE",
"413 434 LINE",
"380 465 OFFCURVE",
"335 480 OFFCURVE",
"276 480 CURVE SMOOTH",
"127 480 OFFCURVE",
"36 391 OFFCURVE",
"36 243 CURVE SMOOTH",
"36 84 OFFCURVE",
"131 -10 OFFCURVE",
"291 -10 CURVE SMOOTH"
);
},
{
closed = 1;
nodes = (
"198 80 OFFCURVE",
"144 140 OFFCURVE",
"144 243 CURVE SMOOTH",
"144 341 OFFCURVE",
"193 390 OFFCURVE",
"291 390 CURVE SMOOTH",
"389 390 OFFCURVE",
"438 341 OFFCURVE",
"438 243 CURVE SMOOTH",
"438 140 OFFCURVE",
"384 80 OFFCURVE",
"291 80 CURVE SMOOTH"
);
},
{
closed = 1;
nodes = (
"556 665 LINE",
"520 749 LINE",
"80 574 LINE",
"116 490 LINE"
);
}
);
width = 592;
},
{
layerId = "9E6B41AB-2970-4C41-8B35-4DBE0D296A43";
rightMetricsKey = "=d*.7";
paths = (
{
closed = 1;
nodes = (
"490 -10 OFFCURVE",
"579 84 OFFCURVE",
"579 280 CURVE SMOOTH",
"579 601 OFFCURVE",
"421 776 OFFCURVE",
"119 790 CURVE",
"79 660 LINE",
"243 652 OFFCURVE",
"360 575 OFFCURVE",
"366 471 CURVE",
"364 470 LINE",
"340 476 OFFCURVE",
"308 480 OFFCURVE",
"274 480 CURVE SMOOTH",
"118 480 OFFCURVE",
"29 397 OFFCURVE",
"29 250 CURVE SMOOTH",
"29 89 OFFCURVE",
"133 -10 OFFCURVE",
"304 -10 CURVE SMOOTH"
);
},
{
closed = 1;
nodes = (
"248 125 OFFCURVE",
"223 163 OFFCURVE",
"223 250 CURVE SMOOTH",
"223 337 OFFCURVE",
"248 375 OFFCURVE",
"304 375 CURVE SMOOTH",
"360 375 OFFCURVE",
"385 337 OFFCURVE",
"385 250 CURVE SMOOTH",
"385 163 OFFCURVE",
"360 125 OFFCURVE",
"304 125 CURVE SMOOTH"
);
},
{
closed = 1;
nodes = (
"564 643 LINE",
"509 773 LINE",
"69 598 LINE",
"124 468 LINE"
);
}
);
width = 620;
},
{
associatedMasterId = "D65C9A1E-0FCA-4B2D-8EDF-9F36CA9182A1";
layerId = "7EB7DD1D-0E67-4B53-AED1-36A39ED50BF4";
rightMetricsKey = "=d*.3";
name = "Light {232}";
paths = (
{
closed = 1;
nodes = (
"434 -10 OFFCURVE",
"524 85 OFFCURVE",
"524 244 CURVE SMOOTH",
"524 478 OFFCURVE",
"350 743 OFFCURVE",
"160 790 CURVE",
"145 749 LINE",
"267 720 OFFCURVE",
"390 578 OFFCURVE",
"445 423 CURVE",
"443 422 LINE",
"404 459 OFFCURVE",
"348 480 OFFCURVE",
"277 480 CURVE SMOOTH",
"131 480 OFFCURVE",
"41 388 OFFCURVE",
"41 238 CURVE SMOOTH",
"41 84 OFFCURVE",
"132 -10 OFFCURVE",
"282 -10 CURVE SMOOTH"
);
},
{
closed = 1;
nodes = (
"162 33 OFFCURVE",
"90 110 OFFCURVE",
"90 238 CURVE SMOOTH",
"90 364 OFFCURVE",
"160 437 OFFCURVE",
"282 437 CURVE SMOOTH",
"404 437 OFFCURVE",
"475 364 OFFCURVE",
"475 238 CURVE SMOOTH",
"475 110 OFFCURVE",
"403 33 OFFCURVE",
"282 33 CURVE SMOOTH"
);
},
{
closed = 1;
nodes = (
"548 686 LINE",
"531 726 LINE",
"91 551 LINE",
"108 511 LINE"
);
}
);
width = 572;
}
);
leftKerningGroup = o;
leftMetricsKey = "=o";
rightKerningGroup = o;
rightMetricsKey = "=d*.6";
unicode = 00F0;
},
{
color = 11;
glyphname = dcroat;
lastChange = "2020-12-10 02:24:19 +0000";
layers = (
{
components = (
{
name = d;
}
);
layerId = "D65C9A1E-0FCA-4B2D-8EDF-9F36CA9182A1";
paths = (
{
closed = 1;
nodes = (
"587 605 LINE",
"587 625 LINE",
"167 625 LINE",
"167 605 LINE"
);
}
);
width = 617;
},
{
components = (
{
alignment = -1;
name = d;
}
);
layerId = "9527F797-22C1-480E-A1FE-2CDBEBE1FD4C";
paths = (
{
closed = 1;
nodes = (
"633 570 LINE",
"633 660 LINE",
"213 660 LINE",
"213 570 LINE"
);
}
);
width = 661;
},
{
components = (
{
name = d;
}
);
layerId = "9E6B41AB-2970-4C41-8B35-4DBE0D296A43";
paths = (
{
closed = 1;
nodes = (
"679 545 LINE",
"679 685 LINE",
"259 685 LINE",
"259 545 LINE"
);
}
);
width = 707;
}
);
leftKerningGroup = o;
leftMetricsKey = "=d";
rightKerningGroup = W;
rightMetricsKey = "=W";
unicode = 0111;
},
{
color = 11;
glyphname = e;
lastChange = "2020-12-09 11:53:59 +0000";
layers = (
{
anchors = (
{
name = bottom;
position = "{264, 0}";
},
{
name = ogonek;
position = "{463, 30}";
},
{
name = top;
position = "{264, 520}";
}
);
layerId = "D65C9A1E-0FCA-4B2D-8EDF-9F36CA9182A1";
paths = (
{
closed = 1;
nodes = (
"349 -10 OFFCURVE",
"412 4 OFFCURVE",
"463 30 CURVE",
"454 48 LINE",
"407 24 OFFCURVE",
"347 10 OFFCURVE",
"289 10 CURVE SMOOTH",
"143 10 OFFCURVE",
"63 97 OFFCURVE",
"63 260 CURVE",
"63 260 LINE",
"63 419 OFFCURVE",
"140 510 OFFCURVE",
"273 510 CURVE SMOOTH",
"397 510 OFFCURVE",
"463 427 OFFCURVE",
"463 268 CURVE",
"473 278 LINE",
"53 278 LINE",
"53 258 LINE",
"483 258 LINE",
"483 263 OFFCURVE",
"483 263 OFFCURVE",
"483 268 CURVE SMOOTH",
"483 437 OFFCURVE",
"409 530 OFFCURVE",
"273 530 CURVE SMOOTH",
"128 530 OFFCURVE",
"43 429 OFFCURVE",
"43 260 CURVE SMOOTH",
"43 87 OFFCURVE",
"131 -10 OFFCURVE",
"289 -10 CURVE SMOOTH"
);
}
);
width = 524;
},
{
anchors = (
{
name = bottom;
position = "{281, 0}";
},
{
name = ogonek;
position = "{496, 24}";
},
{
name = top;
position = "{281, 520}";
}
);
background = {
anchors = (
{
name = bottom;
position = "{281, 0}";
},
{
name = ogonek;
position = "{496, 24}";
},
{
name = top;
position = "{281, 520}";
}
);
paths = (
{
closed = 1;
nodes = (
"378 -10 OFFCURVE",
"447 3 OFFCURVE",
"496 24 CURVE",
"481 113 LINE",
"434 93 OFFCURVE",
"367 80 OFFCURVE",
"310 80 CURVE SMOOTH",
"198 80 OFFCURVE",
"142 134 OFFCURVE",
"142 240 CURVE",
"142 270 LINE",
"142 393 OFFCURVE",
"192 458 OFFCURVE",
"286 458 CURVE SMOOTH",
"375 458 OFFCURVE",
"420 397 OFFCURVE",
"420 274 CURVE",
"436 297 LINE",
"96 297 LINE",
"96 229 LINE",
"519 229 LINE",
"520 237 OFFCURVE",
"521 255 OFFCURVE",
"521 269 CURVE SMOOTH",
"521 436 OFFCURVE",
"436 530 OFFCURVE",
"286 530 CURVE SMOOTH",
"129 530 OFFCURVE",
"36 429 OFFCURVE",
"36 260 CURVE SMOOTH",
"36 87 OFFCURVE",
"135 -10 OFFCURVE",
"314 -10 CURVE SMOOTH"
);
}
);
};
layerId = "9527F797-22C1-480E-A1FE-2CDBEBE1FD4C";
paths = (
{
closed = 1;
nodes = (
"378 -10 OFFCURVE",
"447 3 OFFCURVE",
"496 24 CURVE",
"481 113 LINE",
"434 93 OFFCURVE",
"367 80 OFFCURVE",
"310 80 CURVE SMOOTH",
"198 80 OFFCURVE",
"142 134 OFFCURVE",
"142 240 CURVE SMOOTH",
"142 270 LINE",
"142 383 OFFCURVE",
"191 442 OFFCURVE",
"283 442 CURVE SMOOTH",
"374 442 OFFCURVE",
"420 385 OFFCURVE",
"420 270 CURVE",
"436 300 LINE",
"96 300 LINE",
"96 215 LINE",
"519 215 LINE",
"520 223 OFFCURVE",
"521 248 OFFCURVE",
"521 265 CURVE SMOOTH",
"521 434 OFFCURVE",
"435 530 OFFCURVE",
"283 530 CURVE SMOOTH",
"129 530 OFFCURVE",
"36 429 OFFCURVE",
"36 260 CURVE SMOOTH",
"36 87 OFFCURVE",
"135 -10 OFFCURVE",
"314 -10 CURVE SMOOTH"
);
}
);
width = 555;
},
{
anchors = (
{
name = bottom;
position = "{299, 0}";
},
{
name = ogonek;
position = "{529, 18}";
},
{
name = top;
position = "{299, 520}";
}
);
layerId = "9E6B41AB-2970-4C41-8B35-4DBE0D296A43";
paths = (
{
closed = 1;
nodes = (
"408 -10 OFFCURVE",
"482 1 OFFCURVE",
"529 18 CURVE",
"509 158 LINE",
"462 142 OFFCURVE",
"388 130 OFFCURVE",
"331 130 CURVE SMOOTH",
"253 130 OFFCURVE",
"221 156 OFFCURVE",
"221 220 CURVE SMOOTH",
"221 280 LINE SMOOTH",
"221 367 OFFCURVE",
"245 405 OFFCURVE",
"299 405 CURVE SMOOTH",
"353 405 OFFCURVE",
"377 367 OFFCURVE",
"377 280 CURVE",
"400 315 LINE",
"139 315 LINE",
"139 200 LINE",
"555 200 LINE",
"557 211 OFFCURVE",
"559 246 OFFCURVE",
"559 270 CURVE SMOOTH",
"559 434 OFFCURVE",
"463 530 OFFCURVE",
"299 530 CURVE SMOOTH",
"131 530 OFFCURVE",
"29 428 OFFCURVE",
"29 260 CURVE SMOOTH",
"29 86 OFFCURVE",
"139 -10 OFFCURVE",
"339 -10 CURVE SMOOTH"
);
}
);
width = 587;
}
);
leftKerningGroup = o;
leftMetricsKey = "=o";
rightKerningGroup = o;
rightMetricsKey = "=o*.95";
unicode = 0065;
},
{
color = 11;
glyphname = f;
lastChange = "2020-12-09 11:55:01 +0000";
layers = (
{
background = {
paths = (
{
closed = 1;
nodes = (
"269 0 LINE",
"269 430 LINE",
"431 430 LINE",
"431 520 LINE",
"269 520 LINE",
"269 585 LINE",
"269 651 OFFCURVE",
"292 677 OFFCURVE",
"350 677 CURVE",
"373 677 OFFCURVE",
"390 673 OFFCURVE",
"420 663 CURVE SMOOTH",
"435 755 LINE SMOOTH",
"402 765 OFFCURVE",
"366 770 OFFCURVE",
"333 770 CURVE",
"218 770 OFFCURVE",
"160 708 OFFCURVE",
"160 585 CURVE",
"160 520 LINE",
"22 520 LINE",
"22 430 LINE",
"160 430 LINE",
"160 0 LINE"
);
}
);
};
layerId = "9527F797-22C1-480E-A1FE-2CDBEBE1FD4C";
paths = (
{
closed = 1;
nodes = (
"278 0 LINE",
"278 430 LINE",
"452 430 LINE",
"452 520 LINE",
"278 520 LINE",
"278 585 LINE SMOOTH",
"278 652 OFFCURVE",
"302 677 OFFCURVE",
"367 677 CURVE SMOOTH",
"393 677 OFFCURVE",
"415 673 OFFCURVE",
"442 665 CURVE",
"456 755 LINE",
"418 766 OFFCURVE",
"382 770 OFFCURVE",
"350 770 CURVE SMOOTH",
"230 770 OFFCURVE",
"169 708 OFFCURVE",
"169 585 CURVE SMOOTH",
"169 520 LINE",
"22 520 LINE",
"22 430 LINE",
"169 430 LINE",
"169 0 LINE"
);
}
);
width = 478;
},
{
layerId = "9E6B41AB-2970-4C41-8B35-4DBE0D296A43";
paths = (
{
closed = 1;
nodes = (
"335 0 LINE",
"335 380 LINE",
"480 380 LINE",
"480 520 LINE",
"335 520 LINE",
"335 550 LINE",
"335 605 OFFCURVE",
"347 620 OFFCURVE",
"390 620 CURVE",
"412 620 OFFCURVE",
"438 616 OFFCURVE",
"465 610 CURVE SMOOTH",
"485 755 LINE SMOOTH",
"439 765 OFFCURVE",
"391 770 OFFCURVE",
"355 770 CURVE",
"213 770 OFFCURVE",
"137 693 OFFCURVE",
"137 550 CURVE",
"137 520 LINE",
"17 520 LINE",
"17 380 LINE",
"137 380 LINE",
"137 0 LINE"
);
}
);
width = 502;
},
{
layerId = "D65C9A1E-0FCA-4B2D-8EDF-9F36CA9182A1";
paths = (
{
closed = 1;
nodes = (
"220 0 LINE",
"220 500 LINE",
"424 500 LINE",
"424 520 LINE",
"220 520 LINE",
"220 620 LINE SMOOTH",
"220 711 OFFCURVE",
"257 750 OFFCURVE",
"344 750 CURVE SMOOTH",
"371 750 OFFCURVE",
"392 746 OFFCURVE",
"419 736 CURVE",
"426 755 LINE",
"396 766 OFFCURVE",
"372 770 OFFCURVE",
"344 770 CURVE SMOOTH",
"246 770 OFFCURVE",
"200 722 OFFCURVE",
"200 620 CURVE SMOOTH",
"200 520 LINE",
"26 520 LINE",
"26 500 LINE",
"200 500 LINE",
"200 0 LINE"
);
}
);
width = 452;
}
);
leftKerningGroup = f;
leftMetricsKey = "=h*.3";
rightKerningGroup = f;
rightMetricsKey = "=d*.3";
unicode = 0066;
},
{
color = 11;
glyphname = g;
lastChange = "2020-12-09 11:55:01 +0000";
layers = (
{
anchors = (
{
name = bottom;
position = "{282, -140}";
},
{
name = top;
position = "{282, 520}";
}
);
layerId = "D65C9A1E-0FCA-4B2D-8EDF-9F36CA9182A1";
paths = (
{
closed = 1;
nodes = (
"410 -220 OFFCURVE",
"477 -141 OFFCURVE",
"477 40 CURVE SMOOTH",
"477 520 LINE",
"457 520 LINE",
"457 408 LINE",
"455 408 LINE",
"420 484 OFFCURVE",
"349 530 OFFCURVE",
"257 530 CURVE SMOOTH",
"123 530 OFFCURVE",
"43 435 OFFCURVE",
"43 275 CURVE SMOOTH",
"43 115 OFFCURVE",
"123 20 OFFCURVE",
"257 20 CURVE SMOOTH",
"349 20 OFFCURVE",
"420 66 OFFCURVE",
"455 142 CURVE",
"457 142 LINE",
"457 40 LINE SMOOTH",
"457 -130 OFFCURVE",
"398 -200 OFFCURVE",
"258 -200 CURVE SMOOTH",
"192 -200 OFFCURVE",
"127 -184 OFFCURVE",
"70 -154 CURVE",
"61 -172 LINE",
"120 -203 OFFCURVE",
"188 -220 OFFCURVE",
"258 -220 CURVE SMOOTH"
);
},
{
closed = 1;
nodes = (
"134 40 OFFCURVE",
"63 126 OFFCURVE",
"63 275 CURVE SMOOTH",
"63 424 OFFCURVE",
"134 510 OFFCURVE",
"257 510 CURVE SMOOTH",
"379 510 OFFCURVE",
"457 426 OFFCURVE",
"457 300 CURVE SMOOTH",
"457 250 LINE SMOOTH",
"457 124 OFFCURVE",
"379 40 OFFCURVE",
"257 40 CURVE SMOOTH"
);
}
);
width = 563;
},
{
anchors = (
{
name = bottom;
position = "{289, -140}";
},
{
name = top;
position = "{289, 520}";
}
);
layerId = "9527F797-22C1-480E-A1FE-2CDBEBE1FD4C";
paths = (
{
closed = 1;
nodes = (
"447 -220 OFFCURVE",
"533 -129 OFFCURVE",
"533 55 CURVE SMOOTH",
"533 520 LINE",
"430 520 LINE",
"429 452 LINE",
"427 452 LINE",
"382 505 OFFCURVE",
"328 530 OFFCURVE",
"256 530 CURVE SMOOTH",
"116 530 OFFCURVE",
"36 437 OFFCURVE",
"36 275 CURVE SMOOTH",
"36 113 OFFCURVE",
"116 20 OFFCURVE",
"256 20 CURVE SMOOTH",
"328 20 OFFCURVE",
"381 45 OFFCURVE",
"423 98 CURVE",
"425 98 LINE",
"425 55 LINE SMOOTH",
"425 -74 OFFCURVE",
"376 -130 OFFCURVE",
"263 -130 CURVE SMOOTH",
"203 -130 OFFCURVE",
"134 -115 OFFCURVE",
"76 -89 CURVE",
"61 -179 LINE",
"118 -204 OFFCURVE",
"200 -220 OFFCURVE",
"273 -220 CURVE SMOOTH"
);
},
{
closed = 1;
nodes = (
"193 110 OFFCURVE",
"143 169 OFFCURVE",
"143 275 CURVE SMOOTH",
"143 381 OFFCURVE",
"193 440 OFFCURVE",
"283 440 CURVE SMOOTH",
"370 440 OFFCURVE",
"425 383 OFFCURVE",
"425 295 CURVE SMOOTH",
"425 255 LINE SMOOTH",
"425 167 OFFCURVE",
"370 110 OFFCURVE",
"283 110 CURVE SMOOTH"
);
}
);
width = 605;
},
{
anchors = (
{
name = bottom;
position = "{324, -140}";
},
{
name = top;
position = "{324, 520}";
}
);
layerId = "9E6B41AB-2970-4C41-8B35-4DBE0D296A43";
paths = (
{
closed = 1;
nodes = (
"480 -220 OFFCURVE",
"589 -116 OFFCURVE",
"589 70 CURVE SMOOTH",
"589 520 LINE",
"403 520 LINE",
"401 460 LINE",
"399 460 LINE",
"350 508 OFFCURVE",
"299 530 OFFCURVE",
"238 530 CURVE SMOOTH",
"103 530 OFFCURVE",
"29 440 OFFCURVE",
"29 275 CURVE SMOOTH",
"29 110 OFFCURVE",
"103 20 OFFCURVE",
"238 20 CURVE SMOOTH",
"299 20 OFFCURVE",
"347 42 OFFCURVE",
"391 90 CURVE",
"393 90 LINE",
"393 70 LINE SMOOTH",
"393 -33 OFFCURVE",
"354 -80 OFFCURVE",
"268 -80 CURVE SMOOTH",
"223 -80 OFFCURVE",
"152 -67 OFFCURVE",
"81 -46 CURVE",
"61 -186 LINE",
"130 -207 OFFCURVE",
"218 -220 OFFCURVE",
"287 -220 CURVE SMOOTH"
);
},
{
closed = 1;
nodes = (
"253 170 OFFCURVE",
"221 208 OFFCURVE",
"221 275 CURVE SMOOTH",
"221 342 OFFCURVE",
"253 380 OFFCURVE",
"309 380 CURVE SMOOTH",
"361 380 OFFCURVE",
"393 348 OFFCURVE",
"393 295 CURVE SMOOTH",
"393 255 LINE SMOOTH",
"393 202 OFFCURVE",
"361 170 OFFCURVE",
"309 170 CURVE SMOOTH"
);
}
);
width = 647;
},
{
anchors = (
{
name = bottom;
position = "{285, -140}";
},
{
name = top;
position = "{285, 520}";
}
);
associatedMasterId = "D65C9A1E-0FCA-4B2D-8EDF-9F36CA9182A1";
background = {
anchors = (
{
name = bottom;
position = "{282, -140}";
},
{
name = top;
position = "{282, 520}";
}
);
paths = (
{
closed = 1;
nodes = (
"419 -220 OFFCURVE",
"496 -133 OFFCURVE",
"496 45 CURVE SMOOTH",
"496 520 LINE",
"449 520 LINE",
"449 430 LINE",
"447 430 LINE",
"410 494 OFFCURVE",
"343 530 OFFCURVE",
"259 530 CURVE SMOOTH",
"129 530 OFFCURVE",
"55 437 OFFCURVE",
"55 275 CURVE SMOOTH",
"55 113 OFFCURVE",
"129 20 OFFCURVE",
"259 20 CURVE SMOOTH",
"343 20 OFFCURVE",
"408 56 OFFCURVE",
"445 120 CURVE",
"447 120 LINE",
"447 45 LINE SMOOTH",
"447 -108 OFFCURVE",
"388 -177 OFFCURVE",
"260 -177 CURVE SMOOTH",
"193 -177 OFFCURVE",
"132 -158 OFFCURVE",
"85 -125 CURVE",
"71 -164 LINE",
"119 -200 OFFCURVE",
"189 -220 OFFCURVE",
"263 -220 CURVE SMOOTH"
);
},
{
closed = 1;
nodes = (
"161 63 OFFCURVE",
"104 138 OFFCURVE",
"104 275 CURVE SMOOTH",
"104 412 OFFCURVE",
"161 487 OFFCURVE",
"267 487 CURVE SMOOTH",
"374 487 OFFCURVE",
"447 411 OFFCURVE",
"447 298 CURVE SMOOTH",
"447 252 LINE SMOOTH",
"447 139 OFFCURVE",
"374 63 OFFCURVE",
"267 63 CURVE SMOOTH"
);
}
);
};
layerId = "2CB2E316-DF26-4020-8926-4C268D4E13F3";
name = "Light {232}";
paths = (
{
closed = 1;
nodes = (
"423 -220 OFFCURVE",
"496 -137 OFFCURVE",
"496 45 CURVE SMOOTH",
"496 520 LINE",
"448 520 LINE",
"448 435 LINE",
"446 435 LINE",
"407 496 OFFCURVE",
"340 530 OFFCURVE",
"257 530 CURVE SMOOTH",
"120 530 OFFCURVE",
"41 436 OFFCURVE",
"41 275 CURVE SMOOTH",
"41 114 OFFCURVE",
"120 20 OFFCURVE",
"257 20 CURVE SMOOTH",
"339 20 OFFCURVE",
"406 54 OFFCURVE",
"445 115 CURVE",
"447 115 LINE",
"447 45 LINE SMOOTH",
"447 -112 OFFCURVE",
"391 -177 OFFCURVE",
"260 -177 CURVE SMOOTH",
"196 -177 OFFCURVE",
"130 -161 OFFCURVE",
"72 -133 CURVE",
"61 -174 LINE",
"120 -203 OFFCURVE",
"192 -220 OFFCURVE",
"263 -220 CURVE SMOOTH"
);
},
{
closed = 1;
nodes = (
"154 63 OFFCURVE",
"90 140 OFFCURVE",
"90 275 CURVE SMOOTH",
"90 410 OFFCURVE",
"154 487 OFFCURVE",
"266 487 CURVE SMOOTH",
"376 487 OFFCURVE",
"447 412 OFFCURVE",
"447 298 CURVE SMOOTH",
"447 252 LINE SMOOTH",
"447 138 OFFCURVE",
"376 63 OFFCURVE",
"266 63 CURVE SMOOTH"
);
}
);
width = 577;
}
);
leftKerningGroup = o;
leftMetricsKey = "=d";
rightKerningGroup = g;
rightMetricsKey = "=u";
unicode = 0067;
},
{
color = 11;
glyphname = h;
lastChange = "2020-12-09 11:53:59 +0000";
layers = (
{
anchors = (
{
name = bottom;
position = "{271, 0}";
},
{
name = center;
position = "{271, 430}";
},
{
name = top;
position = "{271, 730}";
}
);
layerId = "D65C9A1E-0FCA-4B2D-8EDF-9F36CA9182A1";
paths = (
{
closed = 1;
nodes = (
"106 0 LINE",
"106 290 LINE SMOOTH",
"106 412 OFFCURVE",
"202 510 OFFCURVE",
"320 510 CURVE SMOOTH",
"416 510 OFFCURVE",
"466 445 OFFCURVE",
"466 320 CURVE SMOOTH",
"466 0 LINE",
"486 0 LINE",
"486 320 LINE SMOOTH",
"486 455 OFFCURVE",
"428 530 OFFCURVE",
"320 530 CURVE SMOOTH",
"226 530 OFFCURVE",
"145 472 OFFCURVE",
"108 388 CURVE",
"106 388 LINE",
"106 730 LINE",
"86 730 LINE",
"86 0 LINE"
);
}
);
width = 555;
},
{
anchors = (
{
name = bottom;
position = "{290, 0}";
},
{
name = center;
position = "{290, 430}";
},
{
name = top;
position = "{290, 730}";
}
);
layerId = "9527F797-22C1-480E-A1FE-2CDBEBE1FD4C";
paths = (
{
closed = 1;
nodes = (
"180 0 LINE",
"180 265 LINE SMOOTH",
"180 355 OFFCURVE",
"256 440 OFFCURVE",
"337 440 CURVE SMOOTH",
"396 440 OFFCURVE",
"424 395 OFFCURVE",
"424 300 CURVE SMOOTH",
"424 0 LINE",
"532 0 LINE",
"532 320 LINE SMOOTH",
"532 464 OFFCURVE",
"480 530 OFFCURVE",
"367 530 CURVE SMOOTH",
"290 530 OFFCURVE",
"223 499 OFFCURVE",
"182 444 CURVE",
"180 444 LINE",
"180 730 LINE",
"72 730 LINE",
"72 0 LINE"
);
}
);
width = 590;
},
{
anchors = (
{
name = bottom;
position = "{309, 0}";
},
{
name = center;
position = "{309, 430}";
},
{
name = top;
position = "{309, 730}";
}
);
layerId = "9E6B41AB-2970-4C41-8B35-4DBE0D296A43";
paths = (
{
closed = 1;
nodes = (
"254 0 LINE",
"254 300 LINE SMOOTH",
"254 341 OFFCURVE",
"286 370 OFFCURVE",
"328 370 CURVE SMOOTH",
"367 370 OFFCURVE",
"382 345 OFFCURVE",
"382 280 CURVE SMOOTH",
"382 0 LINE",
"578 0 LINE",
"578 320 LINE SMOOTH",
"578 467 OFFCURVE",
"527 530 OFFCURVE",
"408 530 CURVE SMOOTH",
"344 530 OFFCURVE",
"301 510 OFFCURVE",
"256 460 CURVE",
"254 460 LINE",
"254 730 LINE",
"58 730 LINE",
"58 0 LINE"
);
}
);
width = 624;
},
{
anchors = (
{
name = bottom;
position = "{277, 0}";
},
{
name = center;
position = "{277, 430}";
},
{
name = top;
position = "{277, 730}";
}
);
associatedMasterId = "D65C9A1E-0FCA-4B2D-8EDF-9F36CA9182A1";
layerId = "02FE662A-EEF6-4625-B8CE-6C497DD97EB0";
name = "Light {232}";
paths = (
{
closed = 1;
nodes = (
"130 0 LINE",
"130 282 LINE SMOOTH",
"130 393 OFFCURVE",
"219 487 OFFCURVE",
"325 487 CURVE SMOOTH",
"409 487 OFFCURVE",
"451 429 OFFCURVE",
"451 313 CURVE SMOOTH",
"451 0 LINE",
"501 0 LINE",
"501 320 LINE SMOOTH",
"501 458 OFFCURVE",
"444 530 OFFCURVE",
"335 530 CURVE SMOOTH",
"251 530 OFFCURVE",
"170 487 OFFCURVE",
"132 421 CURVE",
"131 421 LINE",
"130 730 LINE",
"81 730 LINE",
"81 0 LINE"
);
}
);
width = 566;
}
);
leftKerningGroup = b;
leftMetricsKey = "=H*.9";
rightKerningGroup = h;
rightMetricsKey = "=|*.8";
unicode = 0068;
},
{
color = 11;
glyphname = hbar;
lastChange = "2020-12-10 02:24:23 +0000";
layers = (
{
anchors = (
{
name = bottom;
position = "{335, 0}";
},
{
name = center;
position = "{335, 430}";
},
{
name = top;
position = "{335, 750}";
}
);
components = (
{
name = h;
transform = "{1, 0, 0, 1, 65, 0}";
}
);
layerId = "D65C9A1E-0FCA-4B2D-8EDF-9F36CA9182A1";
paths = (
{
closed = 1;
nodes = (
"450 625 LINE",
"30 625 LINE",
"30 605 LINE",
"450 605 LINE"
);
}
);
width = 620;
},
{
anchors = (
{
name = bottom;
position = "{356, 0}";
},
{
name = center;
position = "{356, 430}";
},
{
name = top;
position = "{356, 750}";
}
);
components = (
{
alignment = -1;
name = h;
transform = "{1, 0, 0, 1, 66, 0}";
}
);
layerId = "9527F797-22C1-480E-A1FE-2CDBEBE1FD4C";
paths = (
{
closed = 1;
nodes = (
"448 660 LINE",
"28 660 LINE",
"28 570 LINE",
"448 570 LINE"
);
}
);
width = 656;
},
{
anchors = (
{
name = bottom;
position = "{379, 0}";
},
{
name = center;
position = "{379, 430}";
},
{
name = top;
position = "{379, 750}";
}
);
components = (
{
name = h;
transform = "{1, 0, 0, 1, 69, 0}";
}
);
layerId = "9E6B41AB-2970-4C41-8B35-4DBE0D296A43";
paths = (
{
closed = 1;
nodes = (
"448 685 LINE",
"28 685 LINE",
"28 545 LINE",
"448 545 LINE"
);
}
);
width = 693;
}
);
leftKerningGroup = W;
leftMetricsKey = "=W";
rightKerningGroup = h;
rightMetricsKey = "=h";
unicode = 0127;
},
{
color = 11;
glyphname = i;
lastChange = "2020-12-09 11:53:59 +0000";
layers = (
{
layerId = "9527F797-22C1-480E-A1FE-2CDBEBE1FD4C";
paths = (
{
closed = 1;
nodes = (
"189 620 LINE",
"189 730 LINE",
"79 730 LINE",
"79 620 LINE"
);
},
{
closed = 1;
nodes = (
"189 0 LINE",
"189 520 LINE",
"79 520 LINE",
"79 0 LINE"
);
}
);
width = 268;
},
{
layerId = "9E6B41AB-2970-4C41-8B35-4DBE0D296A43";
paths = (
{
closed = 1;
nodes = (
"264 570 LINE",
"264 730 LINE",
"64 730 LINE",
"64 570 LINE"
);
},
{
closed = 1;
nodes = (
"264 0 LINE",
"264 500 LINE",
"64 500 LINE",
"64 0 LINE"
);
}
);
width = 328;
},
{
layerId = "D65C9A1E-0FCA-4B2D-8EDF-9F36CA9182A1";
paths = (
{
closed = 1;
nodes = (
"155 670 LINE",
"155 730 LINE",
"95 730 LINE",
"95 670 LINE"
);
},
{
closed = 1;
nodes = (
"135 0 LINE",
"135 520 LINE",
"115 520 LINE",
"115 0 LINE"
);
}
);
width = 250;
}
);
leftKerningGroup = l;
leftMetricsKey = "=l";
rightKerningGroup = l;
rightMetricsKey = "=|";
unicode = 0069;
},
{
color = 11;
glyphname = idotless;
lastChange = "2020-12-09 11:53:59 +0000";
layers = (
{
anchors = (
{
name = bottom;
position = "{105, 0}";
},
{
name = ogonek;
position = "{115, 0}";
},
{
name = top;
position = "{105, 520}";
}
);
layerId = "D65C9A1E-0FCA-4B2D-8EDF-9F36CA9182A1";
paths = (
{
closed = 1;
nodes = (
"115 0 LINE",
"115 520 LINE",
"95 520 LINE",
"95 0 LINE"
);
}
);
width = 210;
},
{
anchors = (
{
name = bottom;
position = "{134, 0}";
},
{
name = ogonek;
position = "{189, 0}";
},
{
name = top;
position = "{134, 520}";
}
);
layerId = "9527F797-22C1-480E-A1FE-2CDBEBE1FD4C";
paths = (
{
closed = 1;
nodes = (
"189 0 LINE",
"189 520 LINE",
"79 520 LINE",
"79 0 LINE"
);
}
);
width = 268;
},
{
anchors = (
{
name = bottom;
position = "{164, 0}";
},
{
name = ogonek;
position = "{264, 0}";
},
{
name = top;
position = "{164, 520}";
}
);
layerId = "9E6B41AB-2970-4C41-8B35-4DBE0D296A43";
paths = (
{
closed = 1;
nodes = (
"264 0 LINE",
"264 520 LINE",
"64 520 LINE",
"64 0 LINE"
);
}
);
width = 328;
}
);
leftKerningGroup = l;
leftMetricsKey = "=l";
rightKerningGroup = l;
rightMetricsKey = "=|";
unicode = 0131;
},
{
color = 11;
glyphname = j;
lastChange = "2020-12-09 11:53:59 +0000";
layers = (
{
layerId = "9527F797-22C1-480E-A1FE-2CDBEBE1FD4C";
leftMetricsKey = "=l-170";
paths = (
{
closed = 1;
nodes = (
"222 620 LINE",
"222 730 LINE",
"112 730 LINE",
"112 620 LINE"
);
},
{
closed = 1;
nodes = (
"154 -220 OFFCURVE",
"222 -165 OFFCURVE",
"222 30 CURVE SMOOTH",
"222 520 LINE",
"112 520 LINE",
"112 30 LINE SMOOTH",
"112 -106 OFFCURVE",
"81 -130 OFFCURVE",
"-91 -130 CURVE",
"-86 -220 LINE"
);
}
);
width = 301;
},
{
layerId = "9E6B41AB-2970-4C41-8B35-4DBE0D296A43";
leftMetricsKey = "=l-140";
paths = (
{
closed = 1;
nodes = (
"294 570 LINE",
"294 730 LINE",
"94 730 LINE",
"94 570 LINE"
);
},
{
closed = 1;
nodes = (
"211 -220 OFFCURVE",
"294 -158 OFFCURVE",
"294 50 CURVE SMOOTH",
"294 500 LINE",
"94 500 LINE",
"94 50 LINE SMOOTH",
"94 -63 OFFCURVE",
"77 -75 OFFCURVE",
"-76 -75 CURVE",
"-66 -220 LINE"
);
}
);
width = 358;
},
{
layerId = "D65C9A1E-0FCA-4B2D-8EDF-9F36CA9182A1";
leftMetricsKey = "=l-200";
paths = (
{
closed = 1;
nodes = (
"170 670 LINE",
"170 730 LINE",
"110 730 LINE",
"110 670 LINE"
);
},
{
closed = 1;
nodes = (
"96 -220 OFFCURVE",
"150 -172 OFFCURVE",
"150 10 CURVE SMOOTH",
"150 520 LINE",
"130 520 LINE",
"130 10 LINE SMOOTH",
"130 -160 OFFCURVE",
"86 -200 OFFCURVE",
"-105 -200 CURVE",
"-105 -220 LINE"
);
}
);
width = 265;
}
);
leftKerningGroup = l;
leftMetricsKey = "=-150";
rightKerningGroup = g;
rightMetricsKey = "=l";
unicode = 006A;
},
{
color = 11;
glyphname = jdotless;
lastChange = "2020-12-09 11:53:59 +0000";
layers = (
{
anchors = (
{
name = bottom;
position = "{105, -160}";
},
{
name = top;
position = "{105, 520}";
}
);
layerId = "D65C9A1E-0FCA-4B2D-8EDF-9F36CA9182A1";
paths = (
{
closed = 1;
nodes = (
"96 -250 OFFCURVE",
"150 -202 OFFCURVE",
"150 -20 CURVE SMOOTH",
"150 520 LINE",
"130 520 LINE",
"130 -20 LINE SMOOTH",
"130 -190 OFFCURVE",
"86 -230 OFFCURVE",
"-105 -230 CURVE",
"-105 -250 LINE"
);
}
);
width = 245;
},
{
anchors = (
{
name = bottom;
position = "{138, -160}";
},
{
name = top;
position = "{138, 520}";
}
);
layerId = "9527F797-22C1-480E-A1FE-2CDBEBE1FD4C";
paths = (
{
closed = 1;
nodes = (
"154 -250 OFFCURVE",
"222 -195 OFFCURVE",
"222 0 CURVE SMOOTH",
"222 520 LINE",
"112 520 LINE",
"112 0 LINE SMOOTH",
"112 -136 OFFCURVE",
"81 -160 OFFCURVE",
"-91 -160 CURVE",
"-86 -250 LINE"
);
}
);
width = 301;
},
{
anchors = (
{
name = bottom;
position = "{172, -160}";
},
{
name = top;
position = "{172, 520}";
}
);
layerId = "9E6B41AB-2970-4C41-8B35-4DBE0D296A43";
paths = (
{
closed = 1;
nodes = (
"211 -250 OFFCURVE",
"294 -188 OFFCURVE",
"294 20 CURVE SMOOTH",
"294 520 LINE",
"94 520 LINE",
"94 20 LINE SMOOTH",
"94 -93 OFFCURVE",
"77 -105 OFFCURVE",
"-76 -105 CURVE",
"-66 -250 LINE"
);
}
);
width = 358;
}
);
leftKerningGroup = l;
leftMetricsKey = "=j";
rightKerningGroup = g;
rightMetricsKey = "=j";
unicode = 0237;
},
{
color = 11;
glyphname = k;
lastChange = "2020-12-09 11:55:46 +0000";
layers = (
{
anchors = (
{
name = bottom;
position = "{236, 0}";
},
{
name = top;
position = "{236, 730}";
}
);
layerId = "D65C9A1E-0FCA-4B2D-8EDF-9F36CA9182A1";
rightMetricsKey = "=d*.4";
paths = (
{
closed = 1;
nodes = (
"108 0 LINE",
"108 262 LINE",
"110 262 LINE",
"472 0 LINE",
"506 0 LINE",
"133 270 LINE",
"489 520 LINE",
"455 520 LINE",
"110 278 LINE",
"108 278 LINE",
"108 730 LINE",
"86 730 LINE",
"86 0 LINE"
);
}
);
width = 540;
},
{
anchors = (
{
name = bottom;
position = "{268, 0}";
},
{
name = top;
position = "{268, 730}";
}
);
layerId = "9527F797-22C1-480E-A1FE-2CDBEBE1FD4C";
rightMetricsKey = "=d*.3";
paths = (
{
closed = 1;
nodes = (
"181 0 LINE",
"181 235 LINE",
"183 235 LINE",
"423 0 LINE",
"562 0 LINE",
"276 270 LINE",
"551 520 LINE",
"412 520 LINE",
"183 306 LINE",
"181 306 LINE",
"181 730 LINE",
"72 730 LINE",
"72 0 LINE"
);
}
);
width = 584;
},
{
anchors = (
{
name = bottom;
position = "{299, 0}";
},
{
name = top;
position = "{299, 730}";
}
);
layerId = "9E6B41AB-2970-4C41-8B35-4DBE0D296A43";
rightMetricsKey = "=d*.2";
paths = (
{
closed = 1;
nodes = (
"254 0 LINE",
"254 215 LINE",
"256 215 LINE",
"393 0 LINE",
"618 0 LINE",
"418 270 LINE",
"613 520 LINE",
"388 520 LINE",
"256 325 LINE",
"254 325 LINE",
"254 730 LINE",
"58 730 LINE",
"58 0 LINE"
);
}
);
width = 630;
}
);
leftKerningGroup = b;
leftMetricsKey = "=h";
rightKerningGroup = x;
rightMetricsKey = "=d*.2";
unicode = 006B;
},
{
color = 11;
glyphname = kgreenlandic;
lastChange = "2020-12-10 02:24:11 +0000";
layers = (
{
anchors = (
{
name = bottom;
position = "{221, 0}";
},
{
name = top;
position = "{221, 520}";
}
);
layerId = "D65C9A1E-0FCA-4B2D-8EDF-9F36CA9182A1";
paths = (
{
closed = 1;
nodes = (
"106 0 LINE",
"106 263 LINE",
"108 263 LINE",
"443 0 LINE",
"476 0 LINE",
"130 270 LINE",
"460 520 LINE",
"427 520 LINE",
"108 277 LINE",
"106 277 LINE",
"106 520 LINE",
"86 520 LINE",
"86 0 LINE"
);
}
);
width = 510;
},
{
anchors = (
{
name = bottom;
position = "{260, 0}";
},
{
name = top;
position = "{260, 520}";
}
);
layerId = "9527F797-22C1-480E-A1FE-2CDBEBE1FD4C";
paths = (
{
closed = 1;
nodes = (
"180 0 LINE",
"180 234 LINE",
"182 234 LINE",
"408 0 LINE",
"547 0 LINE",
"274 270 LINE",
"537 520 LINE",
"398 520 LINE",
"182 305 LINE",
"180 305 LINE",
"180 520 LINE",
"72 520 LINE",
"72 0 LINE"
);
}
);
width = 569;
},
{
anchors = (
{
name = bottom;
position = "{299, 0}";
},
{
name = top;
position = "{299, 520}";
}
);
layerId = "9E6B41AB-2970-4C41-8B35-4DBE0D296A43";
paths = (
{
closed = 1;
nodes = (
"254 0 LINE",
"254 215 LINE",
"256 215 LINE",
"393 0 LINE",
"618 0 LINE",
"418 270 LINE",
"613 520 LINE",
"388 520 LINE",
"256 325 LINE",
"254 325 LINE",
"254 520 LINE",
"58 520 LINE",
"58 0 LINE"
);
}
);
width = 630;
}
);
leftKerningGroup = n;
leftMetricsKey = "=k";
rightKerningGroup = x;
rightMetricsKey = "=k";
unicode = 0138;
},
{
color = 11;
glyphname = l;
lastChange = "2020-12-09 11:53:59 +0000";
layers = (
{
anchors = (
{
name = bottom;
position = "{105, 0}";
},
{
name = center;
position = "{105, 430}";
},
{
name = pdcenter;
position = "{331, 375}";
},
{
name = top;
position = "{105, 730}";
},
{
name = topright;
position = "{189, 730}";
}
);
layerId = "D65C9A1E-0FCA-4B2D-8EDF-9F36CA9182A1";
paths = (
{
closed = 1;
nodes = (
"115 0 LINE",
"115 730 LINE",
"95 730 LINE",
"95 0 LINE"
);
}
);
width = 210;
},
{
anchors = (
{
name = bottom;
position = "{134, 0}";
},
{
name = center;
position = "{134, 430}";
},
{
name = pdcenter;
position = "{430, 375}";
},
{
name = top;
position = "{134, 730}";
},
{
name = topright;
position = "{248, 730}";
}
);
layerId = "9527F797-22C1-480E-A1FE-2CDBEBE1FD4C";
paths = (
{
closed = 1;
nodes = (
"189 0 LINE",
"189 730 LINE",
"79 730 LINE",
"79 0 LINE"
);
}
);
width = 268;
},
{
anchors = (
{
name = bottom;
position = "{164, 0}";
},
{
name = center;
position = "{164, 430}";
},
{
name = pdcenter;
position = "{529, 375}";
},
{
name = top;
position = "{164, 730}";
},
{
name = topright;
position = "{309, 730}";
}
);
layerId = "9E6B41AB-2970-4C41-8B35-4DBE0D296A43";
paths = (
{
closed = 1;
nodes = (
"264 0 LINE",
"264 730 LINE",
"64 730 LINE",
"64 0 LINE"
);
}
);
width = 328;
}
);
leftKerningGroup = l;
leftMetricsKey = "=h*1.1";
rightKerningGroup = l;
rightMetricsKey = "=|";
unicode = 006C;
},
{
color = 11;
glyphname = lslash;
lastChange = "2020-12-09 11:54:01 +0000";
layers = (
{
components = (
{
name = l;
transform = "{1, 0, 0, 1, 97, 0}";
}
);
layerId = "D65C9A1E-0FCA-4B2D-8EDF-9F36CA9182A1";
leftMetricsKey = "=t*.9";
paths = (
{
closed = 1;
nodes = (
"370 431 LINE",
"362 449 LINE",
"32 299 LINE",
"40 281 LINE"
);
}
);
width = 402;
},
{
components = (
{
alignment = -1;
name = l;
transform = "{1, 0, 0, 1, 97, 0}";
}
);
layerId = "9527F797-22C1-480E-A1FE-2CDBEBE1FD4C";
leftMetricsKey = "=t*.7";
paths = (
{
closed = 1;
nodes = (
"449 407 LINE",
"413 491 LINE",
"13 323 LINE",
"49 239 LINE"
);
}
);
width = 462;
},
{
components = (
{
name = l;
transform = "{1, 0, 0, 1, 104, 0}";
}
);
layerId = "9E6B41AB-2970-4C41-8B35-4DBE0D296A43";
leftMetricsKey = "=t*.5";
paths = (
{
closed = 1;
nodes = (
"531 393 LINE",
"476 523 LINE",
"7 337 LINE",
"62 207 LINE"
);
}
);
width = 538;
}
);
leftKerningGroup = o;
leftMetricsKey = "=t*.5";
rightKerningGroup = f;
rightMetricsKey = "=|";
unicode = 0142;
},
{
color = 11;
glyphname = m;
lastChange = "2020-12-09 11:53:59 +0000";
layers = (
{
layerId = "D65C9A1E-0FCA-4B2D-8EDF-9F36CA9182A1";
paths = (
{
closed = 1;
nodes = (
"106 0 LINE",
"106 263 LINE SMOOTH",
"106 408 OFFCURVE",
"174 510 OFFCURVE",
"273 510 CURVE SMOOTH",
"359 510 OFFCURVE",
"406 432 OFFCURVE",
"406 320 CURVE SMOOTH",
"406 0 LINE",
"426 0 LINE",
"426 308 LINE SMOOTH",
"426 417 OFFCURVE",
"494 510 OFFCURVE",
"593 510 CURVE SMOOTH",
"674 510 OFFCURVE",
"726 451 OFFCURVE",
"726 360 CURVE SMOOTH",
"726 0 LINE",
"746 0 LINE",
"746 360 LINE SMOOTH",
"746 463 OFFCURVE",
"685 530 OFFCURVE",
"593 530 CURVE SMOOTH",
"516 530 OFFCURVE",
"454 482 OFFCURVE",
"420 396 CURVE",
"418 396 LINE",
"396 483 OFFCURVE",
"346 530 OFFCURVE",
"273 530 CURVE SMOOTH",
"200 530 OFFCURVE",
"143 484 OFFCURVE",
"108 396 CURVE",
"106 396 LINE",
"106 520 LINE",
"86 520 LINE",
"86 0 LINE"
);
}
);
width = 815;
},
{
layerId = "9527F797-22C1-480E-A1FE-2CDBEBE1FD4C";
paths = (
{
closed = 1;
nodes = (
"178 0 LINE",
"178 245 LINE SMOOTH",
"178 362 OFFCURVE",
"223 440 OFFCURVE",
"290 440 CURVE SMOOTH",
"343 440 OFFCURVE",
"376 391 OFFCURVE",
"376 310 CURVE SMOOTH",
"376 0 LINE",
"482 0 LINE",
"482 259 LINE SMOOTH",
"482 371 OFFCURVE",
"525 440 OFFCURVE",
"594 440 CURVE SMOOTH",
"647 440 OFFCURVE",
"680 398 OFFCURVE",
"680 330 CURVE SMOOTH",
"680 0 LINE",
"786 0 LINE",
"786 355 LINE SMOOTH",
"786 472 OFFCURVE",
"736 530 OFFCURVE",
"634 530 CURVE SMOOTH",
"564 530 OFFCURVE",
"509 503 OFFCURVE",
"469 450 CURVE",
"467 450 LINE",
"442 502 OFFCURVE",
"395 530 OFFCURVE",
"330 530 CURVE SMOOTH",
"265 530 OFFCURVE",
"214 503 OFFCURVE",
"176 450 CURVE",
"174 450 LINE",
"173 520 LINE",
"72 520 LINE",
"72 0 LINE"
);
}
);
width = 844;
},
{
layerId = "9E6B41AB-2970-4C41-8B35-4DBE0D296A43";
paths = (
{
closed = 1;
nodes = (
"250 0 LINE",
"250 300 LINE SMOOTH",
"250 341 OFFCURVE",
"273 370 OFFCURVE",
"306 370 CURVE SMOOTH",
"334 370 OFFCURVE",
"346 349 OFFCURVE",
"346 300 CURVE SMOOTH",
"346 0 LINE",
"538 0 LINE",
"538 300 LINE SMOOTH",
"538 341 OFFCURVE",
"561 370 OFFCURVE",
"594 370 CURVE SMOOTH",
"622 370 OFFCURVE",
"634 349 OFFCURVE",
"634 300 CURVE SMOOTH",
"634 0 LINE",
"826 0 LINE",
"826 350 LINE SMOOTH",
"826 476 OFFCURVE",
"781 530 OFFCURVE",
"675 530 CURVE SMOOTH",
"609 530 OFFCURVE",
"562 509 OFFCURVE",
"516 460 CURVE",
"514 460 LINE",
"491 507 OFFCURVE",
"450 530 OFFCURVE",
"387 530 CURVE SMOOTH",
"327 530 OFFCURVE",
"285 509 OFFCURVE",
"244 460 CURVE",
"242 460 LINE",
"240 520 LINE",
"58 520 LINE",
"58 0 LINE"
);
}
);
width = 872;
},
{
associatedMasterId = "D65C9A1E-0FCA-4B2D-8EDF-9F36CA9182A1";
layerId = "0CBD3FAB-BA75-4DFC-AD86-B9F788B7BCE9";
name = "Light {232}";
paths = (
{
closed = 1;
nodes = (
"130 0 LINE",
"130 257 LINE SMOOTH",
"130 392 OFFCURVE",
"191 487 OFFCURVE",
"279 487 CURVE SMOOTH",
"352 487 OFFCURVE",
"396 423 OFFCURVE",
"396 317 CURVE SMOOTH",
"396 0 LINE",
"445 0 LINE",
"445 292 LINE SMOOTH",
"445 406 OFFCURVE",
"507 487 OFFCURVE",
"594 487 CURVE SMOOTH",
"665 487 OFFCURVE",
"711 433 OFFCURVE",
"711 350 CURVE SMOOTH",
"711 0 LINE",
"760 0 LINE",
"760 358 LINE SMOOTH",
"760 468 OFFCURVE",
"705 530 OFFCURVE",
"607 530 CURVE SMOOTH",
"533 530 OFFCURVE",
"469 495 OFFCURVE",
"435 435 CURVE",
"433 435 LINE",
"409 497 OFFCURVE",
"361 530 OFFCURVE",
"292 530 CURVE SMOOTH",
"222 530 OFFCURVE",
"167 497 OFFCURVE",
"131 435 CURVE",
"129 435 LINE",
"128 520 LINE",
"81 520 LINE",
"81 0 LINE"
);
}
);
width = 825;
}
);
leftKerningGroup = n;
leftMetricsKey = "=n";
rightKerningGroup = h;
rightMetricsKey = "=n";
unicode = 006D;
},
{
color = 11;
glyphname = n;
lastChange = "2020-12-09 11:53:59 +0000";
layers = (
{
anchors = (
{
name = bottom;
position = "{287, 0}";
},
{
name = top;
position = "{287, 520}";
}
);
layerId = "D65C9A1E-0FCA-4B2D-8EDF-9F36CA9182A1";
paths = (
{
closed = 1;
nodes = (
"106 0 LINE",
"106 290 LINE SMOOTH",
"106 412 OFFCURVE",
"206 510 OFFCURVE",
"330 510 CURVE SMOOTH",
"428 510 OFFCURVE",
"476 448 OFFCURVE",
"476 320 CURVE SMOOTH",
"476 0 LINE",
"496 0 LINE",
"496 320 LINE SMOOTH",
"496 458 OFFCURVE",
"439 530 OFFCURVE",
"330 530 CURVE SMOOTH",
"234 530 OFFCURVE",
"147 475 OFFCURVE",
"108 388 CURVE",
"106 388 LINE",
"106 520 LINE",
"86 520 LINE",
"86 0 LINE"
);
}
);
width = 565;
},
{
anchors = (
{
name = bottom;
position = "{303, 0}";
},
{
name = top;
position = "{303, 520}";
}
);
layerId = "9527F797-22C1-480E-A1FE-2CDBEBE1FD4C";
paths = (
{
closed = 1;
nodes = (
"180 0 LINE",
"180 265 LINE SMOOTH",
"180 356 OFFCURVE",
"258 440 OFFCURVE",
"342 440 CURVE SMOOTH",
"404 440 OFFCURVE",
"434 394 OFFCURVE",
"434 300 CURVE SMOOTH",
"434 0 LINE",
"542 0 LINE",
"542 320 LINE SMOOTH",
"542 462 OFFCURVE",
"487 530 OFFCURVE",
"372 530 CURVE SMOOTH",
"293 530 OFFCURVE",
"221 498 OFFCURVE",
"178 444 CURVE",
"176 444 LINE",
"175 520 LINE",
"72 520 LINE",
"72 0 LINE"
);
}
);
width = 600;
},
{
anchors = (
{
name = bottom;
position = "{320, 0}";
},
{
name = top;
position = "{320, 520}";
}
);
layerId = "9E6B41AB-2970-4C41-8B35-4DBE0D296A43";
paths = (
{
closed = 1;
nodes = (
"254 0 LINE",
"254 300 LINE SMOOTH",
"254 341 OFFCURVE",
"287 370 OFFCURVE",
"333 370 CURVE SMOOTH",
"375 370 OFFCURVE",
"392 345 OFFCURVE",
"392 280 CURVE SMOOTH",
"392 0 LINE",
"588 0 LINE",
"588 320 LINE SMOOTH",
"588 469 OFFCURVE",
"539 530 OFFCURVE",
"418 530 CURVE SMOOTH",
"348 530 OFFCURVE",
"297 509 OFFCURVE",
"248 460 CURVE",
"246 460 LINE",
"244 520 LINE",
"58 520 LINE",
"58 0 LINE"
);
}
);
width = 634;
},
{
anchors = (
{
name = bottom;
position = "{292, 0}";
},
{
name = top;
position = "{292, 520}";
}
);
associatedMasterId = "D65C9A1E-0FCA-4B2D-8EDF-9F36CA9182A1";
layerId = "899DC2DC-F451-4B84-9275-F30D30733E24";
name = "Light {232}";
paths = (
{
closed = 1;
nodes = (
"130 0 LINE",
"130 282 LINE SMOOTH",
"130 394 OFFCURVE",
"222 487 OFFCURVE",
"333 487 CURVE SMOOTH",
"419 487 OFFCURVE",
"461 430 OFFCURVE",
"461 313 CURVE SMOOTH",
"461 0 LINE",
"511 0 LINE",
"511 320 LINE SMOOTH",
"511 461 OFFCURVE",
"456 530 OFFCURVE",
"343 530 CURVE SMOOTH",
"254 530 OFFCURVE",
"170 487 OFFCURVE",
"130 421 CURVE",
"128 421 LINE",
"128 520 LINE",
"81 520 LINE",
"81 0 LINE"
);
}
);
width = 576;
}
);
leftKerningGroup = n;
leftMetricsKey = "=h";
rightKerningGroup = h;
rightMetricsKey = "=h";
unicode = 006E;
},
{
color = 11;
glyphname = eng;
lastChange = "2020-12-09 11:53:59 +0000";
layers = (
{
anchors = (
{
name = bottom;
position = "{282, 0}";
},
{
name = top;
position = "{282, 520}";
}
);
background = {
components = (
{
name = n;
transform = "{1, 0, 0, 1, 1, 0}";
}
);
};
layerId = "D65C9A1E-0FCA-4B2D-8EDF-9F36CA9182A1";
paths = (
{
closed = 1;
nodes = (
"443 -211 OFFCURVE",
"486 -164 OFFCURVE",
"486 -61 CURVE SMOOTH",
"486 320 LINE SMOOTH",
"486 456 OFFCURVE",
"429 530 OFFCURVE",
"320 530 CURVE SMOOTH",
"227 530 OFFCURVE",
"146 476 OFFCURVE",
"108 388 CURVE",
"106 388 LINE",
"106 520 LINE",
"86 520 LINE",
"86 0 LINE",
"106 0 LINE",
"106 290 LINE SMOOTH",
"106 413 OFFCURVE",
"200 510 OFFCURVE",
"320 510 CURVE SMOOTH",
"417 510 OFFCURVE",
"466 446 OFFCURVE",
"466 320 CURVE SMOOTH",
"466 -61 LINE SMOOTH",
"466 -153 OFFCURVE",
"431 -191 OFFCURVE",
"346 -191 CURVE SMOOTH",
"321 -191 OFFCURVE",
"295 -186 OFFCURVE",
"273 -177 CURVE",
"267 -196 LINE",
"291 -205 OFFCURVE",
"319 -211 OFFCURVE",
"346 -211 CURVE SMOOTH"
);
}
);
width = 555;
},
{
anchors = (
{
name = bottom;
position = "{299, 0}";
},
{
name = top;
position = "{299, 520}";
}
);
background = {
components = (
{
name = n;
}
);
};
layerId = "9527F797-22C1-480E-A1FE-2CDBEBE1FD4C";
paths = (
{
closed = 1;
nodes = (
"480 -221 OFFCURVE",
"532 -163 OFFCURVE",
"532 -26 CURVE SMOOTH",
"532 320 LINE SMOOTH",
"532 461 OFFCURVE",
"476 530 OFFCURVE",
"362 530 CURVE SMOOTH",
"286 530 OFFCURVE",
"220 499 OFFCURVE",
"178 444 CURVE",
"176 444 LINE",
"175 520 LINE",
"72 520 LINE",
"72 0 LINE",
"180 0 LINE",
"180 265 LINE SMOOTH",
"180 357 OFFCURVE",
"252 440 OFFCURVE",
"332 440 CURVE SMOOTH",
"393 440 OFFCURVE",
"424 392 OFFCURVE",
"424 300 CURVE SMOOTH",
"424 -26 LINE SMOOTH",
"424 -97 OFFCURVE",
"398 -126 OFFCURVE",
"334 -126 CURVE SMOOTH",
"309 -126 OFFCURVE",
"283 -122 OFFCURVE",
"259 -114 CURVE",
"244 -205 LINE",
"281 -216 OFFCURVE",
"319 -221 OFFCURVE",
"356 -221 CURVE SMOOTH"
);
}
);
width = 590;
},
{
anchors = (
{
name = bottom;
position = "{315, 0}";
},
{
name = top;
position = "{315, 520}";
}
);
background = {
components = (
{
name = n;
transform = "{1, 0, 0, 1, -1, 0}";
}
);
};
layerId = "9E6B41AB-2970-4C41-8B35-4DBE0D296A43";
paths = (
{
closed = 1;
nodes = (
"523 -229 OFFCURVE",
"578 -169 OFFCURVE",
"578 0 CURVE SMOOTH",
"578 320 LINE SMOOTH",
"578 467 OFFCURVE",
"527 530 OFFCURVE",
"408 530 CURVE SMOOTH",
"340 530 OFFCURVE",
"295 510 OFFCURVE",
"248 460 CURVE",
"246 460 LINE",
"244 520 LINE",
"58 520 LINE",
"58 0 LINE",
"254 0 LINE",
"254 300 LINE SMOOTH",
"254 341 OFFCURVE",
"286 370 OFFCURVE",
"328 370 CURVE SMOOTH",
"367 370 OFFCURVE",
"382 345 OFFCURVE",
"382 280 CURVE SMOOTH",
"382 0 LINE SMOOTH",
"382 -54 OFFCURVE",
"369 -70 OFFCURVE",
"323 -70 CURVE SMOOTH",
"301 -70 OFFCURVE",
"268 -66 OFFCURVE",
"240 -59 CURVE",
"220 -214 LINE",
"268 -223 OFFCURVE",
"318 -229 OFFCURVE",
"366 -229 CURVE SMOOTH"
);
}
);
width = 624;
}
);
leftKerningGroup = n;
leftMetricsKey = "=h";
rightKerningGroup = g;
rightMetricsKey = "=h";
unicode = 014B;
},
{
color = 11;
glyphname = o;
lastChange = "2020-12-09 11:53:59 +0000";
layers = (
{
anchors = (
{
name = bottom;
position = "{273, 0}";
},
{
name = center;
position = "{273, 260}";
},
{
name = ogonek;
position = "{321, 0}";
},
{
name = top;
position = "{273, 520}";
},
{
name = topright;
position = "{419, 480}";
}
);
layerId = "D65C9A1E-0FCA-4B2D-8EDF-9F36CA9182A1";
paths = (
{
closed = 1;
nodes = (
"416 -10 OFFCURVE",
"503 92 OFFCURVE",
"503 260 CURVE SMOOTH",
"503 428 OFFCURVE",
"416 530 OFFCURVE",
"273 530 CURVE SMOOTH",
"130 530 OFFCURVE",
"43 428 OFFCURVE",
"43 260 CURVE SMOOTH",
"43 92 OFFCURVE",
"130 -10 OFFCURVE",
"273 -10 CURVE SMOOTH"
);
},
{
closed = 1;
nodes = (
"142 10 OFFCURVE",
"63 102 OFFCURVE",
"63 260 CURVE SMOOTH",
"63 418 OFFCURVE",
"142 510 OFFCURVE",
"273 510 CURVE SMOOTH",
"404 510 OFFCURVE",
"483 418 OFFCURVE",
"483 260 CURVE SMOOTH",
"483 102 OFFCURVE",
"404 10 OFFCURVE",
"273 10 CURVE SMOOTH"
);
}
);
width = 546;
},
{
anchors = (
{
name = bottom;
position = "{289, 0}";
},
{
name = center;
position = "{289, 260}";
},
{
name = ogonek;
position = "{370, 0}";
},
{
name = top;
position = "{289, 520}";
},
{
name = topright;
position = "{459, 482}";
}
);
layerId = "9527F797-22C1-480E-A1FE-2CDBEBE1FD4C";
paths = (
{
closed = 1;
nodes = (
"449 -10 OFFCURVE",
"542 89 OFFCURVE",
"542 260 CURVE SMOOTH",
"542 431 OFFCURVE",
"449 530 OFFCURVE",
"289 530 CURVE SMOOTH",
"129 530 OFFCURVE",
"36 431 OFFCURVE",
"36 260 CURVE SMOOTH",
"36 89 OFFCURVE",
"129 -10 OFFCURVE",
"289 -10 CURVE SMOOTH"
);
},
{
closed = 1;
nodes = (
"194 80 OFFCURVE",
"144 142 OFFCURVE",
"144 260 CURVE SMOOTH",
"144 378 OFFCURVE",
"194 440 OFFCURVE",
"289 440 CURVE SMOOTH",
"384 440 OFFCURVE",
"434 378 OFFCURVE",
"434 260 CURVE SMOOTH",
"434 142 OFFCURVE",
"384 80 OFFCURVE",
"289 80 CURVE SMOOTH"
);
}
);
width = 578;
},
{
anchors = (
{
name = bottom;
position = "{304, 0}";
},
{
name = center;
position = "{304, 260}";
},
{
name = ogonek;
position = "{429, 10}";
},
{
name = top;
position = "{304, 520}";
},
{
name = topright;
position = "{480, 484}";
}
);
layerId = "9E6B41AB-2970-4C41-8B35-4DBE0D296A43";
paths = (
{
closed = 1;
nodes = (
"483 -10 OFFCURVE",
"579 84 OFFCURVE",
"579 260 CURVE SMOOTH",
"579 436 OFFCURVE",
"483 530 OFFCURVE",
"304 530 CURVE SMOOTH",
"124 530 OFFCURVE",
"29 436 OFFCURVE",
"29 260 CURVE SMOOTH",
"29 84 OFFCURVE",
"124 -10 OFFCURVE",
"304 -10 CURVE SMOOTH"
);
},
{
closed = 1;
nodes = (
"250 130 OFFCURVE",
"225 171 OFFCURVE",
"225 260 CURVE SMOOTH",
"225 349 OFFCURVE",
"250 390 OFFCURVE",
"304 390 CURVE SMOOTH",
"358 390 OFFCURVE",
"383 349 OFFCURVE",
"383 260 CURVE SMOOTH",
"383 171 OFFCURVE",
"358 130 OFFCURVE",
"304 130 CURVE SMOOTH"
);
}
);
width = 608;
}
);
leftKerningGroup = o;
leftMetricsKey = "=h*.5";
rightKerningGroup = o;
rightMetricsKey = "=|";
unicode = 006F;
},
{
color = 11;
glyphname = oslash;
lastChange = "2020-12-09 07:59:53 +0000";
layers = (
{
anchors = (
{
name = top;
position = "{273, 520}";
}
);
components = (
{
name = o;
}
);
layerId = "D65C9A1E-0FCA-4B2D-8EDF-9F36CA9182A1";
paths = (
{
closed = 1;
nodes = (
"126 46 LINE",
"126 46 LINE",
"434 462 LINE",
"434 462 LINE",
"480 524 LINE",
"464 536 LINE",
"418 474 LINE",
"418 474 LINE",
"110 58 LINE",
"110 58 LINE",
"64 -4 LINE",
"80 -16 LINE"
);
}
);
width = 546;
},
{
anchors = (
{
name = top;
position = "{289, 520}";
}
);
components = (
{
alignment = -1;
name = o;
}
);
layerId = "9527F797-22C1-480E-A1FE-2CDBEBE1FD4C";
paths = (
{
closed = 1;
nodes = (
"172 35 LINE",
"172 35 LINE",
"470 437 LINE",
"470 437 LINE",
"521 506 LINE",
"457 554 LINE",
"406 485 LINE",
"406 485 LINE",
"108 83 LINE",
"108 83 LINE",
"57 14 LINE",
"121 -34 LINE"
);
}
);
width = 578;
},
{
anchors = (
{
name = top;
position = "{305, 520}";
}
);
components = (
{
name = o;
}
);
layerId = "9E6B41AB-2970-4C41-8B35-4DBE0D296A43";
paths = (
{
closed = 1;
nodes = (
"184 14 LINE",
"176 20 LINE",
"496 452 LINE",
"504 446 LINE",
"544 500 LINE",
"464 560 LINE",
"424 506 LINE",
"432 500 LINE",
"112 68 LINE",
"104 74 LINE",
"64 20 LINE",
"144 -40 LINE"
);
}
);
width = 610;
}
);
leftKerningGroup = o;
rightKerningGroup = o;
unicode = 00F8;
},
{
color = 11;
glyphname = oe;
lastChange = "2020-12-09 11:53:59 +0000";
layers = (
{
background = {
components = (
{
name = o;
},
{
name = e;
transform = "{1, 0, 0, 1, 440, 0}";
}
);
};
components = (
{
name = o;
}
);
layerId = "D65C9A1E-0FCA-4B2D-8EDF-9F36CA9182A1";
paths = (
{
closed = 1;
nodes = (
"789 -10 OFFCURVE",
"847 4 OFFCURVE",
"892 30 CURVE",
"882 47 LINE",
"840 23 OFFCURVE",
"786 10 OFFCURVE",
"728 10 CURVE SMOOTH",
"581 10 OFFCURVE",
"502 96 OFFCURVE",
"502 260 CURVE",
"502 260 LINE",
"502 419 OFFCURVE",
"577 510 OFFCURVE",
"707 510 CURVE SMOOTH",
"834 510 OFFCURVE",
"902 424 OFFCURVE",
"902 260 CURVE",
"912 278 LINE",
"492 278 LINE",
"492 258 LINE",
"922 258 LINE",
"922 259 OFFCURVE",
"922 259 OFFCURVE",
"922 260 CURVE SMOOTH",
"922 434 OFFCURVE",
"846 530 OFFCURVE",
"707 530 CURVE SMOOTH",
"566 530 OFFCURVE",
"482 430 OFFCURVE",
"482 260 CURVE SMOOTH",
"482 86 OFFCURVE",
"569 -10 OFFCURVE",
"728 -10 CURVE SMOOTH"
);
}
);
width = 963;
},
{
background = {
components = (
{
name = o;
},
{
name = e;
transform = "{1, 0, 0, 1, 398, 0}";
}
);
};
components = (
{
name = o;
}
);
layerId = "9527F797-22C1-480E-A1FE-2CDBEBE1FD4C";
paths = (
{
closed = 1;
nodes = (
"776 -10 OFFCURVE",
"837 2 OFFCURVE",
"884 24 CURVE",
"869 114 LINE",
"826 93 OFFCURVE",
"764 80 OFFCURVE",
"708 80 CURVE SMOOTH",
"595 80 OFFCURVE",
"540 133 OFFCURVE",
"540 240 CURVE",
"540 270 LINE",
"540 383 OFFCURVE",
"589 442 OFFCURVE",
"681 442 CURVE SMOOTH",
"772 442 OFFCURVE",
"818 385 OFFCURVE",
"818 270 CURVE",
"834 300 LINE",
"494 300 LINE",
"494 215 LINE",
"917 215 LINE",
"918 223 OFFCURVE",
"919 248 OFFCURVE",
"919 265 CURVE SMOOTH",
"919 434 OFFCURVE",
"833 530 OFFCURVE",
"681 530 CURVE SMOOTH",
"527 530 OFFCURVE",
"434 429 OFFCURVE",
"434 260 CURVE SMOOTH",
"434 86 OFFCURVE",
"532 -10 OFFCURVE",
"712 -10 CURVE SMOOTH"
);
}
);
width = 953;
},
{
background = {
components = (
{
name = o;
},
{
name = e;
transform = "{1, 0, 0, 1, 354, 0}";
}
);
};
components = (
{
name = o;
}
);
layerId = "9E6B41AB-2970-4C41-8B35-4DBE0D296A43";
paths = (
{
closed = 1;
nodes = (
"758 -10 OFFCURVE",
"828 1 OFFCURVE",
"873 18 CURVE",
"853 158 LINE",
"809 142 OFFCURVE",
"739 130 OFFCURVE",
"685 130 CURVE SMOOTH",
"607 130 OFFCURVE",
"575 156 OFFCURVE",
"575 220 CURVE SMOOTH",
"575 280 LINE SMOOTH",
"575 367 OFFCURVE",
"599 405 OFFCURVE",
"653 405 CURVE SMOOTH",
"707 405 OFFCURVE",
"731 367 OFFCURVE",
"731 280 CURVE",
"754 315 LINE",
"493 315 LINE",
"493 200 LINE",
"909 200 LINE",
"911 211 OFFCURVE",
"913 246 OFFCURVE",
"913 270 CURVE SMOOTH",
"913 434 OFFCURVE",
"817 530 OFFCURVE",
"653 530 CURVE SMOOTH",
"485 530 OFFCURVE",
"383 428 OFFCURVE",
"383 260 CURVE SMOOTH",
"383 86 OFFCURVE",
"493 -10 OFFCURVE",
"693 -10 CURVE SMOOTH"
);
}
);
width = 941;
}
);
leftKerningGroup = o;
leftMetricsKey = "=o";
rightKerningGroup = o;
rightMetricsKey = "=e";
unicode = 0153;
},
{
color = 11;
glyphname = p;
lastChange = "2020-12-09 11:53:59 +0000";
layers = (
{
layerId = "D65C9A1E-0FCA-4B2D-8EDF-9F36CA9182A1";
paths = (
{
closed = 1;
nodes = (
"106 -210 LINE",
"106 120 LINE",
"108 120 LINE",
"142 39 OFFCURVE",
"213 -10 OFFCURVE",
"306 -10 CURVE SMOOTH",
"441 -10 OFFCURVE",
"520 91 OFFCURVE",
"520 260 CURVE SMOOTH",
"520 429 OFFCURVE",
"441 530 OFFCURVE",
"306 530 CURVE SMOOTH",
"213 530 OFFCURVE",
"142 481 OFFCURVE",
"108 400 CURVE",
"106 400 LINE",
"106 520 LINE",
"86 520 LINE",
"86 -210 LINE"
);
},
{
closed = 1;
nodes = (
"184 10 OFFCURVE",
"106 100 OFFCURVE",
"106 235 CURVE SMOOTH",
"106 285 LINE SMOOTH",
"106 420 OFFCURVE",
"184 510 OFFCURVE",
"306 510 CURVE SMOOTH",
"429 510 OFFCURVE",
"500 419 OFFCURVE",
"500 260 CURVE SMOOTH",
"500 101 OFFCURVE",
"429 10 OFFCURVE",
"306 10 CURVE SMOOTH"
);
}
);
width = 563;
},
{
layerId = "9527F797-22C1-480E-A1FE-2CDBEBE1FD4C";
paths = (
{
closed = 1;
nodes = (
"180 -210 LINE",
"180 68 LINE",
"182 68 LINE",
"223 16 OFFCURVE",
"278 -10 OFFCURVE",
"349 -10 CURVE SMOOTH",
"488 -10 OFFCURVE",
"569 89 OFFCURVE",
"569 260 CURVE SMOOTH",
"569 431 OFFCURVE",
"489 530 OFFCURVE",
"349 530 CURVE SMOOTH",
"278 530 OFFCURVE",
"222 504 OFFCURVE",
"178 452 CURVE",
"176 452 LINE",
"175 520 LINE",
"72 520 LINE",
"72 -210 LINE"
);
},
{
closed = 1;
nodes = (
"233 80 OFFCURVE",
"180 146 OFFCURVE",
"180 240 CURVE SMOOTH",
"180 280 LINE SMOOTH",
"180 374 OFFCURVE",
"233 440 OFFCURVE",
"322 440 CURVE SMOOTH",
"411 440 OFFCURVE",
"462 375 OFFCURVE",
"462 260 CURVE SMOOTH",
"462 145 OFFCURVE",
"411 80 OFFCURVE",
"322 80 CURVE SMOOTH"
);
}
);
width = 605;
},
{
layerId = "9E6B41AB-2970-4C41-8B35-4DBE0D296A43";
paths = (
{
closed = 1;
nodes = (
"254 -210 LINE",
"254 60 LINE",
"256 60 LINE",
"301 11 OFFCURVE",
"347 -10 OFFCURVE",
"409 -10 CURVE SMOOTH",
"542 -10 OFFCURVE",
"618 88 OFFCURVE",
"618 260 CURVE SMOOTH",
"618 432 OFFCURVE",
"542 530 OFFCURVE",
"409 530 CURVE SMOOTH",
"347 530 OFFCURVE",
"298 509 OFFCURVE",
"248 460 CURVE",
"246 460 LINE",
"244 520 LINE",
"58 520 LINE",
"58 -210 LINE"
);
},
{
closed = 1;
nodes = (
"280 140 OFFCURVE",
"254 177 OFFCURVE",
"254 240 CURVE SMOOTH",
"254 280 LINE SMOOTH",
"254 343 OFFCURVE",
"280 380 OFFCURVE",
"338 380 CURVE SMOOTH",
"398 380 OFFCURVE",
"426 341 OFFCURVE",
"426 260 CURVE SMOOTH",
"426 179 OFFCURVE",
"398 140 OFFCURVE",
"338 140 CURVE SMOOTH"
);
}
);
width = 647;
},
{
associatedMasterId = "D65C9A1E-0FCA-4B2D-8EDF-9F36CA9182A1";
layerId = "7F3BC6AE-6F22-4A97-B0EB-8F0F5CC638FE";
name = "Light {232}";
paths = (
{
closed = 1;
nodes = (
"130 -210 LINE",
"130 90 LINE",
"132 90 LINE",
"168 27 OFFCURVE",
"236 -10 OFFCURVE",
"320 -10 CURVE SMOOTH",
"458 -10 OFFCURVE",
"536 88 OFFCURVE",
"536 260 CURVE SMOOTH",
"536 432 OFFCURVE",
"458 530 OFFCURVE",
"320 530 CURVE SMOOTH",
"237 530 OFFCURVE",
"168 494 OFFCURVE",
"130 430 CURVE",
"128 430 LINE",
"128 520 LINE",
"81 520 LINE",
"81 -210 LINE"
);
},
{
closed = 1;
nodes = (
"200 33 OFFCURVE",
"130 115 OFFCURVE",
"130 237 CURVE SMOOTH",
"130 283 LINE SMOOTH",
"130 405 OFFCURVE",
"200 487 OFFCURVE",
"311 487 CURVE SMOOTH",
"422 487 OFFCURVE",
"487 404 OFFCURVE",
"487 260 CURVE SMOOTH",
"487 116 OFFCURVE",
"422 33 OFFCURVE",
"311 33 CURVE SMOOTH"
);
}
);
width = 577;
}
);
leftKerningGroup = n;
leftMetricsKey = "=n";
rightKerningGroup = o;
rightMetricsKey = "=o";
unicode = 0070;
},
{
color = 11;
glyphname = thorn;
lastChange = "2020-12-09 11:53:59 +0000";
layers = (
{
background = {
components = (
{
name = p;
transform = "{1, 0, 0, 1, 1, 0}";
}
);
};
layerId = "D65C9A1E-0FCA-4B2D-8EDF-9F36CA9182A1";
paths = (
{
closed = 1;
nodes = (
"106 -240 LINE",
"106 120 LINE",
"108 120 LINE",
"141 39 OFFCURVE",
"211 -10 OFFCURVE",
"303 -10 CURVE SMOOTH",
"432 -10 OFFCURVE",
"506 88 OFFCURVE",
"506 260 CURVE SMOOTH",
"506 432 OFFCURVE",
"432 530 OFFCURVE",
"303 530 CURVE SMOOTH",
"211 530 OFFCURVE",
"141 481 OFFCURVE",
"108 400 CURVE",
"106 400 LINE",
"106 760 LINE",
"86 760 LINE",
"86 -240 LINE"
);
},
{
closed = 1;
nodes = (
"185 10 OFFCURVE",
"106 100 OFFCURVE",
"106 235 CURVE SMOOTH",
"106 285 LINE SMOOTH",
"106 420 OFFCURVE",
"185 510 OFFCURVE",
"303 510 CURVE SMOOTH",
"420 510 OFFCURVE",
"486 421 OFFCURVE",
"486 260 CURVE SMOOTH",
"486 99 OFFCURVE",
"420 10 OFFCURVE",
"303 10 CURVE SMOOTH"
);
}
);
width = 549;
},
{
background = {
components = (
{
name = p;
}
);
};
layerId = "9527F797-22C1-480E-A1FE-2CDBEBE1FD4C";
paths = (
{
closed = 1;
nodes = (
"180 -240 LINE",
"180 68 LINE",
"182 68 LINE",
"222 17 OFFCURVE",
"279 -10 OFFCURVE",
"349 -10 CURVE SMOOTH",
"482 -10 OFFCURVE",
"555 85 OFFCURVE",
"555 260 CURVE SMOOTH",
"555 434 OFFCURVE",
"482 530 OFFCURVE",
"349 530 CURVE SMOOTH",
"279 530 OFFCURVE",
"222 503 OFFCURVE",
"182 452 CURVE",
"180 452 LINE",
"180 760 LINE",
"72 760 LINE",
"72 -240 LINE"
);
},
{
closed = 1;
nodes = (
"240 80 OFFCURVE",
"180 146 OFFCURVE",
"180 240 CURVE SMOOTH",
"180 280 LINE SMOOTH",
"180 374 OFFCURVE",
"240 440 OFFCURVE",
"325 440 CURVE SMOOTH",
"406 440 OFFCURVE",
"448 379 OFFCURVE",
"448 260 CURVE SMOOTH",
"448 141 OFFCURVE",
"406 80 OFFCURVE",
"325 80 CURVE SMOOTH"
);
}
);
width = 591;
},
{
background = {
components = (
{
name = p;
transform = "{1, 0, 0, 1, -1, 0}";
}
);
};
layerId = "9E6B41AB-2970-4C41-8B35-4DBE0D296A43";
paths = (
{
closed = 1;
nodes = (
"254 -240 LINE",
"254 60 LINE",
"256 60 LINE",
"300 12 OFFCURVE",
"348 -10 OFFCURVE",
"409 -10 CURVE SMOOTH",
"535 -10 OFFCURVE",
"604 85 OFFCURVE",
"604 260 CURVE SMOOTH",
"604 435 OFFCURVE",
"535 530 OFFCURVE",
"409 530 CURVE SMOOTH",
"348 530 OFFCURVE",
"300 508 OFFCURVE",
"256 460 CURVE",
"254 460 LINE",
"254 760 LINE",
"58 760 LINE",
"58 -240 LINE"
);
},
{
closed = 1;
nodes = (
"285 140 OFFCURVE",
"254 177 OFFCURVE",
"254 240 CURVE SMOOTH",
"254 280 LINE SMOOTH",
"254 343 OFFCURVE",
"285 380 OFFCURVE",
"338 380 CURVE SMOOTH",
"390 380 OFFCURVE",
"412 345 OFFCURVE",
"412 260 CURVE SMOOTH",
"412 175 OFFCURVE",
"390 140 OFFCURVE",
"338 140 CURVE SMOOTH"
);
}
);
width = 633;
},
{
associatedMasterId = "D65C9A1E-0FCA-4B2D-8EDF-9F36CA9182A1";
background = {
components = (
{
name = p;
}
);
};
layerId = "0BCAABAB-37FB-445D-B33E-60B4C38D96A8";
name = "Light {232}";
paths = (
{
closed = 1;
nodes = (
"130 -240 LINE",
"130 90 LINE",
"132 90 LINE",
"166 28 OFFCURVE",
"237 -10 OFFCURVE",
"318 -10 CURVE SMOOTH",
"448 -10 OFFCURVE",
"522 87 OFFCURVE",
"522 260 CURVE SMOOTH",
"522 433 OFFCURVE",
"448 530 OFFCURVE",
"318 530 CURVE SMOOTH",
"237 530 OFFCURVE",
"166 492 OFFCURVE",
"132 430 CURVE",
"130 430 LINE",
"130 760 LINE",
"81 760 LINE",
"81 -240 LINE"
);
},
{
closed = 1;
nodes = (
"203 33 OFFCURVE",
"130 116 OFFCURVE",
"130 237 CURVE SMOOTH",
"130 283 LINE SMOOTH",
"130 404 OFFCURVE",
"203 487 OFFCURVE",
"310 487 CURVE SMOOTH",
"415 487 OFFCURVE",
"473 407 OFFCURVE",
"473 260 CURVE SMOOTH",
"473 113 OFFCURVE",
"415 33 OFFCURVE",
"310 33 CURVE SMOOTH"
);
}
);
width = 563;
}
);
leftKerningGroup = b;
leftMetricsKey = "=b";
rightKerningGroup = o;
rightMetricsKey = "=b";
unicode = 00FE;
},
{
color = 11;
glyphname = r;
lastChange = "2020-12-09 11:53:59 +0000";
layers = (
{
anchors = (
{
name = bottom;
position = "{226, 0}";
},
{
name = top;
position = "{226, 520}";
}
);
layerId = "D65C9A1E-0FCA-4B2D-8EDF-9F36CA9182A1";
rightMetricsKey = "=|*.2";
paths = (
{
closed = 1;
nodes = (
"106 0 LINE",
"106 280 LINE SMOOTH",
"106 408 OFFCURVE",
"239 510 OFFCURVE",
"406 510 CURVE",
"406 530 LINE",
"272 530 OFFCURVE",
"154 466 OFFCURVE",
"108 370 CURVE",
"106 370 LINE",
"106 520 LINE",
"86 520 LINE",
"86 0 LINE"
);
}
);
width = 423;
},
{
anchors = (
{
name = bottom;
position = "{243, 0}";
},
{
name = top;
position = "{243, 520}";
}
);
layerId = "9527F797-22C1-480E-A1FE-2CDBEBE1FD4C";
rightMetricsKey = "=|*.25";
paths = (
{
closed = 1;
nodes = (
"181 0 LINE",
"181 250 LINE SMOOTH",
"181 353 OFFCURVE",
"297 435 OFFCURVE",
"442 435 CURVE",
"442 530 LINE",
"332 530 OFFCURVE",
"234 489 OFFCURVE",
"179 420 CURVE",
"177 420 LINE",
"176 520 LINE",
"72 520 LINE",
"72 0 LINE"
);
}
);
width = 460;
},
{
anchors = (
{
name = bottom;
position = "{259, 0}";
},
{
name = top;
position = "{259, 520}";
}
);
layerId = "9E6B41AB-2970-4C41-8B35-4DBE0D296A43";
rightMetricsKey = "=|*.3";
paths = (
{
closed = 1;
nodes = (
"256 0 LINE",
"256 220 LINE SMOOTH",
"256 303 OFFCURVE",
"356 370 OFFCURVE",
"478 370 CURVE",
"478 530 LINE",
"391 530 OFFCURVE",
"313 496 OFFCURVE",
"250 430 CURVE",
"248 430 LINE",
"246 520 LINE",
"58 520 LINE",
"58 0 LINE"
);
}
);
width = 495;
},
{
anchors = (
{
name = bottom;
position = "{231, 0}";
},
{
name = top;
position = "{231, 520}";
}
);
associatedMasterId = "D65C9A1E-0FCA-4B2D-8EDF-9F36CA9182A1";
layerId = "657C252B-5EEF-4E2C-9A2A-557819CBA416";
rightMetricsKey = "=|*.2";
name = "Light {232}";
paths = (
{
closed = 1;
nodes = (
"130 0 LINE",
"130 270 LINE SMOOTH",
"130 398 OFFCURVE",
"246 485 OFFCURVE",
"417 485 CURVE",
"417 530 LINE",
"291 530 OFFCURVE",
"180 481 OFFCURVE",
"131 404 CURVE",
"129 404 LINE",
"128 520 LINE",
"81 520 LINE",
"81 0 LINE"
);
}
);
width = 433;
}
);
leftKerningGroup = n;
leftMetricsKey = "=n";
rightKerningGroup = r;
rightMetricsKey = "=|*.3";
unicode = 0072;
},
{
color = 11;
glyphname = s;
lastChange = "2020-12-09 11:53:59 +0000";
layers = (
{
anchors = (
{
name = bottom;
position = "{253, 0}";
},
{
name = cedi;
position = "{195, 0}";
},
{
name = top;
position = "{253, 520}";
}
);
background = {
anchors = (
{
name = bottom;
position = "{245, 0}";
},
{
name = cedi;
position = "{187, 0}";
},
{
name = top;
position = "{245, 520}";
}
);
paths = (
{
closed = 1;
nodes = (
"384 -10 OFFCURVE",
"466 48 OFFCURVE",
"466 143 CURVE SMOOTH",
"466 241 OFFCURVE",
"383 283 OFFCURVE",
"264 310 CURVE SMOOTH",
"181 332 OFFCURVE",
"153 350 OFFCURVE",
"153 384 CURVE SMOOTH",
"153 421 OFFCURVE",
"188 440 OFFCURVE",
"264 440 CURVE SMOOTH",
"322 440 OFFCURVE",
"379 428 OFFCURVE",
"431 404 CURVE",
"446 494 LINE",
"386 517 OFFCURVE",
"317 530 OFFCURVE",
"251 530 CURVE SMOOTH",
"118 530 OFFCURVE",
"43 478 OFFCURVE",
"43 385 CURVE SMOOTH",
"43 288 OFFCURVE",
"119 251 OFFCURVE",
"242 221 CURVE SMOOTH",
"330 198 OFFCURVE",
"356 180 OFFCURVE",
"356 144 CURVE SMOOTH",
"356 101 OFFCURVE",
"317 80 OFFCURVE",
"240 80 CURVE SMOOTH",
"178 80 OFFCURVE",
"124 94 OFFCURVE",
"64 122 CURVE",
"49 32 LINE",
"105 6 OFFCURVE",
"182 -10 OFFCURVE",
"253 -10 CURVE SMOOTH"
);
}
);
};
layerId = "9527F797-22C1-480E-A1FE-2CDBEBE1FD4C";
paths = (
{
closed = 1;
nodes = (
"390 -10 OFFCURVE",
"473 48 OFFCURVE",
"473 143 CURVE SMOOTH",
"473 227 OFFCURVE",
"409 278 OFFCURVE",
"264 310 CURVE SMOOTH",
"175 331 OFFCURVE",
"146 349 OFFCURVE",
"146 383 CURVE SMOOTH",
"146 422 OFFCURVE",
"183 440 OFFCURVE",
"264 440 CURVE SMOOTH",
"325 440 OFFCURVE",
"386 428 OFFCURVE",
"441 405 CURVE",
"455 494 LINE",
"397 516 OFFCURVE",
"318 530 OFFCURVE",
"250 530 CURVE SMOOTH",
"112 530 OFFCURVE",
"36 478 OFFCURVE",
"36 385 CURVE SMOOTH",
"36 302 OFFCURVE",
"92 257 OFFCURVE",
"242 220 CURVE SMOOTH",
"336 198 OFFCURVE",
"363 181 OFFCURVE",
"363 146 CURVE SMOOTH",
"363 102 OFFCURVE",
"321 80 OFFCURVE",
"239 80 CURVE SMOOTH",
"176 80 OFFCURVE",
"116 94 OFFCURVE",
"53 121 CURVE",
"39 32 LINE",
"96 6 OFFCURVE",
"179 -10 OFFCURVE",
"253 -10 CURVE SMOOTH"
);
}
);
width = 509;
},
{
anchors = (
{
name = bottom;
position = "{264, 0}";
},
{
name = cedi;
position = "{207, 0}";
},
{
name = top;
position = "{264, 520}";
}
);
layerId = "9E6B41AB-2970-4C41-8B35-4DBE0D296A43";
paths = (
{
closed = 1;
nodes = (
"412 -10 OFFCURVE",
"504 54 OFFCURVE",
"504 155 CURVE SMOOTH",
"504 244 OFFCURVE",
"435 299 OFFCURVE",
"286 331 CURVE SMOOTH",
"245 342 OFFCURVE",
"229 351 OFFCURVE",
"229 367 CURVE SMOOTH",
"229 384 OFFCURVE",
"245 390 OFFCURVE",
"291 390 CURVE SMOOTH",
"348 390 OFFCURVE",
"393 380 OFFCURVE",
"464 354 CURVE",
"484 494 LINE",
"411 517 OFFCURVE",
"331 530 OFFCURVE",
"264 530 CURVE SMOOTH",
"110 530 OFFCURVE",
"29 475 OFFCURVE",
"29 370 CURVE SMOOTH",
"29 277 OFFCURVE",
"88 229 OFFCURVE",
"247 191 CURVE SMOOTH",
"294 178 OFFCURVE",
"304 172 OFFCURVE",
"304 157 CURVE SMOOTH",
"304 137 OFFCURVE",
"288 130 OFFCURVE",
"242 130 CURVE SMOOTH",
"183 130 OFFCURVE",
"127 143 OFFCURVE",
"54 172 CURVE",
"34 32 LINE",
"103 4 OFFCURVE",
"181 -10 OFFCURVE",
"269 -10 CURVE SMOOTH"
);
}
);
width = 533;
},
{
anchors = (
{
name = bottom;
position = "{243, 0}";
},
{
name = cedi;
position = "{184, 0}";
},
{
name = top;
position = "{243, 520}";
}
);
background = {
paths = (
{
closed = 0;
nodes = (
"49 40 LINE",
"103 14 OFFCURVE",
"169 0 OFFCURVE",
"237 0 CURVE SMOOTH",
"360 0 OFFCURVE",
"433 48 OFFCURVE",
"433 130 CURVE SMOOTH",
"433 315 OFFCURVE",
"53 224 OFFCURVE",
"53 400 CURVE SMOOTH",
"53 475 OFFCURVE",
"122 520 OFFCURVE",
"237 520 CURVE SMOOTH",
"305 520 OFFCURVE",
"382 505 OFFCURVE",
"422 485 CURVE"
);
}
);
};
layerId = "D65C9A1E-0FCA-4B2D-8EDF-9F36CA9182A1";
paths = (
{
closed = 1;
nodes = (
"366 -10 OFFCURVE",
"443 42 OFFCURVE",
"443 130 CURVE SMOOTH",
"443 232 OFFCURVE",
"338 256 OFFCURVE",
"242 279 CURVE SMOOTH",
"148 301 OFFCURVE",
"63 321 OFFCURVE",
"63 400 CURVE SMOOTH",
"63 469 OFFCURVE",
"127 510 OFFCURVE",
"237 510 CURVE SMOOTH",
"303 510 OFFCURVE",
"379 496 OFFCURVE",
"418 476 CURVE",
"426 494 LINE",
"384 515 OFFCURVE",
"305 530 OFFCURVE",
"237 530 CURVE SMOOTH",
"117 530 OFFCURVE",
"43 481 OFFCURVE",
"43 400 CURVE SMOOTH",
"43 305 OFFCURVE",
"143 282 OFFCURVE",
"237 259 CURVE SMOOTH",
"333 237 OFFCURVE",
"423 216 OFFCURVE",
"423 130 CURVE SMOOTH",
"423 54 OFFCURVE",
"355 10 OFFCURVE",
"237 10 CURVE SMOOTH",
"170 10 OFFCURVE",
"106 24 OFFCURVE",
"53 49 CURVE",
"45 31 LINE",
"100 4 OFFCURVE",
"168 -10 OFFCURVE",
"237 -10 CURVE SMOOTH"
);
}
);
width = 486;
},
{
anchors = (
{
name = bottom;
position = "{227, 0}";
},
{
name = cedi;
position = "{168, 0}";
},
{
name = top;
position = "{227, 520}";
}
);
associatedMasterId = "D65C9A1E-0FCA-4B2D-8EDF-9F36CA9182A1";
background = {
paths = (
{
closed = 0;
nodes = (
"48 40 LINE",
"98 14 OFFCURVE",
"159 0 OFFCURVE",
"222 0 CURVE SMOOTH",
"335 0 OFFCURVE",
"402 48 OFFCURVE",
"402 130 CURVE SMOOTH",
"402 315 OFFCURVE",
"52 224 OFFCURVE",
"52 400 CURVE SMOOTH",
"52 475 OFFCURVE",
"116 520 OFFCURVE",
"222 520 CURVE SMOOTH",
"284 520 OFFCURVE",
"355 505 OFFCURVE",
"392 485 CURVE"
);
}
);
};
layerId = "880752FF-D21B-4C39-BBFD-93283C44A435";
name = "Dec 5 20, 15:22";
paths = (
{
closed = 1;
nodes = (
"341 -10 OFFCURVE",
"412 42 OFFCURVE",
"412 130 CURVE SMOOTH",
"412 231 OFFCURVE",
"315 256 OFFCURVE",
"226 279 CURVE SMOOTH",
"140 301 OFFCURVE",
"62 321 OFFCURVE",
"62 400 CURVE SMOOTH",
"62 469 OFFCURVE",
"121 510 OFFCURVE",
"222 510 CURVE SMOOTH",
"282 510 OFFCURVE",
"351 496 OFFCURVE",
"387 476 CURVE",
"397 494 LINE",
"357 515 OFFCURVE",
"284 530 OFFCURVE",
"222 530 CURVE SMOOTH",
"111 530 OFFCURVE",
"42 481 OFFCURVE",
"42 400 CURVE SMOOTH",
"42 305 OFFCURVE",
"135 282 OFFCURVE",
"221 260 CURVE SMOOTH",
"310 237 OFFCURVE",
"392 216 OFFCURVE",
"392 130 CURVE SMOOTH",
"392 54 OFFCURVE",
"330 10 OFFCURVE",
"222 10 CURVE SMOOTH",
"160 10 OFFCURVE",
"101 24 OFFCURVE",
"53 49 CURVE",
"43 31 LINE",
"95 4 OFFCURVE",
"158 -10 OFFCURVE",
"222 -10 CURVE SMOOTH"
);
}
);
width = 454;
},
{
anchors = (
{
name = bottom;
position = "{246, 0}";
},
{
name = cedi;
position = "{188, 0}";
},
{
name = top;
position = "{246, 520}";
}
);
associatedMasterId = "9527F797-22C1-480E-A1FE-2CDBEBE1FD4C";
layerId = "416E106C-2375-472D-AA95-4C73721F472C";
name = "Dec 5 20, 15:24";
paths = (
{
closed = 1;
nodes = (
"377 -10 OFFCURVE",
"459 48 OFFCURVE",
"459 143 CURVE SMOOTH",
"459 241 OFFCURVE",
"376 283 OFFCURVE",
"257 310 CURVE SMOOTH",
"174 332 OFFCURVE",
"146 350 OFFCURVE",
"146 384 CURVE SMOOTH",
"146 421 OFFCURVE",
"181 440 OFFCURVE",
"257 440 CURVE SMOOTH",
"315 440 OFFCURVE",
"372 428 OFFCURVE",
"424 404 CURVE",
"439 494 LINE",
"379 517 OFFCURVE",
"310 530 OFFCURVE",
"244 530 CURVE SMOOTH",
"111 530 OFFCURVE",
"36 478 OFFCURVE",
"36 385 CURVE SMOOTH",
"36 288 OFFCURVE",
"112 251 OFFCURVE",
"235 221 CURVE SMOOTH",
"323 198 OFFCURVE",
"349 180 OFFCURVE",
"349 144 CURVE SMOOTH",
"349 101 OFFCURVE",
"310 80 OFFCURVE",
"233 80 CURVE SMOOTH",
"171 80 OFFCURVE",
"117 94 OFFCURVE",
"57 122 CURVE",
"42 32 LINE",
"98 6 OFFCURVE",
"175 -10 OFFCURVE",
"246 -10 CURVE SMOOTH"
);
}
);
width = 495;
}
);
leftKerningGroup = s;
leftMetricsKey = "=h*.5";
rightKerningGroup = s;
rightMetricsKey = "=|";
unicode = 0073;
},
{
color = 11;
glyphname = germandbls;
lastChange = "2020-12-09 11:53:59 +0000";
layers = (
{
layerId = "D65C9A1E-0FCA-4B2D-8EDF-9F36CA9182A1";
rightMetricsKey = "=X*.7";
paths = (
{
closed = 1;
nodes = (
"452 -10 OFFCURVE",
"526 57 OFFCURVE",
"526 160 CURVE SMOOTH",
"526 224 OFFCURVE",
"501 264 OFFCURVE",
"398 360 CURVE SMOOTH",
"356 400 OFFCURVE",
"346 411 OFFCURVE",
"346 420 CURVE SMOOTH",
"346 427 OFFCURVE",
"352 436 OFFCURVE",
"385 473 CURVE SMOOTH",
"454 548 OFFCURVE",
"476 588 OFFCURVE",
"476 640 CURVE SMOOTH",
"476 719 OFFCURVE",
"410 760 OFFCURVE",
"286 760 CURVE SMOOTH",
"138 760 OFFCURVE",
"86 706 OFFCURVE",
"86 555 CURVE SMOOTH",
"86 0 LINE",
"106 0 LINE",
"106 555 LINE SMOOTH",
"106 696 OFFCURVE",
"150 740 OFFCURVE",
"286 740 CURVE SMOOTH",
"400 740 OFFCURVE",
"456 706 OFFCURVE",
"456 640 CURVE SMOOTH",
"456 594 OFFCURVE",
"437 559 OFFCURVE",
"370 486 CURVE SMOOTH",
"340 453 OFFCURVE",
"326 436 OFFCURVE",
"326 420 CURVE SMOOTH",
"326 401 OFFCURVE",
"344 383 OFFCURVE",
"384 345 CURVE SMOOTH",
"482 252 OFFCURVE",
"506 218 OFFCURVE",
"506 160 CURVE SMOOTH",
"506 69 OFFCURVE",
"442 10 OFFCURVE",
"341 10 CURVE SMOOTH",
"299 10 OFFCURVE",
"235 20 OFFCURVE",
"184 35 CURVE",
"178 15 LINE",
"233 0 OFFCURVE",
"297 -10 OFFCURVE",
"341 -10 CURVE SMOOTH"
);
}
);
width = 571;
},
{
layerId = "9527F797-22C1-480E-A1FE-2CDBEBE1FD4C";
rightMetricsKey = "=X*.9";
paths = (
{
closed = 1;
nodes = (
"491 -10 OFFCURVE",
"564 51 OFFCURVE",
"564 153 CURVE SMOOTH",
"564 207 OFFCURVE",
"542 247 OFFCURVE",
"470 324 CURVE SMOOTH",
"424 373 OFFCURVE",
"414 386 OFFCURVE",
"414 398 CURVE SMOOTH",
"414 408 OFFCURVE",
"424 424 OFFCURVE",
"458 469 CURVE SMOOTH",
"513 541 OFFCURVE",
"529 574 OFFCURVE",
"529 615 CURVE SMOOTH",
"529 707 OFFCURVE",
"446 760 OFFCURVE",
"303 760 CURVE SMOOTH",
"143 760 OFFCURVE",
"72 692 OFFCURVE",
"72 538 CURVE SMOOTH",
"72 0 LINE",
"180 0 LINE",
"180 537 LINE SMOOTH",
"180 637 OFFCURVE",
"209 665 OFFCURVE",
"308 665 CURVE SMOOTH",
"387 665 OFFCURVE",
"423 647 OFFCURVE",
"423 609 CURVE SMOOTH",
"423 583 OFFCURVE",
"407 555 OFFCURVE",
"353 489 CURVE SMOOTH",
"314 440 OFFCURVE",
"303 420 OFFCURVE",
"303 398 CURVE SMOOTH",
"303 372 OFFCURVE",
"319 345 OFFCURVE",
"361 300 CURVE SMOOTH",
"443 214 OFFCURVE",
"458 193 OFFCURVE",
"458 164 CURVE SMOOTH",
"458 116 OFFCURVE",
"417 85 OFFCURVE",
"353 85 CURVE SMOOTH",
"324 85 OFFCURVE",
"286 92 OFFCURVE",
"250 103 CURVE",
"235 8 LINE",
"283 -4 OFFCURVE",
"332 -10 OFFCURVE",
"370 -10 CURVE SMOOTH"
);
}
);
width = 604;
},
{
layerId = "9E6B41AB-2970-4C41-8B35-4DBE0D296A43";
rightMetricsKey = "=X*1.1";
paths = (
{
closed = 1;
nodes = (
"528 -10 OFFCURVE",
"603 47 OFFCURVE",
"603 145 CURVE SMOOTH",
"603 192 OFFCURVE",
"586 232 OFFCURVE",
"543 288 CURVE SMOOTH",
"512 327 OFFCURVE",
"489 365 OFFCURVE",
"489 377 CURVE SMOOTH",
"489 386 OFFCURVE",
"501 407 OFFCURVE",
"539 465 CURVE SMOOTH",
"575 521 OFFCURVE",
"589 556 OFFCURVE",
"589 590 CURVE SMOOTH",
"589 691 OFFCURVE",
"480 760 OFFCURVE",
"319 760 CURVE SMOOTH",
"141 760 OFFCURVE",
"58 684 OFFCURVE",
"58 520 CURVE SMOOTH",
"58 0 LINE",
"254 0 LINE",
"254 513 LINE SMOOTH",
"254 586 OFFCURVE",
"266 600 OFFCURVE",
"329 600 CURVE SMOOTH",
"377 600 OFFCURVE",
"399 590 OFFCURVE",
"399 568 CURVE SMOOTH",
"399 547 OFFCURVE",
"380 510 OFFCURVE",
"351 474 CURVE SMOOTH",
"312 425 OFFCURVE",
"299 400 OFFCURVE",
"299 375 CURVE SMOOTH",
"299 351 OFFCURVE",
"311 330 OFFCURVE",
"353 274 CURVE SMOOTH",
"395 218 OFFCURVE",
"407 196 OFFCURVE",
"407 177 CURVE SMOOTH",
"407 156 OFFCURVE",
"392 145 OFFCURVE",
"364 145 CURVE SMOOTH",
"350 145 OFFCURVE",
"330 148 OFFCURVE",
"304 155 CURVE",
"294 0 LINE",
"338 -7 OFFCURVE",
"370 -10 OFFCURVE",
"399 -10 CURVE SMOOTH"
);
}
);
width = 635;
}
);
leftKerningGroup = h;
leftMetricsKey = "=b";
rightKerningGroup = X;
rightMetricsKey = "=X*1.1";
unicode = 00DF;
},
{
color = 11;
glyphname = t;
lastChange = "2020-12-09 11:54:00 +0000";
layers = (
{
anchors = (
{
name = bottom;
position = "{251, 0}";
},
{
name = cedi;
position = "{259, 0}";
},
{
name = center;
position = "{251, 260}";
},
{
name = top;
position = "{251, 520}";
},
{
name = topright;
position = "{438, 520}";
}
);
layerId = "D65C9A1E-0FCA-4B2D-8EDF-9F36CA9182A1";
leftMetricsKey = "=f*1.4";
rightMetricsKey = "=c*.6";
paths = (
{
closed = 1;
nodes = (
"368 -10 OFFCURVE",
"402 -5 OFFCURVE",
"436 5 CURVE",
"430 24 LINE",
"398 15 OFFCURVE",
"366 10 OFFCURVE",
"331 10 CURVE SMOOTH",
"238 10 OFFCURVE",
"208 41 OFFCURVE",
"208 140 CURVE SMOOTH",
"208 500 LINE",
"434 500 LINE",
"434 520 LINE",
"208 520 LINE",
"208 690 LINE",
"188 690 LINE",
"188 520 LINE",
"36 520 LINE",
"36 500 LINE",
"188 500 LINE",
"188 140 LINE SMOOTH",
"188 30 OFFCURVE",
"226 -10 OFFCURVE",
"331 -10 CURVE SMOOTH"
);
}
);
width = 477;
},
{
anchors = (
{
name = bottom;
position = "{252, 0}";
},
{
name = cedi;
position = "{236, 0}";
},
{
name = center;
position = "{252, 260}";
},
{
name = top;
position = "{252, 520}";
},
{
name = topright;
position = "{472, 520}";
}
);
layerId = "9527F797-22C1-480E-A1FE-2CDBEBE1FD4C";
rightMetricsKey = "=c*.8";
paths = (
{
closed = 1;
nodes = (
"361 -10 OFFCURVE",
"402 -5 OFFCURVE",
"448 8 CURVE",
"437 100 LINE",
"404 90 OFFCURVE",
"370 85 OFFCURVE",
"340 85 CURVE SMOOTH",
"278 85 OFFCURVE",
"258 106 OFFCURVE",
"258 170 CURVE SMOOTH",
"258 430 LINE",
"448 430 LINE",
"448 520 LINE",
"258 520 LINE",
"258 690 LINE",
"149 690 LINE",
"149 520 LINE",
"18 520 LINE",
"18 430 LINE",
"149 430 LINE",
"149 150 LINE SMOOTH",
"149 34 OFFCURVE",
"196 -10 OFFCURVE",
"318 -10 CURVE SMOOTH"
);
}
);
width = 494;
},
{
anchors = (
{
name = bottom;
position = "{268, 0}";
},
{
name = cedi;
position = "{228, 0}";
},
{
name = center;
position = "{268, 260}";
},
{
name = top;
position = "{268, 520}";
},
{
name = topright;
position = "{520, 520}";
}
);
layerId = "9E6B41AB-2970-4C41-8B35-4DBE0D296A43";
leftMetricsKey = "=f*.8";
rightMetricsKey = "=c*1";
paths = (
{
closed = 1;
nodes = (
"368 -10 OFFCURVE",
"417 -4 OFFCURVE",
"474 10 CURVE",
"459 155 LINE",
"431 147 OFFCURVE",
"389 140 OFFCURVE",
"364 140 CURVE SMOOTH",
"331 140 OFFCURVE",
"322 152 OFFCURVE",
"322 200 CURVE SMOOTH",
"322 380 LINE",
"477 380 LINE",
"477 520 LINE",
"322 520 LINE",
"322 690 LINE",
"124 690 LINE",
"124 520 LINE",
"14 520 LINE",
"14 380 LINE",
"124 380 LINE",
"124 160 LINE SMOOTH",
"124 38 OFFCURVE",
"180 -10 OFFCURVE",
"319 -10 CURVE SMOOTH"
);
}
);
width = 523;
},
{
anchors = (
{
name = bottom;
position = "{238, 0}";
},
{
name = cedi;
position = "{235, 0}";
},
{
name = center;
position = "{242, 260}";
},
{
name = top;
position = "{242, 520}";
},
{
name = topright;
position = "{462, 520}";
}
);
associatedMasterId = "9527F797-22C1-480E-A1FE-2CDBEBE1FD4C";
layerId = "A8B345D4-4400-42C7-99E3-6CC35A0018D7";
rightMetricsKey = "=c*.8";
name = "Dec 5 20, 15:36";
paths = (
{
closed = 1;
nodes = (
"342 -10 OFFCURVE",
"381 -5 OFFCURVE",
"427 8 CURVE",
"417 100 LINE",
"386 90 OFFCURVE",
"353 85 OFFCURVE",
"325 85 CURVE SMOOTH",
"269 85 OFFCURVE",
"250 106 OFFCURVE",
"250 170 CURVE SMOOTH",
"250 430 LINE",
"427 430 LINE",
"427 520 LINE",
"250 520 LINE",
"250 690 LINE",
"141 690 LINE",
"141 520 LINE",
"18 520 LINE",
"18 430 LINE",
"141 430 LINE",
"141 150 LINE SMOOTH",
"141 35 OFFCURVE",
"186 -10 OFFCURVE",
"303 -10 CURVE SMOOTH"
);
}
);
width = 473;
}
);
leftKerningGroup = f;
leftMetricsKey = "=f*.8";
rightKerningGroup = c;
rightMetricsKey = "=c*1.2";
unicode = 0074;
},
{
color = 11;
glyphname = tbar;
lastChange = "2020-12-09 07:59:53 +0000";
layers = (
{
components = (
{
name = t;
}
);
layerId = "D65C9A1E-0FCA-4B2D-8EDF-9F36CA9182A1";
paths = (
{
closed = 1;
nodes = (
"375 240 LINE",
"375 260 LINE",
"35 260 LINE",
"35 240 LINE"
);
}
);
width = 421;
},
{
components = (
{
alignment = -1;
name = t;
}
);
layerId = "9527F797-22C1-480E-A1FE-2CDBEBE1FD4C";
paths = (
{
closed = 1;
nodes = (
"418 210 LINE",
"418 300 LINE",
"18 300 LINE",
"18 210 LINE"
);
}
);
width = 473;
},
{
components = (
{
name = t;
}
);
layerId = "9E6B41AB-2970-4C41-8B35-4DBE0D296A43";
paths = (
{
closed = 1;
nodes = (
"474 190 LINE",
"474 330 LINE",
"14 330 LINE",
"14 190 LINE"
);
}
);
width = 525;
}
);
leftKerningGroup = f;
rightKerningGroup = c;
unicode = 0167;
},
{
color = 11;
glyphname = u;
lastChange = "2020-12-09 11:53:59 +0000";
layers = (
{
anchors = (
{
name = bottom;
position = "{273, 0}";
},
{
name = ogonek;
position = "{469, 0}";
},
{
name = top;
position = "{273, 520}";
},
{
name = top_ring;
position = "{273, 540}";
},
{
name = topright;
position = "{469, 480}";
}
);
layerId = "D65C9A1E-0FCA-4B2D-8EDF-9F36CA9182A1";
paths = (
{
closed = 1;
nodes = (
"328 -10 OFFCURVE",
"409 44 OFFCURVE",
"447 132 CURVE",
"449 132 LINE",
"449 0 LINE",
"469 0 LINE",
"469 520 LINE",
"449 520 LINE",
"449 230 LINE SMOOTH",
"449 107 OFFCURVE",
"355 10 OFFCURVE",
"235 10 CURVE SMOOTH",
"138 10 OFFCURVE",
"89 74 OFFCURVE",
"89 200 CURVE SMOOTH",
"89 520 LINE",
"69 520 LINE",
"69 200 LINE SMOOTH",
"69 64 OFFCURVE",
"126 -10 OFFCURVE",
"235 -10 CURVE SMOOTH"
);
}
);
width = 555;
},
{
anchors = (
{
name = bottom;
position = "{292, 0}";
},
{
name = ogonek;
position = "{518, 0}";
},
{
name = top;
position = "{292, 520}";
},
{
name = top_ring;
position = "{292, 540}";
},
{
name = topright;
position = "{503, 480}";
}
);
layerId = "9527F797-22C1-480E-A1FE-2CDBEBE1FD4C";
paths = (
{
closed = 1;
nodes = (
"304 -10 OFFCURVE",
"370 21 OFFCURVE",
"412 76 CURVE",
"414 76 LINE",
"415 0 LINE",
"518 0 LINE",
"518 520 LINE",
"410 520 LINE",
"410 255 LINE SMOOTH",
"410 163 OFFCURVE",
"338 80 OFFCURVE",
"258 80 CURVE SMOOTH",
"197 80 OFFCURVE",
"166 128 OFFCURVE",
"166 220 CURVE SMOOTH",
"166 520 LINE",
"58 520 LINE",
"58 200 LINE SMOOTH",
"58 59 OFFCURVE",
"114 -10 OFFCURVE",
"228 -10 CURVE SMOOTH"
);
}
);
width = 590;
},
{
anchors = (
{
name = bottom;
position = "{309, 0}";
},
{
name = ogonek;
position = "{566, 0}";
},
{
name = top;
position = "{309, 520}";
},
{
name = top_ring;
position = "{309, 540}";
},
{
name = topright;
position = "{536, 480}";
}
);
layerId = "9E6B41AB-2970-4C41-8B35-4DBE0D296A43";
paths = (
{
closed = 1;
nodes = (
"284 -10 OFFCURVE",
"329 10 OFFCURVE",
"376 60 CURVE",
"378 60 LINE",
"380 0 LINE",
"566 0 LINE",
"566 520 LINE",
"370 520 LINE",
"370 220 LINE SMOOTH",
"370 179 OFFCURVE",
"338 150 OFFCURVE",
"296 150 CURVE SMOOTH",
"257 150 OFFCURVE",
"242 175 OFFCURVE",
"242 240 CURVE SMOOTH",
"242 520 LINE",
"46 520 LINE",
"46 200 LINE SMOOTH",
"46 53 OFFCURVE",
"97 -10 OFFCURVE",
"216 -10 CURVE SMOOTH"
);
}
);
width = 624;
},
{
anchors = (
{
name = bottom;
position = "{279, 0}";
},
{
name = ogonek;
position = "{484, 0}";
},
{
name = top;
position = "{279, 520}";
},
{
name = top_ring;
position = "{279, 540}";
},
{
name = topright;
position = "{480, 480}";
}
);
associatedMasterId = "D65C9A1E-0FCA-4B2D-8EDF-9F36CA9182A1";
background = {
anchors = (
{
name = bottom;
position = "{277, 0}";
},
{
name = ogonek;
position = "{478, 0}";
},
{
name = top;
position = "{277, 520}";
},
{
name = top_ring;
position = "{277, 540}";
},
{
name = topright;
position = "{473, 480}";
}
);
paths = (
{
closed = 1;
nodes = (
"321 -10 OFFCURVE",
"395 31 OFFCURVE",
"434 96 CURVE",
"436 96 LINE",
"436 0 LINE",
"484 0 LINE",
"484 520 LINE",
"435 520 LINE",
"435 238 LINE SMOOTH",
"435 126 OFFCURVE",
"352 33 OFFCURVE",
"251 33 CURVE SMOOTH",
"169 33 OFFCURVE",
"123 94 OFFCURVE",
"123 207 CURVE SMOOTH",
"123 520 LINE",
"74 520 LINE",
"74 200 LINE SMOOTH",
"74 65 OFFCURVE",
"133 -10 OFFCURVE",
"241 -10 CURVE SMOOTH"
);
}
);
};
layerId = "245D3822-9188-491B-8A3B-367571E408B0";
name = "Light {232}";
paths = (
{
closed = 1;
nodes = (
"318 -10 OFFCURVE",
"396 32 OFFCURVE",
"435 98 CURVE",
"437 98 LINE",
"437 0 LINE",
"484 0 LINE",
"484 520 LINE",
"435 520 LINE",
"435 238 LINE SMOOTH",
"435 125 OFFCURVE",
"349 33 OFFCURVE",
"242 33 CURVE SMOOTH",
"157 33 OFFCURVE",
"114 92 OFFCURVE",
"114 207 CURVE SMOOTH",
"114 520 LINE",
"65 520 LINE",
"65 200 LINE SMOOTH",
"65 60 OFFCURVE",
"120 -10 OFFCURVE",
"232 -10 CURVE SMOOTH"
);
}
);
width = 565;
}
);
leftKerningGroup = u;
leftMetricsKey = "=|n";
rightKerningGroup = u;
rightMetricsKey = "=|n";
unicode = 0075;
},
{
color = 11;
glyphname = v;
lastChange = "2020-12-10 02:24:00 +0000";
layers = (
{
layerId = "D65C9A1E-0FCA-4B2D-8EDF-9F36CA9182A1";
paths = (
{
closed = 1;
nodes = (
"264 0 LINE",
"484 520 LINE",
"462 520 LINE",
"250 17 LINE",
"248 17 LINE",
"36 520 LINE",
"14 520 LINE",
"234 0 LINE"
);
}
);
width = 498;
},
{
layerId = "9527F797-22C1-480E-A1FE-2CDBEBE1FD4C";
paths = (
{
closed = 1;
nodes = (
"347 0 LINE",
"533 520 LINE",
"415 520 LINE",
"272 78 LINE",
"270 78 LINE",
"127 520 LINE",
"9 520 LINE",
"195 0 LINE"
);
}
);
width = 542;
},
{
layerId = "9E6B41AB-2970-4C41-8B35-4DBE0D296A43";
paths = (
{
closed = 1;
nodes = (
"431 0 LINE",
"583 520 LINE",
"381 520 LINE",
"295 120 LINE",
"293 120 LINE",
"207 520 LINE",
"5 520 LINE",
"157 0 LINE"
);
}
);
width = 588;
}
);
leftKerningGroup = v;
leftMetricsKey = "=|k*.4";
rightKerningGroup = v;
rightMetricsKey = "=|";
unicode = 0076;
},
{
color = 11;
glyphname = w;
lastChange = "2020-12-11 07:13:17 +0000";
layers = (
{
anchors = (
{
name = bottom;
position = "{368, 0}";
},
{
name = top;
position = "{368, 520}";
}
);
layerId = "D65C9A1E-0FCA-4B2D-8EDF-9F36CA9182A1";
leftMetricsKey = "=v*2";
paths = (
{
closed = 1;
nodes = (
"218 0 LINE",
"367 499 LINE",
"369 499 LINE",
"518 0 LINE",
"548 0 LINE",
"708 520 LINE",
"687 520 LINE",
"534 21 LINE",
"532 21 LINE",
"383 520 LINE",
"353 520 LINE",
"204 21 LINE",
"202 21 LINE",
"49 520 LINE",
"28 520 LINE",
"188 0 LINE"
);
}
);
width = 736;
},
{
anchors = (
{
name = bottom;
position = "{393, 0}";
},
{
name = top;
position = "{393, 520}";
}
);
layerId = "9527F797-22C1-480E-A1FE-2CDBEBE1FD4C";
leftMetricsKey = "=v*2.4";
paths = (
{
closed = 1;
nodes = (
"303 0 LINE",
"392 405 LINE",
"394 405 LINE",
"483 0 LINE",
"623 0 LINE",
"764 520 LINE",
"646 520 LINE",
"557 105 LINE",
"555 105 LINE",
"466 520 LINE",
"320 520 LINE",
"231 105 LINE",
"229 105 LINE",
"140 520 LINE",
"22 520 LINE",
"163 0 LINE"
);
}
);
width = 786;
},
{
anchors = (
{
name = bottom;
position = "{416, 0}";
},
{
name = top;
position = "{416, 520}";
}
);
layerId = "9E6B41AB-2970-4C41-8B35-4DBE0D296A43";
leftMetricsKey = "=v*2.8";
paths = (
{
closed = 1;
nodes = (
"371 0 LINE",
"415 350 LINE",
"417 350 LINE",
"461 0 LINE",
"696 0 LINE",
"818 520 LINE",
"624 520 LINE",
"582 170 LINE",
"580 170 LINE",
"534 520 LINE",
"298 520 LINE",
"252 170 LINE",
"250 170 LINE",
"208 520 LINE",
"14 520 LINE",
"136 0 LINE"
);
}
);
width = 832;
}
);
leftKerningGroup = v;
leftMetricsKey = "=v*2.8";
rightKerningGroup = v;
rightMetricsKey = "=|";
unicode = 0077;
},
{
color = 11;
glyphname = x;
lastChange = "2020-12-10 02:24:02 +0000";
layers = (
{
layerId = "D65C9A1E-0FCA-4B2D-8EDF-9F36CA9182A1";
leftMetricsKey = "=|k";
paths = (
{
closed = 1;
nodes = (
"60 0 LINE",
"253 247 LINE",
"255 247 LINE",
"448 0 LINE",
"474 0 LINE",
"267 263 LINE",
"469 520 LINE",
"443 520 LINE",
"255 279 LINE",
"253 279 LINE",
"65 520 LINE",
"39 520 LINE",
"241 263 LINE",
"34 0 LINE"
);
}
);
width = 508;
},
{
layerId = "9527F797-22C1-480E-A1FE-2CDBEBE1FD4C";
leftMetricsKey = "=|k*1.4";
paths = (
{
closed = 1;
nodes = (
"155 0 LINE",
"277 204 LINE",
"279 204 LINE",
"401 0 LINE",
"525 0 LINE",
"352 262 LINE",
"522 520 LINE",
"398 520 LINE",
"279 320 LINE",
"277 320 LINE",
"158 520 LINE",
"34 520 LINE",
"204 262 LINE",
"31 0 LINE"
);
}
);
width = 556;
},
{
layerId = "9E6B41AB-2970-4C41-8B35-4DBE0D296A43";
leftMetricsKey = "=|k*1.8";
paths = (
{
closed = 1;
nodes = (
"224 0 LINE",
"294 160 LINE",
"296 160 LINE",
"366 0 LINE",
"568 0 LINE",
"430 260 LINE",
"566 520 LINE",
"364 520 LINE",
"296 360 LINE",
"294 360 LINE",
"226 520 LINE",
"24 520 LINE",
"160 260 LINE",
"22 0 LINE"
);
}
);
width = 590;
}
);
leftKerningGroup = x;
leftMetricsKey = "=|k*1.8";
rightKerningGroup = x;
rightMetricsKey = "=|";
unicode = 0078;
},
{
color = 11;
glyphname = y;
lastChange = "2020-12-11 07:13:19 +0000";
layers = (
{
anchors = (
{
name = bottom;
position = "{259, 0}";
},
{
name = dotR;
position = "{281, -210}";
},
{
name = top;
position = "{259, 520}";
}
);
layerId = "D65C9A1E-0FCA-4B2D-8EDF-9F36CA9182A1";
leftMetricsKey = "=v*1.6";
rightMetricsKey = "=v";
paths = (
{
closed = 1;
nodes = (
"504 520 LINE",
"481 520 LINE",
"255 35 LINE",
"253 35 LINE",
"45 520 LINE",
"22 518 LINE",
"243 9 LINE",
"140 -210 LINE",
"162 -210 LINE"
);
}
);
width = 518;
},
{
anchors = (
{
name = bottom;
position = "{274, 0}";
},
{
name = dotR;
position = "{352, -210}";
},
{
name = top;
position = "{274, 520}";
}
);
layerId = "9527F797-22C1-480E-A1FE-2CDBEBE1FD4C";
leftMetricsKey = "=v*.9";
paths = (
{
closed = 1;
nodes = (
"544 520 LINE",
"428 520 LINE",
"274 118 LINE",
"272 118 LINE",
"124 520 LINE",
"8 519 LINE",
"219 5 LINE",
"128 -210 LINE",
"242 -210 LINE"
);
}
);
width = 549;
},
{
anchors = (
{
name = bottom;
position = "{296, 0}";
},
{
name = dotR;
position = "{430, -210}";
},
{
name = top;
position = "{296, 520}";
}
);
layerId = "9E6B41AB-2970-4C41-8B35-4DBE0D296A43";
leftMetricsKey = "=v*.2";
rightMetricsKey = "=v*.2";
paths = (
{
closed = 1;
nodes = (
"591 520 LINE",
"381 520 LINE",
"301 170 LINE",
"299 170 LINE",
"211 520 LINE",
"1 520 LINE",
"202 0 LINE",
"124 -210 LINE",
"329 -210 LINE"
);
}
);
width = 592;
}
);
leftKerningGroup = v;
leftMetricsKey = "=v*.2";
rightKerningGroup = v;
rightMetricsKey = "=v*.6";
unicode = 0079;
},
{
color = 11;
glyphname = z;
lastChange = "2020-12-09 11:53:59 +0000";
layers = (
{
anchors = (
{
name = bottom;
position = "{247, 0}";
},
{
name = center;
position = "{247, 260}";
},
{
name = top;
position = "{247, 520}";
}
);
layerId = "D65C9A1E-0FCA-4B2D-8EDF-9F36CA9182A1";
leftMetricsKey = "=h*.6";
paths = (
{
closed = 1;
nodes = (
"442 0 LINE",
"442 20 LINE",
"79 20 LINE",
"79 22 LINE",
"442 500 LINE",
"442 520 LINE",
"52 520 LINE",
"52 500 LINE",
"415 500 LINE",
"415 498 LINE",
"52 20 LINE",
"52 0 LINE"
);
}
);
width = 494;
},
{
anchors = (
{
name = bottom;
position = "{269, 0}";
},
{
name = center;
position = "{269, 260}";
},
{
name = top;
position = "{269, 520}";
}
);
layerId = "9527F797-22C1-480E-A1FE-2CDBEBE1FD4C";
leftMetricsKey = "=h*.75";
paths = (
{
closed = 1;
nodes = (
"484 0 LINE",
"484 90 LINE",
"195 90 LINE",
"195 92 LINE",
"484 430 LINE",
"484 520 LINE",
"54 520 LINE",
"54 430 LINE",
"343 430 LINE",
"343 428 LINE",
"54 90 LINE",
"54 0 LINE"
);
}
);
width = 538;
},
{
anchors = (
{
name = bottom;
position = "{287, 0}";
},
{
name = center;
position = "{287, 260}";
},
{
name = top;
position = "{287, 520}";
}
);
layerId = "9E6B41AB-2970-4C41-8B35-4DBE0D296A43";
leftMetricsKey = "=h*.9";
paths = (
{
closed = 1;
nodes = (
"522 0 LINE",
"522 140 LINE",
"299 140 LINE",
"299 142 LINE",
"522 380 LINE",
"522 520 LINE",
"52 520 LINE",
"52 380 LINE",
"275 380 LINE",
"275 378 LINE",
"52 140 LINE",
"52 0 LINE"
);
}
);
width = 574;
},
{
anchors = (
{
name = bottom;
position = "{264, 0}";
},
{
name = center;
position = "{264, 260}";
},
{
name = top;
position = "{264, 520}";
}
);
associatedMasterId = "9527F797-22C1-480E-A1FE-2CDBEBE1FD4C";
layerId = "020B4751-02F4-433A-B141-AB212E88AC09";
leftMetricsKey = "=h*.75";
name = "Dec 5 20, 16:52";
paths = (
{
closed = 1;
nodes = (
"474 0 LINE",
"474 90 LINE",
"190 90 LINE",
"190 92 LINE",
"474 430 LINE",
"474 520 LINE",
"54 520 LINE",
"54 430 LINE",
"338 430 LINE",
"338 428 LINE",
"54 90 LINE",
"54 0 LINE"
);
}
);
width = 528;
}
);
leftKerningGroup = z;
leftMetricsKey = "=h*.9";
rightKerningGroup = z;
rightMetricsKey = "=|";
unicode = 007A;
},
{
glyphname = f_f;
lastChange = "2020-12-09 11:55:07 +0000";
layers = (
{
background = {
components = (
{
name = f;
transform = "{1, 0, 0, 1, 1, 0}";
},
{
name = f;
transform = "{1, 0, 0, 1, 341, 0}";
}
);
};
layerId = "D65C9A1E-0FCA-4B2D-8EDF-9F36CA9182A1";
paths = (
{
closed = 1;
nodes = (
"220 0 LINE",
"220 500 LINE",
"541 500 LINE",
"541 0 LINE",
"561 0 LINE",
"561 500 LINE",
"765 500 LINE",
"765 520 LINE",
"561 520 LINE",
"561 620 LINE SMOOTH",
"561 711 OFFCURVE",
"598 750 OFFCURVE",
"685 750 CURVE SMOOTH",
"712 750 OFFCURVE",
"733 746 OFFCURVE",
"760 736 CURVE",
"767 755 LINE",
"737 766 OFFCURVE",
"713 770 OFFCURVE",
"685 770 CURVE SMOOTH",
"587 770 OFFCURVE",
"541 722 OFFCURVE",
"541 620 CURVE SMOOTH",
"541 520 LINE",
"220 520 LINE",
"220 620 LINE SMOOTH",
"220 711 OFFCURVE",
"257 750 OFFCURVE",
"344 750 CURVE SMOOTH",
"371 750 OFFCURVE",
"392 746 OFFCURVE",
"419 736 CURVE",
"426 755 LINE",
"396 766 OFFCURVE",
"372 770 OFFCURVE",
"344 770 CURVE SMOOTH",
"246 770 OFFCURVE",
"200 722 OFFCURVE",
"200 620 CURVE SMOOTH",
"200 520 LINE",
"26 520 LINE",
"26 500 LINE",
"200 500 LINE",
"200 0 LINE"
);
}
);
width = 793;
},
{
layerId = "9527F797-22C1-480E-A1FE-2CDBEBE1FD4C";
paths = (
{
closed = 1;
nodes = (
"278 0 LINE",
"278 430 LINE",
"539 430 LINE",
"539 0 LINE",
"648 0 LINE",
"648 430 LINE",
"822 430 LINE",
"822 520 LINE",
"648 520 LINE",
"648 585 LINE SMOOTH",
"648 652 OFFCURVE",
"672 677 OFFCURVE",
"737 677 CURVE SMOOTH",
"763 677 OFFCURVE",
"785 673 OFFCURVE",
"812 665 CURVE",
"826 755 LINE",
"788 766 OFFCURVE",
"752 770 OFFCURVE",
"720 770 CURVE SMOOTH",
"600 770 OFFCURVE",
"539 708 OFFCURVE",
"539 585 CURVE SMOOTH",
"539 520 LINE",
"278 520 LINE",
"278 585 LINE SMOOTH",
"278 652 OFFCURVE",
"302 677 OFFCURVE",
"367 677 CURVE SMOOTH",
"393 677 OFFCURVE",
"415 673 OFFCURVE",
"442 665 CURVE",
"456 755 LINE",
"418 766 OFFCURVE",
"382 770 OFFCURVE",
"350 770 CURVE SMOOTH",
"230 770 OFFCURVE",
"169 708 OFFCURVE",
"169 585 CURVE SMOOTH",
"169 520 LINE",
"22 520 LINE",
"22 430 LINE",
"169 430 LINE",
"169 0 LINE"
);
}
);
width = 848;
},
{
background = {
components = (
{
name = f;
transform = "{1, 0, 0, 1, -1, 0}";
},
{
name = f;
transform = "{1, 0, 0, 1, 399, 0}";
}
);
};
layerId = "9E6B41AB-2970-4C41-8B35-4DBE0D296A43";
paths = (
{
closed = 1;
nodes = (
"335 0 LINE",
"335 380 LINE",
"537 380 LINE",
"537 0 LINE",
"735 0 LINE",
"735 380 LINE",
"880 380 LINE",
"880 520 LINE",
"735 520 LINE",
"735 550 LINE SMOOTH",
"735 605 OFFCURVE",
"747 620 OFFCURVE",
"790 620 CURVE SMOOTH",
"812 620 OFFCURVE",
"838 616 OFFCURVE",
"865 610 CURVE",
"885 755 LINE",
"839 765 OFFCURVE",
"791 770 OFFCURVE",
"755 770 CURVE SMOOTH",
"613 770 OFFCURVE",
"537 693 OFFCURVE",
"537 550 CURVE SMOOTH",
"537 520 LINE",
"335 520 LINE",
"335 550 LINE SMOOTH",
"335 605 OFFCURVE",
"347 620 OFFCURVE",
"390 620 CURVE SMOOTH",
"412 620 OFFCURVE",
"438 616 OFFCURVE",
"465 610 CURVE",
"485 755 LINE",
"439 765 OFFCURVE",
"391 770 OFFCURVE",
"355 770 CURVE SMOOTH",
"213 770 OFFCURVE",
"137 693 OFFCURVE",
"137 550 CURVE SMOOTH",
"137 520 LINE",
"17 520 LINE",
"17 380 LINE",
"137 380 LINE",
"137 0 LINE"
);
}
);
width = 902;
}
);
leftKerningGroup = f;
leftMetricsKey = f;
rightKerningGroup = f;
rightMetricsKey = f;
},
{
glyphname = m_p_l_u_s_f_o_n_t_s;
lastChange = "2020-12-09 11:53:59 +0000";
layers = (
{
layerId = "D65C9A1E-0FCA-4B2D-8EDF-9F36CA9182A1";
paths = (
{
closed = 1;
nodes = (
"265 0 LINE",
"265 420 LINE",
"267 420 LINE",
"355 155 LINE",
"535 155 LINE",
"623 420 LINE",
"625 420 LINE",
"625 0 LINE",
"825 0 LINE",
"825 730 LINE",
"577 730 LINE",
"446 340 LINE",
"444 340 LINE",
"313 730 LINE",
"65 730 LINE",
"65 0 LINE"
);
},
{
closed = 1;
nodes = (
"1200 355 LINE",
"1200 560 LINE",
"1405 560 LINE",
"1405 730 LINE",
"1200 730 LINE",
"1200 935 LINE",
"1030 935 LINE",
"1030 730 LINE",
"825 730 LINE",
"825 560 LINE",
"1030 560 LINE",
"1030 355 LINE"
);
},
{
closed = 1;
nodes = (
"1775 0 LINE",
"1775 270 LINE",
"2045 270 LINE",
"2045 430 LINE",
"1775 430 LINE",
"1775 565 LINE",
"2065 565 LINE",
"2065 730 LINE",
"1575 730 LINE",
"1575 0 LINE"
);
},
{
closed = 1;
nodes = (
"2742 -10 OFFCURVE",
"2881 129 OFFCURVE",
"2881 365 CURVE SMOOTH",
"2881 601 OFFCURVE",
"2742 740 OFFCURVE",
"2506 740 CURVE SMOOTH",
"2270 740 OFFCURVE",
"2131 601 OFFCURVE",
"2131 365 CURVE SMOOTH",
"2131 129 OFFCURVE",
"2270 -10 OFFCURVE",
"2506 -10 CURVE SMOOTH"
);
},
{
closed = 1;
nodes = (
"2393 160 OFFCURVE",
"2336 229 OFFCURVE",
"2336 365 CURVE SMOOTH",
"2336 501 OFFCURVE",
"2393 570 OFFCURVE",
"2506 570 CURVE SMOOTH",
"2619 570 OFFCURVE",
"2676 501 OFFCURVE",
"2676 365 CURVE SMOOTH",
"2676 229 OFFCURVE",
"2619 160 OFFCURVE",
"2506 160 CURVE SMOOTH"
);
},
{
closed = 1;
nodes = (
"3178 0 LINE",
"3178 400 LINE",
"3180 400 LINE",
"3388 0 LINE",
"3588 0 LINE",
"3588 730 LINE",
"3388 730 LINE",
"3388 330 LINE",
"3386 330 LINE",
"3178 730 LINE",
"2978 730 LINE",
"2978 0 LINE"
);
},
{
closed = 1;
nodes = (
"4080 0 LINE",
"4080 560 LINE",
"4276 560 LINE",
"4276 730 LINE",
"3679 730 LINE",
"3679 560 LINE",
"3875 560 LINE",
"3875 0 LINE"
);
},
{
closed = 1;
nodes = (
"4780 -10 OFFCURVE",
"4886 69 OFFCURVE",
"4886 210 CURVE SMOOTH",
"4886 323 OFFCURVE",
"4817 389 OFFCURVE",
"4626 458 CURVE SMOOTH",
"4558 479 OFFCURVE",
"4531 498 OFFCURVE",
"4531 525 CURVE SMOOTH",
"4531 556 OFFCURVE",
"4565 575 OFFCURVE",
"4621 575 CURVE SMOOTH",
"4684 575 OFFCURVE",
"4756 556 OFFCURVE",
"4818 522 CURVE",
"4858 692 LINE",
"4795 721 OFFCURVE",
"4702 740 OFFCURVE",
"4611 740 CURVE SMOOTH",
"4423 740 OFFCURVE",
"4321 664 OFFCURVE",
"4321 525 CURVE SMOOTH",
"4321 408 OFFCURVE",
"4392 341 OFFCURVE",
"4596 275 CURVE SMOOTH",
"4657 254 OFFCURVE",
"4676 239 OFFCURVE",
"4676 210 CURVE SMOOTH",
"4676 174 OFFCURVE",
"4646 155 OFFCURVE",
"4591 155 CURVE SMOOTH",
"4520 155 OFFCURVE",
"4432 182 OFFCURVE",
"4366 224 CURVE",
"4326 54 LINE",
"4389 12 OFFCURVE",
"4483 -10 OFFCURVE",
"4591 -10 CURVE SMOOTH"
);
}
);
width = 4925;
},
{
background = {
components = (
{
name = M;
},
{
name = plus;
transform = "{1, 0, 0, 1, 773, 355}";
},
{
name = F;
transform = "{1, 0, 0, 1, 1510, 0}";
},
{
name = O;
transform = "{1, 0, 0, 1, 2099, 0}";
},
{
name = N;
transform = "{1, 0, 0, 1, 2913, 0}";
},
{
name = T;
transform = "{1, 0, 0, 1, 3653, 0}";
},
{
name = S;
transform = "{1, 0, 0, 1, 4282, 0}";
}
);
};
layerId = "9E6B41AB-2970-4C41-8B35-4DBE0D296A43";
leftMetricsKey = "=M";
rightMetricsKey = "=S";
paths = (
{
closed = 1;
nodes = (
"265 0 LINE",
"265 420 LINE",
"267 420 LINE",
"355 155 LINE",
"535 155 LINE",
"623 420 LINE",
"625 420 LINE",
"625 0 LINE",
"825 0 LINE",
"825 730 LINE",
"577 730 LINE",
"446 340 LINE",
"444 340 LINE",
"313 730 LINE",
"65 730 LINE",
"65 0 LINE"
);
},
{
closed = 1;
nodes = (
"1200 355 LINE",
"1200 560 LINE",
"1405 560 LINE",
"1405 730 LINE",
"1200 730 LINE",
"1200 935 LINE",
"1030 935 LINE",
"1030 730 LINE",
"825 730 LINE",
"825 560 LINE",
"1030 560 LINE",
"1030 355 LINE"
);
},
{
closed = 1;
nodes = (
"1775 0 LINE",
"1775 270 LINE",
"2045 270 LINE",
"2045 430 LINE",
"1775 430 LINE",
"1775 565 LINE",
"2065 565 LINE",
"2065 730 LINE",
"1575 730 LINE",
"1575 0 LINE"
);
},
{
closed = 1;
nodes = (
"2742 -10 OFFCURVE",
"2881 129 OFFCURVE",
"2881 365 CURVE SMOOTH",
"2881 601 OFFCURVE",
"2742 740 OFFCURVE",
"2506 740 CURVE SMOOTH",
"2270 740 OFFCURVE",
"2131 601 OFFCURVE",
"2131 365 CURVE SMOOTH",
"2131 129 OFFCURVE",
"2270 -10 OFFCURVE",
"2506 -10 CURVE SMOOTH"
);
},
{
closed = 1;
nodes = (
"2393 160 OFFCURVE",
"2336 229 OFFCURVE",
"2336 365 CURVE SMOOTH",
"2336 501 OFFCURVE",
"2393 570 OFFCURVE",
"2506 570 CURVE SMOOTH",
"2619 570 OFFCURVE",
"2676 501 OFFCURVE",
"2676 365 CURVE SMOOTH",
"2676 229 OFFCURVE",
"2619 160 OFFCURVE",
"2506 160 CURVE SMOOTH"
);
},
{
closed = 1;
nodes = (
"3178 0 LINE",
"3178 400 LINE",
"3180 400 LINE",
"3388 0 LINE",
"3588 0 LINE",
"3588 730 LINE",
"3388 730 LINE",
"3388 330 LINE",
"3386 330 LINE",
"3178 730 LINE",
"2978 730 LINE",
"2978 0 LINE"
);
},
{
closed = 1;
nodes = (
"4080 0 LINE",
"4080 560 LINE",
"4276 560 LINE",
"4276 730 LINE",
"3679 730 LINE",
"3679 560 LINE",
"3875 560 LINE",
"3875 0 LINE"
);
},
{
closed = 1;
nodes = (
"4780 -10 OFFCURVE",
"4886 69 OFFCURVE",
"4886 210 CURVE SMOOTH",
"4886 323 OFFCURVE",
"4817 389 OFFCURVE",
"4626 458 CURVE SMOOTH",
"4558 479 OFFCURVE",
"4531 498 OFFCURVE",
"4531 525 CURVE SMOOTH",
"4531 556 OFFCURVE",
"4565 575 OFFCURVE",
"4621 575 CURVE SMOOTH",
"4684 575 OFFCURVE",
"4756 556 OFFCURVE",
"4818 522 CURVE",
"4858 692 LINE",
"4795 721 OFFCURVE",
"4702 740 OFFCURVE",
"4611 740 CURVE SMOOTH",
"4423 740 OFFCURVE",
"4321 664 OFFCURVE",
"4321 525 CURVE SMOOTH",
"4321 408 OFFCURVE",
"4392 341 OFFCURVE",
"4596 275 CURVE SMOOTH",
"4657 254 OFFCURVE",
"4676 239 OFFCURVE",
"4676 210 CURVE SMOOTH",
"4676 174 OFFCURVE",
"4646 155 OFFCURVE",
"4591 155 CURVE SMOOTH",
"4520 155 OFFCURVE",
"4432 182 OFFCURVE",
"4366 224 CURVE",
"4326 54 LINE",
"4389 12 OFFCURVE",
"4483 -10 OFFCURVE",
"4591 -10 CURVE SMOOTH"
);
}
);
width = 4925;
},
{
layerId = "9527F797-22C1-480E-A1FE-2CDBEBE1FD4C";
paths = (
{
closed = 1;
nodes = (
"265 0 LINE",
"265 420 LINE",
"267 420 LINE",
"355 155 LINE",
"535 155 LINE",
"623 420 LINE",
"625 420 LINE",
"625 0 LINE",
"825 0 LINE",
"825 730 LINE",
"577 730 LINE",
"446 340 LINE",
"444 340 LINE",
"313 730 LINE",
"65 730 LINE",
"65 0 LINE"
);
},
{
closed = 1;
nodes = (
"1200 355 LINE",
"1200 560 LINE",
"1405 560 LINE",
"1405 730 LINE",
"1200 730 LINE",
"1200 935 LINE",
"1030 935 LINE",
"1030 730 LINE",
"825 730 LINE",
"825 560 LINE",
"1030 560 LINE",
"1030 355 LINE"
);
},
{
closed = 1;
nodes = (
"1775 0 LINE",
"1775 270 LINE",
"2045 270 LINE",
"2045 430 LINE",
"1775 430 LINE",
"1775 565 LINE",
"2065 565 LINE",
"2065 730 LINE",
"1575 730 LINE",
"1575 0 LINE"
);
},
{
closed = 1;
nodes = (
"2742 -10 OFFCURVE",
"2881 129 OFFCURVE",
"2881 365 CURVE SMOOTH",
"2881 601 OFFCURVE",
"2742 740 OFFCURVE",
"2506 740 CURVE SMOOTH",
"2270 740 OFFCURVE",
"2131 601 OFFCURVE",
"2131 365 CURVE SMOOTH",
"2131 129 OFFCURVE",
"2270 -10 OFFCURVE",
"2506 -10 CURVE SMOOTH"
);
},
{
closed = 1;
nodes = (
"2393 160 OFFCURVE",
"2336 229 OFFCURVE",
"2336 365 CURVE SMOOTH",
"2336 501 OFFCURVE",
"2393 570 OFFCURVE",
"2506 570 CURVE SMOOTH",
"2619 570 OFFCURVE",
"2676 501 OFFCURVE",
"2676 365 CURVE SMOOTH",
"2676 229 OFFCURVE",
"2619 160 OFFCURVE",
"2506 160 CURVE SMOOTH"
);
},
{
closed = 1;
nodes = (
"3178 0 LINE",
"3178 400 LINE",
"3180 400 LINE",
"3388 0 LINE",
"3588 0 LINE",
"3588 730 LINE",
"3388 730 LINE",
"3388 330 LINE",
"3386 330 LINE",
"3178 730 LINE",
"2978 730 LINE",
"2978 0 LINE"
);
},
{
closed = 1;
nodes = (
"4080 0 LINE",
"4080 560 LINE",
"4276 560 LINE",
"4276 730 LINE",
"3679 730 LINE",
"3679 560 LINE",
"3875 560 LINE",
"3875 0 LINE"
);
},
{
closed = 1;
nodes = (
"4780 -10 OFFCURVE",
"4886 69 OFFCURVE",
"4886 210 CURVE SMOOTH",
"4886 323 OFFCURVE",
"4817 389 OFFCURVE",
"4626 458 CURVE SMOOTH",
"4558 479 OFFCURVE",
"4531 498 OFFCURVE",
"4531 525 CURVE SMOOTH",
"4531 556 OFFCURVE",
"4565 575 OFFCURVE",
"4621 575 CURVE SMOOTH",
"4684 575 OFFCURVE",
"4756 556 OFFCURVE",
"4818 522 CURVE",
"4858 692 LINE",
"4795 721 OFFCURVE",
"4702 740 OFFCURVE",
"4611 740 CURVE SMOOTH",
"4423 740 OFFCURVE",
"4321 664 OFFCURVE",
"4321 525 CURVE SMOOTH",
"4321 408 OFFCURVE",
"4392 341 OFFCURVE",
"4596 275 CURVE SMOOTH",
"4657 254 OFFCURVE",
"4676 239 OFFCURVE",
"4676 210 CURVE SMOOTH",
"4676 174 OFFCURVE",
"4646 155 OFFCURVE",
"4591 155 CURVE SMOOTH",
"4520 155 OFFCURVE",
"4432 182 OFFCURVE",
"4366 224 CURVE",
"4326 54 LINE",
"4389 12 OFFCURVE",
"4483 -10 OFFCURVE",
"4591 -10 CURVE SMOOTH"
);
}
);
width = 4925;
}
);
leftKerningGroup = H;
rightKerningGroup = S;
},
{
color = 3;
glyphname = ordfeminine;
lastChange = "2020-12-09 11:54:00 +0000";
layers = (
{
layerId = "D65C9A1E-0FCA-4B2D-8EDF-9F36CA9182A1";
paths = (
{
closed = 1;
nodes = (
"351 314 LINE",
"351 578 LINE SMOOTH",
"351 693 OFFCURVE",
"311 738 OFFCURVE",
"209 738 CURVE SMOOTH",
"153 738 OFFCURVE",
"98 724 OFFCURVE",
"47 698 CURVE",
"56 680 LINE",
"105 705 OFFCURVE",
"157 718 OFFCURVE",
"209 718 CURVE SMOOTH",
"299 718 OFFCURVE",
"331 682 OFFCURVE",
"331 578 CURVE SMOOTH",
"331 397 LINE",
"331 397 LINE",
"331 314 LINE"
);
},
{
closed = 1;
nodes = (
"240 306 OFFCURVE",
"299 342 OFFCURVE",
"329 397 CURVE",
"343 397 LINE",
"343 481 LINE",
"331 481 LINE",
"331 392 OFFCURVE",
"262 326 OFFCURVE",
"169 326 CURVE SMOOTH",
"97 326 OFFCURVE",
"51 365 OFFCURVE",
"51 426 CURVE SMOOTH",
"51 508 OFFCURVE",
"134 554 OFFCURVE",
"282 554 CURVE SMOOTH",
"341 554 LINE",
"341 574 LINE",
"282 574 LINE SMOOTH",
"123 574 OFFCURVE",
"31 521 OFFCURVE",
"31 426 CURVE SMOOTH",
"31 354 OFFCURVE",
"86 306 OFFCURVE",
"169 306 CURVE SMOOTH"
);
}
);
width = 413;
},
{
layerId = "9527F797-22C1-480E-A1FE-2CDBEBE1FD4C";
paths = (
{
closed = 1;
nodes = (
"388 314 LINE",
"388 574 LINE SMOOTH",
"388 691 OFFCURVE",
"340 738 OFFCURVE",
"221 738 CURVE SMOOTH",
"159 738 OFFCURVE",
"99 725 OFFCURVE",
"44 700 CURVE",
"59 625 LINE",
"106 649 OFFCURVE",
"158 662 OFFCURVE",
"205 662 CURVE SMOOTH",
"266 662 OFFCURVE",
"285 640 OFFCURVE",
"285 568 CURVE SMOOTH",
"285 361 LINE",
"288 361 LINE",
"289 314 LINE"
);
},
{
closed = 1;
nodes = (
"212 306 OFFCURVE",
"260 327 OFFCURVE",
"286 361 CURVE",
"345 361 LINE",
"345 472 LINE",
"285 473 LINE",
"285 421 OFFCURVE",
"245 385 OFFCURVE",
"188 385 CURVE SMOOTH",
"144 385 OFFCURVE",
"117 406 OFFCURVE",
"117 442 CURVE SMOOTH",
"117 489 OFFCURVE",
"163 512 OFFCURVE",
"256 512 CURVE SMOOTH",
"344 512 LINE",
"344 583 LINE",
"266 583 LINE SMOOTH",
"113 583 OFFCURVE",
"26 529 OFFCURVE",
"26 433 CURVE SMOOTH",
"26 358 OFFCURVE",
"81 306 OFFCURVE",
"161 306 CURVE SMOOTH"
);
}
);
width = 440;
},
{
layerId = "9E6B41AB-2970-4C41-8B35-4DBE0D296A43";
paths = (
{
closed = 1;
nodes = (
"425 314 LINE",
"425 570 LINE SMOOTH",
"425 689 OFFCURVE",
"368 738 OFFCURVE",
"233 738 CURVE SMOOTH",
"165 738 OFFCURVE",
"99 726 OFFCURVE",
"41 702 CURVE",
"61 590 LINE",
"110 613 OFFCURVE",
"165 626 OFFCURVE",
"212 626 CURVE SMOOTH",
"249 626 OFFCURVE",
"258 617 OFFCURVE",
"258 578 CURVE SMOOTH",
"258 353 LINE",
"265 353 LINE",
"266 314 LINE"
);
},
{
closed = 1;
nodes = (
"196 306 OFFCURVE",
"235 323 OFFCURVE",
"263 353 CURVE",
"347 353 LINE",
"347 470 LINE",
"258 473 LINE",
"258 442 OFFCURVE",
"237 424 OFFCURVE",
"201 424 CURVE SMOOTH",
"175 424 OFFCURVE",
"162 434 OFFCURVE",
"162 455 CURVE SMOOTH",
"162 483 OFFCURVE",
"184 494 OFFCURVE",
"240 494 CURVE SMOOTH",
"347 494 LINE",
"347 588 LINE",
"249 588 LINE SMOOTH",
"103 588 OFFCURVE",
"21 534 OFFCURVE",
"21 439 CURVE SMOOTH",
"21 361 OFFCURVE",
"75 306 OFFCURVE",
"153 306 CURVE SMOOTH"
);
}
);
width = 466;
},
{
associatedMasterId = "D65C9A1E-0FCA-4B2D-8EDF-9F36CA9182A1";
layerId = "02CE7075-E2BA-495E-B00B-7DF72736FD8B";
name = "Light {232}";
paths = (
{
closed = 1;
nodes = (
"363 314 LINE",
"363 577 LINE SMOOTH",
"363 692 OFFCURVE",
"320 738 OFFCURVE",
"212 738 CURVE SMOOTH",
"154 738 OFFCURVE",
"98 724 OFFCURVE",
"45 699 CURVE",
"56 662 LINE",
"105 687 OFFCURVE",
"157 700 OFFCURVE",
"207 700 CURVE SMOOTH",
"287 700 OFFCURVE",
"315 668 OFFCURVE",
"315 575 CURVE SMOOTH",
"315 375 LINE",
"316 375 LINE",
"316 314 LINE"
);
},
{
closed = 1;
nodes = (
"227 306 OFFCURVE",
"286 333 OFFCURVE",
"314 375 CURVE",
"343 375 LINE",
"343 478 LINE",
"315 478 LINE",
"315 402 OFFCURVE",
"256 345 OFFCURVE",
"175 345 CURVE SMOOTH",
"112 345 OFFCURVE",
"72 379 OFFCURVE",
"72 431 CURVE SMOOTH",
"72 502 OFFCURVE",
"143 540 OFFCURVE",
"273 540 CURVE SMOOTH",
"341 540 LINE",
"341 577 LINE",
"276 577 LINE SMOOTH",
"119 577 OFFCURVE",
"29 524 OFFCURVE",
"29 428 CURVE SMOOTH",
"29 355 OFFCURVE",
"84 306 OFFCURVE",
"166 306 CURVE SMOOTH"
);
}
);
width = 422;
}
);
leftKerningGroup = asterisk;
leftMetricsKey = "=a*.9";
rightKerningGroup = asterisk;
rightMetricsKey = "=a*.9";
unicode = 00AA;
},
{
color = 3;
glyphname = ordmasculine;
lastChange = "2020-12-09 11:53:59 +0000";
layers = (
{
layerId = "D65C9A1E-0FCA-4B2D-8EDF-9F36CA9182A1";
paths = (
{
closed = 1;
nodes = (
"338 306 OFFCURVE",
"407 388 OFFCURVE",
"407 522 CURVE SMOOTH",
"407 656 OFFCURVE",
"338 738 OFFCURVE",
"223 738 CURVE SMOOTH",
"109 738 OFFCURVE",
"39 656 OFFCURVE",
"39 522 CURVE SMOOTH",
"39 388 OFFCURVE",
"109 306 OFFCURVE",
"223 306 CURVE SMOOTH"
);
},
{
closed = 1;
nodes = (
"120 326 OFFCURVE",
"59 398 OFFCURVE",
"59 522 CURVE SMOOTH",
"59 646 OFFCURVE",
"120 718 OFFCURVE",
"223 718 CURVE SMOOTH",
"326 718 OFFCURVE",
"387 646 OFFCURVE",
"387 522 CURVE SMOOTH",
"387 398 OFFCURVE",
"326 326 OFFCURVE",
"223 326 CURVE SMOOTH"
);
}
);
width = 446;
},
{
layerId = "9527F797-22C1-480E-A1FE-2CDBEBE1FD4C";
paths = (
{
closed = 1;
nodes = (
"363 306 OFFCURVE",
"436 385 OFFCURVE",
"436 522 CURVE SMOOTH",
"436 660 OFFCURVE",
"363 738 OFFCURVE",
"234 738 CURVE SMOOTH",
"105 738 OFFCURVE",
"32 660 OFFCURVE",
"32 522 CURVE SMOOTH",
"32 385 OFFCURVE",
"105 306 OFFCURVE",
"234 306 CURVE SMOOTH"
);
},
{
closed = 1;
nodes = (
"170 387 OFFCURVE",
"136 433 OFFCURVE",
"136 522 CURVE SMOOTH",
"136 611 OFFCURVE",
"170 657 OFFCURVE",
"234 657 CURVE SMOOTH",
"299 657 OFFCURVE",
"333 611 OFFCURVE",
"333 522 CURVE SMOOTH",
"333 433 OFFCURVE",
"299 387 OFFCURVE",
"234 387 CURVE SMOOTH"
);
}
);
width = 468;
},
{
layerId = "9E6B41AB-2970-4C41-8B35-4DBE0D296A43";
paths = (
{
closed = 1;
nodes = (
"389 306 OFFCURVE",
"466 381 OFFCURVE",
"466 522 CURVE SMOOTH",
"466 663 OFFCURVE",
"389 738 OFFCURVE",
"246 738 CURVE SMOOTH",
"102 738 OFFCURVE",
"26 663 OFFCURVE",
"26 522 CURVE SMOOTH",
"26 381 OFFCURVE",
"102 306 OFFCURVE",
"246 306 CURVE SMOOTH"
);
},
{
closed = 1;
nodes = (
"210 428 OFFCURVE",
"193 456 OFFCURVE",
"193 522 CURVE SMOOTH",
"193 588 OFFCURVE",
"210 616 OFFCURVE",
"246 616 CURVE SMOOTH",
"282 616 OFFCURVE",
"299 588 OFFCURVE",
"299 522 CURVE SMOOTH",
"299 456 OFFCURVE",
"282 428 OFFCURVE",
"246 428 CURVE SMOOTH"
);
}
);
width = 492;
}
);
leftKerningGroup = asterisk;
leftMetricsKey = "=o*.9";
rightKerningGroup = asterisk;
rightMetricsKey = "=|";
unicode = 00BA;
},
